<svg width="234" height="29" viewBox="0 0 234 29" fill="none" xmlns="http://www.w3.org/2000/svg">
<g filter="url(#filter0_i)">
<path d="M9.7168 11.8193L13.9941 0.671875H18.1104L10.6836 18.3672L10.0098 19.7002C9.0332 21.4385 7.45117 22.3076 5.26367 22.3076L3.74023 22.2197L3.76953 19.29C4.00391 19.3291 4.41895 19.3486 5.01465 19.3486C6.06934 19.3486 6.81152 18.8994 7.24121 18.001L8.00293 16.1992L0.708008 0.671875H4.75098L9.7168 11.8193ZM25.0244 15.7305H23.2227V22H19.6631V6.15039H23.2227V12.4785H24.79L29.1699 6.15039H33.5645L27.8369 13.7383L34.0479 22H29.4189L25.0244 15.7305ZM45.4736 22C45.3174 21.6973 45.1807 21.2041 45.0635 20.5205C43.9307 21.7021 42.5439 22.293 40.9033 22.293C39.3115 22.293 38.0127 21.8389 37.0068 20.9307C36.001 20.0225 35.498 18.8994 35.498 17.5615C35.498 15.8721 36.123 14.5781 37.373 13.6797C38.6328 12.7715 40.4297 12.3174 42.7637 12.3174H44.9463V11.2773C44.9463 10.457 44.7168 9.80273 44.2578 9.31445C43.7988 8.81641 43.1006 8.56738 42.1631 8.56738C41.3525 8.56738 40.6885 8.77246 40.1709 9.18262C39.6533 9.58301 39.3945 10.0957 39.3945 10.7207H35.835C35.835 9.85156 36.123 9.04102 36.6992 8.28906C37.2754 7.52734 38.0566 6.93164 39.043 6.50195C40.0391 6.07227 41.1475 5.85742 42.3682 5.85742C44.2236 5.85742 45.7031 6.32617 46.8066 7.26367C47.9102 8.19141 48.4766 9.5 48.5059 11.1895V18.3379C48.5059 19.7637 48.7061 20.9014 49.1064 21.751V22H45.4736ZM41.5625 19.4365C42.2656 19.4365 42.9248 19.2656 43.54 18.9238C44.165 18.582 44.6338 18.123 44.9463 17.5469V14.5586H43.0273C41.709 14.5586 40.7178 14.7881 40.0537 15.2471C39.3896 15.7061 39.0576 16.3555 39.0576 17.1953C39.0576 17.8789 39.2822 18.4258 39.7314 18.8359C40.1904 19.2363 40.8008 19.4365 41.5625 19.4365ZM66.1865 15.6279H64.2969V22H60.7373V15.6279H58.8623L55.2148 22H50.8496L56.1084 13.7529L51.1279 6.15039H55.4785L59.0674 12.376H60.7373V6.15039H64.2969V12.376H65.9814L69.585 6.15039H73.9355L68.9697 13.709L74.2578 22H69.834L66.1865 15.6279ZM86.3574 6.15039H89.9023V22H86.3574V11.4238L80.1465 22H76.6016V6.15039H80.1465V16.7266L86.3574 6.15039ZM106.162 8.97754H101.021V22H97.4609V8.97754H92.3779V6.15039H106.162V8.97754ZM114.585 22.293C112.329 22.293 110.498 21.585 109.092 20.1689C107.695 18.7432 106.997 16.8486 106.997 14.4854V14.0459C106.997 12.4639 107.3 11.0527 107.905 9.8125C108.521 8.5625 109.38 7.59082 110.483 6.89746C111.587 6.2041 112.817 5.85742 114.175 5.85742C116.333 5.85742 117.998 6.5459 119.17 7.92285C120.352 9.2998 120.942 11.248 120.942 13.7676V15.2031H110.586C110.693 16.5117 111.128 17.5469 111.89 18.3086C112.661 19.0703 113.628 19.4512 114.79 19.4512C116.421 19.4512 117.749 18.792 118.774 17.4736L120.693 19.3047C120.059 20.252 119.209 20.9893 118.145 21.5166C117.09 22.0342 115.903 22.293 114.585 22.293ZM114.16 8.71387C113.184 8.71387 112.393 9.05566 111.787 9.73926C111.191 10.4229 110.811 11.375 110.645 12.5957H117.427V12.332C117.349 11.1406 117.031 10.2422 116.475 9.63672C115.918 9.02148 115.146 8.71387 114.16 8.71387ZM140.659 22C140.503 21.6973 140.366 21.2041 140.249 20.5205C139.116 21.7021 137.729 22.293 136.089 22.293C134.497 22.293 133.198 21.8389 132.192 20.9307C131.187 20.0225 130.684 18.8994 130.684 17.5615C130.684 15.8721 131.309 14.5781 132.559 13.6797C133.818 12.7715 135.615 12.3174 137.949 12.3174H140.132V11.2773C140.132 10.457 139.902 9.80273 139.443 9.31445C138.984 8.81641 138.286 8.56738 137.349 8.56738C136.538 8.56738 135.874 8.77246 135.356 9.18262C134.839 9.58301 134.58 10.0957 134.58 10.7207H131.021C131.021 9.85156 131.309 9.04102 131.885 8.28906C132.461 7.52734 133.242 6.93164 134.229 6.50195C135.225 6.07227 136.333 5.85742 137.554 5.85742C139.409 5.85742 140.889 6.32617 141.992 7.26367C143.096 8.19141 143.662 9.5 143.691 11.1895V18.3379C143.691 19.7637 143.892 20.9014 144.292 21.751V22H140.659ZM136.748 19.4365C137.451 19.4365 138.11 19.2656 138.726 18.9238C139.351 18.582 139.819 18.123 140.132 17.5469V14.5586H138.213C136.895 14.5586 135.903 14.7881 135.239 15.2471C134.575 15.7061 134.243 16.3555 134.243 17.1953C134.243 17.8789 134.468 18.4258 134.917 18.8359C135.376 19.2363 135.986 19.4365 136.748 19.4365ZM147.69 22V6.15039H154.121C156.289 6.15039 157.939 6.53125 159.072 7.29297C160.205 8.04492 160.771 9.12891 160.771 10.5449C160.771 11.2773 160.542 11.9365 160.083 12.5225C159.634 13.0986 158.965 13.543 158.076 13.8555C159.111 14.0703 159.932 14.5049 160.537 15.1592C161.143 15.8135 161.445 16.585 161.445 17.4736C161.445 18.9482 160.898 20.0713 159.805 20.8428C158.721 21.6143 157.158 22 155.117 22H147.69ZM151.25 15.2471V19.1875H155.146C156.973 19.1875 157.886 18.5332 157.886 17.2246C157.886 15.9062 156.958 15.2471 155.103 15.2471H151.25ZM151.25 12.6982H154.18C156.201 12.6982 157.212 12.1025 157.212 10.9111C157.212 9.66113 156.255 9.0166 154.341 8.97754H151.25V12.6982ZM176.826 8.97754H171.685V22H168.125V8.97754H163.042V6.15039H176.826V8.97754ZM178.101 13.9287C178.101 12.376 178.408 10.9795 179.023 9.73926C179.639 8.48926 180.503 7.53223 181.616 6.86816C182.729 6.19434 184.009 5.85742 185.454 5.85742C187.593 5.85742 189.326 6.5459 190.654 7.92285C191.992 9.2998 192.715 11.126 192.822 13.4014L192.837 14.2363C192.837 15.7988 192.534 17.1953 191.929 18.4258C191.333 19.6562 190.474 20.6084 189.351 21.2822C188.237 21.9561 186.948 22.293 185.483 22.293C183.247 22.293 181.455 21.5508 180.107 20.0664C178.77 18.5723 178.101 16.585 178.101 14.1045V13.9287ZM181.66 14.2363C181.66 15.8672 181.997 17.1465 182.671 18.0742C183.345 18.9922 184.282 19.4512 185.483 19.4512C186.685 19.4512 187.617 18.9824 188.281 18.0449C188.955 17.1074 189.292 15.7354 189.292 13.9287C189.292 12.3271 188.945 11.0576 188.252 10.1201C187.568 9.18262 186.636 8.71387 185.454 8.71387C184.292 8.71387 183.369 9.17773 182.686 10.1055C182.002 11.0234 181.66 12.4004 181.66 14.2363ZM209.727 14.2363C209.727 16.6875 209.17 18.6455 208.057 20.1104C206.943 21.5654 205.449 22.293 203.574 22.293C201.836 22.293 200.444 21.7217 199.399 20.5791V28.0938H195.84V6.15039H199.121L199.268 7.76172C200.312 6.49219 201.733 5.85742 203.53 5.85742C205.464 5.85742 206.978 6.58008 208.071 8.02539C209.175 9.46094 209.727 11.458 209.727 14.0166V14.2363ZM206.182 13.9287C206.182 12.3467 205.864 11.0918 205.229 10.1641C204.604 9.23633 203.706 8.77246 202.534 8.77246C201.079 8.77246 200.034 9.37305 199.399 10.5742V17.6055C200.044 18.8359 201.099 19.4512 202.563 19.4512C203.696 19.4512 204.58 18.9971 205.215 18.0889C205.859 17.1709 206.182 15.7842 206.182 13.9287ZM222.222 22C222.065 21.6973 221.929 21.2041 221.812 20.5205C220.679 21.7021 219.292 22.293 217.651 22.293C216.06 22.293 214.761 21.8389 213.755 20.9307C212.749 20.0225 212.246 18.8994 212.246 17.5615C212.246 15.8721 212.871 14.5781 214.121 13.6797C215.381 12.7715 217.178 12.3174 219.512 12.3174H221.694V11.2773C221.694 10.457 221.465 9.80273 221.006 9.31445C220.547 8.81641 219.849 8.56738 218.911 8.56738C218.101 8.56738 217.437 8.77246 216.919 9.18262C216.401 9.58301 216.143 10.0957 216.143 10.7207H212.583C212.583 9.85156 212.871 9.04102 213.447 8.28906C214.023 7.52734 214.805 6.93164 215.791 6.50195C216.787 6.07227 217.896 5.85742 219.116 5.85742C220.972 5.85742 222.451 6.32617 223.555 7.26367C224.658 8.19141 225.225 9.5 225.254 11.1895V18.3379C225.254 19.7637 225.454 20.9014 225.854 21.751V22H222.222ZM218.311 19.4365C219.014 19.4365 219.673 19.2656 220.288 18.9238C220.913 18.582 221.382 18.123 221.694 17.5469V14.5586H219.775C218.457 14.5586 217.466 14.7881 216.802 15.2471C216.138 15.7061 215.806 16.3555 215.806 17.1953C215.806 17.8789 216.03 18.4258 216.479 18.8359C216.938 19.2363 217.549 19.4365 218.311 19.4365ZM231.128 18.25C231.792 18.25 232.305 18.4404 232.666 18.8213C233.027 19.1924 233.208 19.6611 233.208 20.2275C233.208 20.7842 233.027 21.248 232.666 21.6191C232.305 21.9805 231.792 22.1611 231.128 22.1611C230.493 22.1611 229.99 21.9805 229.619 21.6191C229.248 21.2578 229.062 20.7939 229.062 20.2275C229.062 19.6611 229.243 19.1924 229.604 18.8213C229.966 18.4404 230.474 18.25 231.128 18.25ZM231.128 5.81348C231.792 5.81348 232.305 6.00391 232.666 6.38477C233.027 6.75586 233.208 7.22461 233.208 7.79102C233.208 8.34766 233.027 8.81152 232.666 9.18262C232.305 9.54395 231.792 9.72461 231.128 9.72461C230.493 9.72461 229.99 9.54395 229.619 9.18262C229.248 8.82129 229.062 8.35742 229.062 7.79102C229.062 7.22461 229.243 6.75586 229.604 6.38477C229.966 6.00391 230.474 5.81348 231.128 5.81348Z" fill="#FB929E"/>
</g>
<defs>
<filter id="filter0_i" x="0.708008" y="0.671875" width="232.5" height="31.4219" filterUnits="userSpaceOnUse" color-interpolation-filters="sRGB">
<feFlood flood-opacity="0" result="BackgroundImageFix"/>
<feBlend mode="normal" in="SourceGraphic" in2="BackgroundImageFix" result="shape"/>
<feColorMatrix in="SourceAlpha" type="matrix" values="0 0 0 0 0 0 0 0 0 0 0 0 0 0 0 0 0 0 127 0" result="hardAlpha"/>
<feOffset dy="4"/>
<feGaussianBlur stdDeviation="2"/>
<feComposite in2="hardAlpha" operator="arithmetic" k2="-1" k3="1"/>
<feColorMatrix type="matrix" values="0 0 0 0 0 0 0 0 0 0 0 0 0 0 0 0 0 0 0.25 0"/>
<feBlend mode="normal" in2="shape" result="effect1_innerShadow"/>
</filter>
</defs>
</svg>
