<svg width="309" height="27" viewBox="0 0 309 27" fill="none" xmlns="http://www.w3.org/2000/svg">
<g filter="url(#filter0_i)">
<path d="M0.398438 22V0.671875H7.70801C10.1201 0.671875 11.9561 1.15527 13.2158 2.12207C14.4756 3.08887 15.1055 4.5293 15.1055 6.44336C15.1055 7.41992 14.8418 8.29883 14.3145 9.08008C13.7871 9.86133 13.0156 10.4668 12 10.8965C13.1523 11.209 14.041 11.7998 14.666 12.6689C15.3008 13.5283 15.6182 14.5635 15.6182 15.7744C15.6182 17.7764 14.9736 19.3145 13.6846 20.3887C12.4053 21.4629 10.5693 22 8.17676 22H0.398438ZM4.10449 12.376V19.041H8.2207C9.38281 19.041 10.291 18.7529 10.9453 18.1768C11.5996 17.6006 11.9268 16.7998 11.9268 15.7744C11.9268 13.5576 10.7939 12.4248 8.52832 12.376H4.10449ZM4.10449 9.65137H7.7373C8.88965 9.65137 9.78809 9.39258 10.4326 8.875C11.0869 8.34766 11.4141 7.60547 11.4141 6.64844C11.4141 5.59375 11.1113 4.83203 10.5059 4.36328C9.91016 3.89453 8.97754 3.66016 7.70801 3.66016H4.10449V9.65137ZM19.251 22V6.15039H25.6816C27.8496 6.15039 29.5 6.53125 30.6328 7.29297C31.7656 8.04492 32.332 9.12891 32.332 10.5449C32.332 11.2773 32.1025 11.9365 31.6436 12.5225C31.1943 13.0986 30.5254 13.543 29.6367 13.8555C30.6719 14.0703 31.4922 14.5049 32.0977 15.1592C32.7031 15.8135 33.0059 16.585 33.0059 17.4736C33.0059 18.9482 32.459 20.0713 31.3652 20.8428C30.2812 21.6143 28.7188 22 26.6777 22H19.251ZM22.8105 15.2471V19.1875H26.707C28.5332 19.1875 29.4463 18.5332 29.4463 17.2246C29.4463 15.9062 28.5186 15.2471 26.6631 15.2471H22.8105ZM22.8105 12.6982H25.7402C27.7617 12.6982 28.7725 12.1025 28.7725 10.9111C28.7725 9.66113 27.8154 9.0166 25.9014 8.97754H22.8105V12.6982ZM43.0693 22.293C40.8135 22.293 38.9824 21.585 37.5762 20.1689C36.1797 18.7432 35.4814 16.8486 35.4814 14.4854V14.0459C35.4814 12.4639 35.7842 11.0527 36.3896 9.8125C37.0049 8.5625 37.8643 7.59082 38.9678 6.89746C40.0713 6.2041 41.3018 5.85742 42.6592 5.85742C44.8174 5.85742 46.4824 6.5459 47.6543 7.92285C48.8359 9.2998 49.4268 11.248 49.4268 13.7676V15.2031H39.0703C39.1777 16.5117 39.6123 17.5469 40.374 18.3086C41.1455 19.0703 42.1123 19.4512 43.2744 19.4512C44.9053 19.4512 46.2334 18.792 47.2588 17.4736L49.1777 19.3047C48.543 20.252 47.6934 20.9893 46.6289 21.5166C45.5742 22.0342 44.3877 22.293 43.0693 22.293ZM42.6445 8.71387C41.668 8.71387 40.877 9.05566 40.2715 9.73926C39.6758 10.4229 39.2949 11.375 39.1289 12.5957H45.9111V12.332C45.833 11.1406 45.5156 10.2422 44.959 9.63672C44.4023 9.02148 43.6309 8.71387 42.6445 8.71387ZM52.2686 19.1582C53.2549 18.0547 53.9141 17.0098 54.2461 16.0234C54.5879 15.0273 54.793 13.7578 54.8613 12.2148L55.0664 6.15039H66.0674V19.1582H68.2646V26.7168H64.7197V22H54.5537V26.7168H50.9502L50.9648 19.1582H52.2686ZM56.4434 19.1582H62.5225V9.21191H58.5234L58.4209 12.2441C58.2842 15.1543 57.625 17.459 56.4434 19.1582ZM80.4375 6.15039H83.9824V22H80.4375V11.4238L74.2266 22H70.6816V6.15039H74.2266V16.7266L80.4375 6.15039ZM100.242 8.97754H95.1006V22H91.541V8.97754H86.458V6.15039H100.242V8.97754ZM108.665 22.293C106.409 22.293 104.578 21.585 103.172 20.1689C101.775 18.7432 101.077 16.8486 101.077 14.4854V14.0459C101.077 12.4639 101.38 11.0527 101.985 9.8125C102.601 8.5625 103.46 7.59082 104.563 6.89746C105.667 6.2041 106.897 5.85742 108.255 5.85742C110.413 5.85742 112.078 6.5459 113.25 7.92285C114.432 9.2998 115.022 11.248 115.022 13.7676V15.2031H104.666C104.773 16.5117 105.208 17.5469 105.97 18.3086C106.741 19.0703 107.708 19.4512 108.87 19.4512C110.501 19.4512 111.829 18.792 112.854 17.4736L114.773 19.3047C114.139 20.252 113.289 20.9893 112.225 21.5166C111.17 22.0342 109.983 22.293 108.665 22.293ZM108.24 8.71387C107.264 8.71387 106.473 9.05566 105.867 9.73926C105.271 10.4229 104.891 11.375 104.725 12.5957H111.507V12.332C111.429 11.1406 111.111 10.2422 110.555 9.63672C109.998 9.02148 109.227 8.71387 108.24 8.71387ZM137.742 8.97754H132.601V22H129.041V8.97754H123.958V6.15039H137.742V8.97754ZM146.165 22.293C143.909 22.293 142.078 21.585 140.672 20.1689C139.275 18.7432 138.577 16.8486 138.577 14.4854V14.0459C138.577 12.4639 138.88 11.0527 139.485 9.8125C140.101 8.5625 140.96 7.59082 142.063 6.89746C143.167 6.2041 144.397 5.85742 145.755 5.85742C147.913 5.85742 149.578 6.5459 150.75 7.92285C151.932 9.2998 152.522 11.248 152.522 13.7676V15.2031H142.166C142.273 16.5117 142.708 17.5469 143.47 18.3086C144.241 19.0703 145.208 19.4512 146.37 19.4512C148.001 19.4512 149.329 18.792 150.354 17.4736L152.273 19.3047C151.639 20.252 150.789 20.9893 149.725 21.5166C148.67 22.0342 147.483 22.293 146.165 22.293ZM145.74 8.71387C144.764 8.71387 143.973 9.05566 143.367 9.73926C142.771 10.4229 142.391 11.375 142.225 12.5957H149.007V12.332C148.929 11.1406 148.611 10.2422 148.055 9.63672C147.498 9.02148 146.727 8.71387 145.74 8.71387ZM160.931 15.7305H159.129V22H155.569V6.15039H159.129V12.4785H160.696L165.076 6.15039H169.471L163.743 13.7383L169.954 22H165.325L160.931 15.7305ZM178.187 19.4512C179.075 19.4512 179.812 19.1924 180.398 18.6748C180.984 18.1572 181.297 17.5176 181.336 16.7559H184.69C184.651 17.7422 184.344 18.665 183.768 19.5244C183.191 20.374 182.41 21.0479 181.424 21.5459C180.438 22.0439 179.373 22.293 178.23 22.293C176.014 22.293 174.256 21.5752 172.957 20.1396C171.658 18.7041 171.009 16.7217 171.009 14.1924V13.8262C171.009 11.4141 171.653 9.48535 172.942 8.04004C174.231 6.58496 175.989 5.85742 178.216 5.85742C180.101 5.85742 181.634 6.40918 182.815 7.5127C184.007 8.60645 184.632 10.0469 184.69 11.834H181.336C181.297 10.9258 180.984 10.1787 180.398 9.59277C179.822 9.00684 179.085 8.71387 178.187 8.71387C177.034 8.71387 176.146 9.13379 175.521 9.97363C174.896 10.8037 174.578 12.0684 174.568 13.7676V14.3389C174.568 16.0576 174.876 17.3418 175.491 18.1914C176.116 19.0312 177.015 19.4512 178.187 19.4512ZM199.852 8.97754H194.71V22H191.15V8.97754H186.067V6.15039H199.852V8.97754ZM216.214 19.4512C217.103 19.4512 217.84 19.1924 218.426 18.6748C219.012 18.1572 219.324 17.5176 219.363 16.7559H222.718C222.679 17.7422 222.371 18.665 221.795 19.5244C221.219 20.374 220.438 21.0479 219.451 21.5459C218.465 22.0439 217.4 22.293 216.258 22.293C214.041 22.293 212.283 21.5752 210.984 20.1396C209.686 18.7041 209.036 16.7217 209.036 14.1924V13.8262C209.036 11.4141 209.681 9.48535 210.97 8.04004C212.259 6.58496 214.017 5.85742 216.243 5.85742C218.128 5.85742 219.661 6.40918 220.843 7.5127C222.034 8.60645 222.659 10.0469 222.718 11.834H219.363C219.324 10.9258 219.012 10.1787 218.426 9.59277C217.85 9.00684 217.112 8.71387 216.214 8.71387C215.062 8.71387 214.173 9.13379 213.548 9.97363C212.923 10.8037 212.605 12.0684 212.596 13.7676V14.3389C212.596 16.0576 212.903 17.3418 213.519 18.1914C214.144 19.0312 215.042 19.4512 216.214 19.4512ZM237.879 8.97754H232.737V22H229.178V8.97754H224.095V6.15039H237.879V8.97754ZM249.495 22C249.339 21.6973 249.202 21.2041 249.085 20.5205C247.952 21.7021 246.565 22.293 244.925 22.293C243.333 22.293 242.034 21.8389 241.028 20.9307C240.022 20.0225 239.52 18.8994 239.52 17.5615C239.52 15.8721 240.145 14.5781 241.395 13.6797C242.654 12.7715 244.451 12.3174 246.785 12.3174H248.968V11.2773C248.968 10.457 248.738 9.80273 248.279 9.31445C247.82 8.81641 247.122 8.56738 246.185 8.56738C245.374 8.56738 244.71 8.77246 244.192 9.18262C243.675 9.58301 243.416 10.0957 243.416 10.7207H239.856C239.856 9.85156 240.145 9.04102 240.721 8.28906C241.297 7.52734 242.078 6.93164 243.064 6.50195C244.061 6.07227 245.169 5.85742 246.39 5.85742C248.245 5.85742 249.725 6.32617 250.828 7.26367C251.932 8.19141 252.498 9.5 252.527 11.1895V18.3379C252.527 19.7637 252.728 20.9014 253.128 21.751V22H249.495ZM245.584 19.4365C246.287 19.4365 246.946 19.2656 247.562 18.9238C248.187 18.582 248.655 18.123 248.968 17.5469V14.5586H247.049C245.73 14.5586 244.739 14.7881 244.075 15.2471C243.411 15.7061 243.079 16.3555 243.079 17.1953C243.079 17.8789 243.304 18.4258 243.753 18.8359C244.212 19.2363 244.822 19.4365 245.584 19.4365ZM268.494 8.97754H263.353V22H259.793V8.97754H254.71V6.15039H268.494V8.97754ZM274.705 11.1895H278.191C279.49 11.1895 280.623 11.4141 281.59 11.8633C282.557 12.3125 283.289 12.9424 283.787 13.7529C284.295 14.5635 284.549 15.5059 284.549 16.5801C284.549 18.2109 283.973 19.5195 282.82 20.5059C281.668 21.4922 280.135 21.9902 278.221 22H271.146V6.15039H274.705V11.1895ZM274.705 14.0459V19.1582H278.177C279.046 19.1582 279.729 18.9434 280.228 18.5137C280.735 18.0742 280.989 17.4541 280.989 16.6533C280.989 15.8525 280.74 15.2227 280.242 14.7637C279.754 14.2949 279.09 14.0557 278.25 14.0459H274.705ZM297.293 6.15039H300.838V22H297.293V11.4238L291.082 22H287.537V6.15039H291.082V16.7266L297.293 6.15039ZM306.771 18.25C307.435 18.25 307.947 18.4404 308.309 18.8213C308.67 19.1924 308.851 19.6611 308.851 20.2275C308.851 20.7842 308.67 21.248 308.309 21.6191C307.947 21.9805 307.435 22.1611 306.771 22.1611C306.136 22.1611 305.633 21.9805 305.262 21.6191C304.891 21.2578 304.705 20.7939 304.705 20.2275C304.705 19.6611 304.886 19.1924 305.247 18.8213C305.608 18.4404 306.116 18.25 306.771 18.25ZM306.771 5.81348C307.435 5.81348 307.947 6.00391 308.309 6.38477C308.67 6.75586 308.851 7.22461 308.851 7.79102C308.851 8.34766 308.67 8.81152 308.309 9.18262C307.947 9.54395 307.435 9.72461 306.771 9.72461C306.136 9.72461 305.633 9.54395 305.262 9.18262C304.891 8.82129 304.705 8.35742 304.705 7.79102C304.705 7.22461 304.886 6.75586 305.247 6.38477C305.608 6.00391 306.116 5.81348 306.771 5.81348Z" fill="#FB929E"/>
</g>
<defs>
<filter id="filter0_i" x="0.398438" y="0.671875" width="308.452" height="30.0449" filterUnits="userSpaceOnUse" color-interpolation-filters="sRGB">
<feFlood flood-opacity="0" result="BackgroundImageFix"/>
<feBlend mode="normal" in="SourceGraphic" in2="BackgroundImageFix" result="shape"/>
<feColorMatrix in="SourceAlpha" type="matrix" values="0 0 0 0 0 0 0 0 0 0 0 0 0 0 0 0 0 0 127 0" result="hardAlpha"/>
<feOffset dy="4"/>
<feGaussianBlur stdDeviation="2"/>
<feComposite in2="hardAlpha" operator="arithmetic" k2="-1" k3="1"/>
<feColorMatrix type="matrix" values="0 0 0 0 0 0 0 0 0 0 0 0 0 0 0 0 0 0 0.25 0"/>
<feBlend mode="normal" in2="shape" result="effect1_innerShadow"/>
</filter>
</defs>
</svg>
