<svg width="481" height="30" viewBox="0 0 481 30" fill="none" xmlns="http://www.w3.org/2000/svg">
<g filter="url(#filter0_i)">
<path d="M0.368164 23V1.67188H7.67773C10.0898 1.67188 11.9258 2.15527 13.1855 3.12207C14.4453 4.08887 15.0752 5.5293 15.0752 7.44336C15.0752 8.41992 14.8115 9.29883 14.2842 10.0801C13.7568 10.8613 12.9854 11.4668 11.9697 11.8965C13.1221 12.209 14.0107 12.7998 14.6357 13.6689C15.2705 14.5283 15.5879 15.5635 15.5879 16.7744C15.5879 18.7764 14.9434 20.3145 13.6543 21.3887C12.375 22.4629 10.5391 23 8.14648 23H0.368164ZM4.07422 13.376V20.041H8.19043C9.35254 20.041 10.2607 19.7529 10.915 19.1768C11.5693 18.6006 11.8965 17.7998 11.8965 16.7744C11.8965 14.5576 10.7637 13.4248 8.49805 13.376H4.07422ZM4.07422 10.6514H7.70703C8.85938 10.6514 9.75781 10.3926 10.4023 9.875C11.0566 9.34766 11.3838 8.60547 11.3838 7.64844C11.3838 6.59375 11.0811 5.83203 10.4756 5.36328C9.87988 4.89453 8.94727 4.66016 7.67773 4.66016H4.07422V10.6514ZM25.4609 20.4512C26.3496 20.4512 27.0869 20.1924 27.6729 19.6748C28.2588 19.1572 28.5713 18.5176 28.6104 17.7559H31.9648C31.9258 18.7422 31.6182 19.665 31.042 20.5244C30.4658 21.374 29.6846 22.0479 28.6982 22.5459C27.7119 23.0439 26.6475 23.293 25.5049 23.293C23.2881 23.293 21.5303 22.5752 20.2314 21.1396C18.9326 19.7041 18.2832 17.7217 18.2832 15.1924V14.8262C18.2832 12.4141 18.9277 10.4854 20.2168 9.04004C21.5059 7.58496 23.2637 6.85742 25.4902 6.85742C27.375 6.85742 28.9082 7.40918 30.0898 8.5127C31.2812 9.60645 31.9062 11.0469 31.9648 12.834H28.6104C28.5713 11.9258 28.2588 11.1787 27.6729 10.5928C27.0967 10.0068 26.3594 9.71387 25.4609 9.71387C24.3086 9.71387 23.4199 10.1338 22.7949 10.9736C22.1699 11.8037 21.8525 13.0684 21.8428 14.7676V15.3389C21.8428 17.0576 22.1504 18.3418 22.7656 19.1914C23.3906 20.0312 24.2891 20.4512 25.4609 20.4512ZM47.126 9.97754H41.9844V23H38.4248V9.97754H33.3418V7.15039H47.126V9.97754ZM58.7422 23C58.5859 22.6973 58.4492 22.2041 58.332 21.5205C57.1992 22.7021 55.8125 23.293 54.1719 23.293C52.5801 23.293 51.2812 22.8389 50.2754 21.9307C49.2695 21.0225 48.7666 19.8994 48.7666 18.5615C48.7666 16.8721 49.3916 15.5781 50.6416 14.6797C51.9014 13.7715 53.6982 13.3174 56.0322 13.3174H58.2148V12.2773C58.2148 11.457 57.9854 10.8027 57.5264 10.3145C57.0674 9.81641 56.3691 9.56738 55.4316 9.56738C54.6211 9.56738 53.957 9.77246 53.4395 10.1826C52.9219 10.583 52.6631 11.0957 52.6631 11.7207H49.1035C49.1035 10.8516 49.3916 10.041 49.9678 9.28906C50.5439 8.52734 51.3252 7.93164 52.3115 7.50195C53.3076 7.07227 54.416 6.85742 55.6367 6.85742C57.4922 6.85742 58.9717 7.32617 60.0752 8.26367C61.1787 9.19141 61.7451 10.5 61.7744 12.1895V19.3379C61.7744 20.7637 61.9746 21.9014 62.375 22.751V23H58.7422ZM54.8311 20.4365C55.5342 20.4365 56.1934 20.2656 56.8086 19.9238C57.4336 19.582 57.9023 19.123 58.2148 18.5469V15.5586H56.2959C54.9775 15.5586 53.9863 15.7881 53.3223 16.2471C52.6582 16.7061 52.3262 17.3555 52.3262 18.1953C52.3262 18.8789 52.5508 19.4258 53 19.8359C53.459 20.2363 54.0693 20.4365 54.8311 20.4365ZM65.7734 23V7.15039H72.2041C74.3721 7.15039 76.0225 7.53125 77.1553 8.29297C78.2881 9.04492 78.8545 10.1289 78.8545 11.5449C78.8545 12.2773 78.625 12.9365 78.166 13.5225C77.7168 14.0986 77.0479 14.543 76.1592 14.8555C77.1943 15.0703 78.0146 15.5049 78.6201 16.1592C79.2256 16.8135 79.5283 17.585 79.5283 18.4736C79.5283 19.9482 78.9814 21.0713 77.8877 21.8428C76.8037 22.6143 75.2412 23 73.2002 23H65.7734ZM69.333 16.2471V20.1875H73.2295C75.0557 20.1875 75.9688 19.5332 75.9688 18.2246C75.9688 16.9062 75.041 16.2471 73.1855 16.2471H69.333ZM69.333 13.6982H72.2627C74.2842 13.6982 75.2949 13.1025 75.2949 11.9111C75.2949 10.6611 74.3379 10.0166 72.4238 9.97754H69.333V13.6982ZM86.2666 12.1895H89.7529C91.0518 12.1895 92.1846 12.4141 93.1514 12.8633C94.1182 13.3125 94.8506 13.9424 95.3486 14.7529C95.8564 15.5635 96.1104 16.5059 96.1104 17.5801C96.1104 19.2109 95.5342 20.5195 94.3818 21.5059C93.2295 22.4922 91.6963 22.9902 89.7822 23H82.707V7.15039H86.2666V12.1895ZM86.2666 15.0459V20.1582H89.7383C90.6074 20.1582 91.291 19.9434 91.7891 19.5137C92.2969 19.0742 92.5508 18.4541 92.5508 17.6533C92.5508 16.8525 92.3018 16.2227 91.8037 15.7637C91.3154 15.2949 90.6514 15.0557 89.8115 15.0459H86.2666ZM109.235 9.97754H104.094V23H100.534V9.97754H95.4512V7.15039H109.235V9.97754ZM117.658 23.293C115.402 23.293 113.571 22.585 112.165 21.1689C110.769 19.7432 110.07 17.8486 110.07 15.4854V15.0459C110.07 13.4639 110.373 12.0527 110.979 10.8125C111.594 9.5625 112.453 8.59082 113.557 7.89746C114.66 7.2041 115.891 6.85742 117.248 6.85742C119.406 6.85742 121.071 7.5459 122.243 8.92285C123.425 10.2998 124.016 12.248 124.016 14.7676V16.2031H113.659C113.767 17.5117 114.201 18.5469 114.963 19.3086C115.734 20.0703 116.701 20.4512 117.863 20.4512C119.494 20.4512 120.822 19.792 121.848 18.4736L123.767 20.3047C123.132 21.252 122.282 21.9893 121.218 22.5166C120.163 23.0342 118.977 23.293 117.658 23.293ZM117.233 9.71387C116.257 9.71387 115.466 10.0557 114.86 10.7393C114.265 11.4229 113.884 12.375 113.718 13.5957H120.5V13.332C120.422 12.1406 120.104 11.2422 119.548 10.6367C118.991 10.0215 118.22 9.71387 117.233 9.71387ZM140.773 20.4512C141.662 20.4512 142.399 20.1924 142.985 19.6748C143.571 19.1572 143.884 18.5176 143.923 17.7559H147.277C147.238 18.7422 146.931 19.665 146.354 20.5244C145.778 21.374 144.997 22.0479 144.011 22.5459C143.024 23.0439 141.96 23.293 140.817 23.293C138.601 23.293 136.843 22.5752 135.544 21.1396C134.245 19.7041 133.596 17.7217 133.596 15.1924V14.8262C133.596 12.4141 134.24 10.4854 135.529 9.04004C136.818 7.58496 138.576 6.85742 140.803 6.85742C142.688 6.85742 144.221 7.40918 145.402 8.5127C146.594 9.60645 147.219 11.0469 147.277 12.834H143.923C143.884 11.9258 143.571 11.1787 142.985 10.5928C142.409 10.0068 141.672 9.71387 140.773 9.71387C139.621 9.71387 138.732 10.1338 138.107 10.9736C137.482 11.8037 137.165 13.0684 137.155 14.7676V15.3389C137.155 17.0576 137.463 18.3418 138.078 19.1914C138.703 20.0312 139.602 20.4512 140.773 20.4512ZM156.477 20.4512C157.365 20.4512 158.103 20.1924 158.688 19.6748C159.274 19.1572 159.587 18.5176 159.626 17.7559H162.98C162.941 18.7422 162.634 19.665 162.058 20.5244C161.481 21.374 160.7 22.0479 159.714 22.5459C158.728 23.0439 157.663 23.293 156.521 23.293C154.304 23.293 152.546 22.5752 151.247 21.1396C149.948 19.7041 149.299 17.7217 149.299 15.1924V14.8262C149.299 12.4141 149.943 10.4854 151.232 9.04004C152.521 7.58496 154.279 6.85742 156.506 6.85742C158.391 6.85742 159.924 7.40918 161.105 8.5127C162.297 9.60645 162.922 11.0469 162.98 12.834H159.626C159.587 11.9258 159.274 11.1787 158.688 10.5928C158.112 10.0068 157.375 9.71387 156.477 9.71387C155.324 9.71387 154.436 10.1338 153.811 10.9736C153.186 11.8037 152.868 13.0684 152.858 14.7676V15.3389C152.858 17.0576 153.166 18.3418 153.781 19.1914C154.406 20.0312 155.305 20.4512 156.477 20.4512ZM169.499 12.1895H172.985C174.284 12.1895 175.417 12.4141 176.384 12.8633C177.351 13.3125 178.083 13.9424 178.581 14.7529C179.089 15.5635 179.343 16.5059 179.343 17.5801C179.343 19.2109 178.767 20.5195 177.614 21.5059C176.462 22.4922 174.929 22.9902 173.015 23H165.939V7.15039H169.499V12.1895ZM185.539 23H181.979V7.15039H185.539V23ZM169.499 15.0459V20.1582H172.971C173.84 20.1582 174.523 19.9434 175.021 19.5137C175.529 19.0742 175.783 18.4541 175.783 17.6533C175.783 16.8525 175.534 16.2227 175.036 15.7637C174.548 15.2949 173.884 15.0557 173.044 15.0459H169.499ZM203.278 7.15039V23H199.719V10.0215H195.236L194.943 15.5439C194.758 18.2002 194.245 20.1094 193.405 21.2715C192.575 22.4238 191.301 23 189.582 23H188.483L188.469 20.041L189.201 19.9678C189.982 19.8604 190.549 19.3867 190.9 18.5469C191.262 17.6973 191.491 16.1543 191.589 13.918L191.882 7.15039H203.278ZM212.697 16.7305H210.896V23H207.336V7.15039H210.896V13.4785H212.463L216.843 7.15039H221.237L215.51 14.7383L221.721 23H217.092L212.697 16.7305ZM229.221 17.9023L232.443 7.15039H236.237L229.938 25.4023C228.972 28.0684 227.331 29.4014 225.017 29.4014C224.499 29.4014 223.928 29.3135 223.303 29.1377V26.3838L223.977 26.4277C224.875 26.4277 225.549 26.2617 225.998 25.9297C226.457 25.6074 226.818 25.0605 227.082 24.2891L227.595 22.9268L222.028 7.15039H225.866L229.221 17.9023ZM259.191 23H255.632V16.5986H249.465V23H245.905V7.15039H249.465V13.7568H255.632V7.15039H259.191V23ZM272.463 23C272.307 22.6973 272.17 22.2041 272.053 21.5205C270.92 22.7021 269.533 23.293 267.893 23.293C266.301 23.293 265.002 22.8389 263.996 21.9307C262.99 21.0225 262.487 19.8994 262.487 18.5615C262.487 16.8721 263.112 15.5781 264.362 14.6797C265.622 13.7715 267.419 13.3174 269.753 13.3174H271.936V12.2773C271.936 11.457 271.706 10.8027 271.247 10.3145C270.788 9.81641 270.09 9.56738 269.152 9.56738C268.342 9.56738 267.678 9.77246 267.16 10.1826C266.643 10.583 266.384 11.0957 266.384 11.7207H262.824C262.824 10.8516 263.112 10.041 263.688 9.28906C264.265 8.52734 265.046 7.93164 266.032 7.50195C267.028 7.07227 268.137 6.85742 269.357 6.85742C271.213 6.85742 272.692 7.32617 273.796 8.26367C274.899 9.19141 275.466 10.5 275.495 12.1895V19.3379C275.495 20.7637 275.695 21.9014 276.096 22.751V23H272.463ZM268.552 20.4365C269.255 20.4365 269.914 20.2656 270.529 19.9238C271.154 19.582 271.623 19.123 271.936 18.5469V15.5586H270.017C268.698 15.5586 267.707 15.7881 267.043 16.2471C266.379 16.7061 266.047 17.3555 266.047 18.1953C266.047 18.8789 266.271 19.4258 266.721 19.8359C267.18 20.2363 267.79 20.4365 268.552 20.4365ZM296.589 7.15039H300.134V23H296.589V12.4238L290.378 23H286.833V7.15039H290.378V17.7266L296.589 7.15039ZM315.925 11.4863C315.925 12.1895 315.71 12.8389 315.28 13.4346C314.86 14.0205 314.265 14.4893 313.493 14.8408C315.31 15.4756 316.218 16.7012 316.218 18.5176C316.218 19.9727 315.627 21.1348 314.445 22.0039C313.264 22.8633 311.682 23.293 309.699 23.293C308.488 23.293 307.385 23.0928 306.389 22.6924C305.393 22.2822 304.616 21.7061 304.06 20.9639C303.503 20.2119 303.225 19.3232 303.225 18.2979H306.77C306.77 18.9424 307.058 19.4844 307.634 19.9238C308.21 20.3535 308.938 20.5684 309.816 20.5684C310.686 20.5684 311.374 20.3682 311.882 19.9678C312.399 19.5576 312.658 19.0254 312.658 18.3711C312.658 17.5996 312.434 17.043 311.984 16.7012C311.535 16.3594 310.842 16.1885 309.904 16.1885H307.355V13.625H309.992C311.584 13.6055 312.38 12.9512 312.38 11.6621C312.38 11.0176 312.15 10.5146 311.691 10.1533C311.232 9.79199 310.603 9.61133 309.802 9.61133C309.021 9.61133 308.361 9.80664 307.824 10.1973C307.287 10.5781 307.019 11.0615 307.019 11.6475H303.474C303.474 10.251 304.06 9.1084 305.231 8.21973C306.403 7.32129 307.893 6.87207 309.699 6.87207C311.662 6.87207 313.19 7.27246 314.284 8.07324C315.378 8.87402 315.925 10.0117 315.925 11.4863ZM318.576 14.9287C318.576 13.376 318.884 11.9795 319.499 10.7393C320.114 9.48926 320.979 8.53223 322.092 7.86816C323.205 7.19434 324.484 6.85742 325.93 6.85742C328.068 6.85742 329.802 7.5459 331.13 8.92285C332.468 10.2998 333.19 12.126 333.298 14.4014L333.312 15.2363C333.312 16.7988 333.01 18.1953 332.404 19.4258C331.809 20.6562 330.949 21.6084 329.826 22.2822C328.713 22.9561 327.424 23.293 325.959 23.293C323.723 23.293 321.931 22.5508 320.583 21.0664C319.245 19.5723 318.576 17.585 318.576 15.1045V14.9287ZM322.136 15.2363C322.136 16.8672 322.473 18.1465 323.146 19.0742C323.82 19.9922 324.758 20.4512 325.959 20.4512C327.16 20.4512 328.093 19.9824 328.757 19.0449C329.431 18.1074 329.768 16.7354 329.768 14.9287C329.768 13.3271 329.421 12.0576 328.728 11.1201C328.044 10.1826 327.111 9.71387 325.93 9.71387C324.768 9.71387 323.845 10.1777 323.161 11.1055C322.478 12.0234 322.136 13.4004 322.136 15.2363ZM343.786 8.0293C345.778 8.0293 347.375 8.69824 348.576 10.0361C349.777 11.3643 350.378 13.1709 350.378 15.4561V15.6318C350.378 17.917 349.724 19.7676 348.415 21.1836C347.116 22.5996 345.349 23.3076 343.112 23.3076C340.935 23.3076 339.177 22.585 337.839 21.1396C336.501 19.6943 335.832 17.7217 335.832 15.2217V14.1963C335.832 10.7783 336.438 8.07324 337.648 6.08105C338.859 4.08887 340.666 2.84375 343.068 2.3457C344.416 2.07227 345.285 1.78418 345.676 1.48145C346.076 1.16895 346.276 0.749023 346.276 0.22168H349.147C349.147 1.20801 348.986 2.00879 348.664 2.62402C348.342 3.23926 347.849 3.74219 347.185 4.13281C346.521 4.51367 345.378 4.875 343.757 5.2168C342.272 5.5293 341.14 6.08594 340.358 6.88672C339.587 7.6875 339.069 8.7959 338.806 10.2119C340.222 8.75684 341.882 8.0293 343.786 8.0293ZM343.083 10.8857C341.931 10.8857 341.027 11.2764 340.373 12.0576C339.719 12.8291 339.392 14.0205 339.392 15.6318C339.392 17.1553 339.714 18.3418 340.358 19.1914C341.003 20.041 341.921 20.4658 343.112 20.4658C344.294 20.4658 345.207 20.041 345.852 19.1914C346.506 18.332 346.833 17.043 346.833 15.3242C346.833 13.957 346.506 12.8779 345.852 12.0869C345.207 11.2861 344.284 10.8857 343.083 10.8857ZM366.784 15.2363C366.784 17.6875 366.228 19.6455 365.114 21.1104C364.001 22.5654 362.507 23.293 360.632 23.293C358.894 23.293 357.502 22.7217 356.457 21.5791V29.0938H352.897V7.15039H356.179L356.325 8.76172C357.37 7.49219 358.791 6.85742 360.588 6.85742C362.521 6.85742 364.035 7.58008 365.129 9.02539C366.232 10.4609 366.784 12.458 366.784 15.0166V15.2363ZM363.239 14.9287C363.239 13.3467 362.922 12.0918 362.287 11.1641C361.662 10.2363 360.764 9.77246 359.592 9.77246C358.137 9.77246 357.092 10.373 356.457 11.5742V18.6055C357.102 19.8359 358.156 20.4512 359.621 20.4512C360.754 20.4512 361.638 19.9971 362.272 19.0889C362.917 18.1709 363.239 16.7842 363.239 14.9287ZM379.279 23C379.123 22.6973 378.986 22.2041 378.869 21.5205C377.736 22.7021 376.35 23.293 374.709 23.293C373.117 23.293 371.818 22.8389 370.812 21.9307C369.807 21.0225 369.304 19.8994 369.304 18.5615C369.304 16.8721 369.929 15.5781 371.179 14.6797C372.438 13.7715 374.235 13.3174 376.569 13.3174H378.752V12.2773C378.752 11.457 378.522 10.8027 378.063 10.3145C377.604 9.81641 376.906 9.56738 375.969 9.56738C375.158 9.56738 374.494 9.77246 373.977 10.1826C373.459 10.583 373.2 11.0957 373.2 11.7207H369.641C369.641 10.8516 369.929 10.041 370.505 9.28906C371.081 8.52734 371.862 7.93164 372.849 7.50195C373.845 7.07227 374.953 6.85742 376.174 6.85742C378.029 6.85742 379.509 7.32617 380.612 8.26367C381.716 9.19141 382.282 10.5 382.312 12.1895V19.3379C382.312 20.7637 382.512 21.9014 382.912 22.751V23H379.279ZM375.368 20.4365C376.071 20.4365 376.73 20.2656 377.346 19.9238C377.971 19.582 378.439 19.123 378.752 18.5469V15.5586H376.833C375.515 15.5586 374.523 15.7881 373.859 16.2471C373.195 16.7061 372.863 17.3555 372.863 18.1953C372.863 18.8789 373.088 19.4258 373.537 19.8359C373.996 20.2363 374.606 20.4365 375.368 20.4365ZM399.992 16.6279H398.103V23H394.543V16.6279H392.668L389.021 23H384.655L389.914 14.7529L384.934 7.15039H389.284L392.873 13.376H394.543V7.15039H398.103V13.376H399.787L403.391 7.15039H407.741L402.775 14.709L408.063 23H403.64L399.992 16.6279ZM416.955 23.293C414.699 23.293 412.868 22.585 411.462 21.1689C410.065 19.7432 409.367 17.8486 409.367 15.4854V15.0459C409.367 13.4639 409.67 12.0527 410.275 10.8125C410.891 9.5625 411.75 8.59082 412.854 7.89746C413.957 7.2041 415.188 6.85742 416.545 6.85742C418.703 6.85742 420.368 7.5459 421.54 8.92285C422.722 10.2998 423.312 12.248 423.312 14.7676V16.2031H412.956C413.063 17.5117 413.498 18.5469 414.26 19.3086C415.031 20.0703 415.998 20.4512 417.16 20.4512C418.791 20.4512 420.119 19.792 421.145 18.4736L423.063 20.3047C422.429 21.252 421.579 21.9893 420.515 22.5166C419.46 23.0342 418.273 23.293 416.955 23.293ZM416.53 9.71387C415.554 9.71387 414.763 10.0557 414.157 10.7393C413.562 11.4229 413.181 12.375 413.015 13.5957H419.797V13.332C419.719 12.1406 419.401 11.2422 418.845 10.6367C418.288 10.0215 417.517 9.71387 416.53 9.71387ZM439.514 23H435.954V16.5986H429.787V23H426.228V7.15039H429.787V13.7568H435.954V7.15039H439.514V23ZM453.21 7.15039H456.755V23H453.21V12.4238L446.999 23H443.454V7.15039H446.999V17.7266L453.21 7.15039ZM467.521 23.293C465.266 23.293 463.435 22.585 462.028 21.1689C460.632 19.7432 459.934 17.8486 459.934 15.4854V15.0459C459.934 13.4639 460.236 12.0527 460.842 10.8125C461.457 9.5625 462.316 8.59082 463.42 7.89746C464.523 7.2041 465.754 6.85742 467.111 6.85742C469.27 6.85742 470.935 7.5459 472.106 8.92285C473.288 10.2998 473.879 12.248 473.879 14.7676V16.2031H463.522C463.63 17.5117 464.064 18.5469 464.826 19.3086C465.598 20.0703 466.564 20.4512 467.727 20.4512C469.357 20.4512 470.686 19.792 471.711 18.4736L473.63 20.3047C472.995 21.252 472.146 21.9893 471.081 22.5166C470.026 23.0342 468.84 23.293 467.521 23.293ZM467.097 9.71387C466.12 9.71387 465.329 10.0557 464.724 10.7393C464.128 11.4229 463.747 12.375 463.581 13.5957H470.363V13.332C470.285 12.1406 469.968 11.2422 469.411 10.6367C468.854 10.0215 468.083 9.71387 467.097 9.71387ZM478.801 19.25C479.465 19.25 479.978 19.4404 480.339 19.8213C480.7 20.1924 480.881 20.6611 480.881 21.2275C480.881 21.7842 480.7 22.248 480.339 22.6191C479.978 22.9805 479.465 23.1611 478.801 23.1611C478.166 23.1611 477.663 22.9805 477.292 22.6191C476.921 22.2578 476.735 21.7939 476.735 21.2275C476.735 20.6611 476.916 20.1924 477.277 19.8213C477.639 19.4404 478.146 19.25 478.801 19.25ZM478.801 6.81348C479.465 6.81348 479.978 7.00391 480.339 7.38477C480.7 7.75586 480.881 8.22461 480.881 8.79102C480.881 9.34766 480.7 9.81152 480.339 10.1826C479.978 10.5439 479.465 10.7246 478.801 10.7246C478.166 10.7246 477.663 10.5439 477.292 10.1826C476.921 9.82129 476.735 9.35742 476.735 8.79102C476.735 8.22461 476.916 7.75586 477.277 7.38477C477.639 7.00391 478.146 6.81348 478.801 6.81348Z" fill="#FB929E"/>
</g>
<defs>
<filter id="filter0_i" x="0.368164" y="0.22168" width="480.513" height="33.1797" filterUnits="userSpaceOnUse" color-interpolation-filters="sRGB">
<feFlood flood-opacity="0" result="BackgroundImageFix"/>
<feBlend mode="normal" in="SourceGraphic" in2="BackgroundImageFix" result="shape"/>
<feColorMatrix in="SourceAlpha" type="matrix" values="0 0 0 0 0 0 0 0 0 0 0 0 0 0 0 0 0 0 127 0" result="hardAlpha"/>
<feOffset dy="4"/>
<feGaussianBlur stdDeviation="2"/>
<feComposite in2="hardAlpha" operator="arithmetic" k2="-1" k3="1"/>
<feColorMatrix type="matrix" values="0 0 0 0 0 0 0 0 0 0 0 0 0 0 0 0 0 0 0.25 0"/>
<feBlend mode="normal" in2="shape" result="effect1_innerShadow"/>
</filter>
</defs>
</svg>
