<svg width="190" height="27" viewBox="0 0 190 27" fill="none" xmlns="http://www.w3.org/2000/svg">
<g filter="url(#filter0_i)">
<path d="M0.3125 22V0.671875H7.62207C10.0342 0.671875 11.8701 1.15527 13.1299 2.12207C14.3896 3.08887 15.0195 4.5293 15.0195 6.44336C15.0195 7.41992 14.7559 8.29883 14.2285 9.08008C13.7012 9.86133 12.9297 10.4668 11.9141 10.8965C13.0664 11.209 13.9551 11.7998 14.5801 12.6689C15.2148 13.5283 15.5322 14.5635 15.5322 15.7744C15.5322 17.7764 14.8877 19.3145 13.5986 20.3887C12.3193 21.4629 10.4834 22 8.09082 22H0.3125ZM4.01855 12.376V19.041H8.13477C9.29688 19.041 10.2051 18.7529 10.8594 18.1768C11.5137 17.6006 11.8408 16.7998 11.8408 15.7744C11.8408 13.5576 10.708 12.4248 8.44238 12.376H4.01855ZM4.01855 9.65137H7.65137C8.80371 9.65137 9.70215 9.39258 10.3467 8.875C11.001 8.34766 11.3281 7.60547 11.3281 6.64844C11.3281 5.59375 11.0254 4.83203 10.4199 4.36328C9.82422 3.89453 8.8916 3.66016 7.62207 3.66016H4.01855V9.65137ZM19.165 22V6.15039H25.5957C27.7637 6.15039 29.4141 6.53125 30.5469 7.29297C31.6797 8.04492 32.2461 9.12891 32.2461 10.5449C32.2461 11.2773 32.0166 11.9365 31.5576 12.5225C31.1084 13.0986 30.4395 13.543 29.5508 13.8555C30.5859 14.0703 31.4062 14.5049 32.0117 15.1592C32.6172 15.8135 32.9199 16.585 32.9199 17.4736C32.9199 18.9482 32.373 20.0713 31.2793 20.8428C30.1953 21.6143 28.6328 22 26.5918 22H19.165ZM22.7246 15.2471V19.1875H26.6211C28.4473 19.1875 29.3604 18.5332 29.3604 17.2246C29.3604 15.9062 28.4326 15.2471 26.5771 15.2471H22.7246ZM22.7246 12.6982H25.6543C27.6758 12.6982 28.6865 12.1025 28.6865 10.9111C28.6865 9.66113 27.7295 9.0166 25.8154 8.97754H22.7246V12.6982ZM42.9834 22.293C40.7275 22.293 38.8965 21.585 37.4902 20.1689C36.0938 18.7432 35.3955 16.8486 35.3955 14.4854V14.0459C35.3955 12.4639 35.6982 11.0527 36.3037 9.8125C36.9189 8.5625 37.7783 7.59082 38.8818 6.89746C39.9854 6.2041 41.2158 5.85742 42.5732 5.85742C44.7314 5.85742 46.3965 6.5459 47.5684 7.92285C48.75 9.2998 49.3408 11.248 49.3408 13.7676V15.2031H38.9844C39.0918 16.5117 39.5264 17.5469 40.2881 18.3086C41.0596 19.0703 42.0264 19.4512 43.1885 19.4512C44.8193 19.4512 46.1475 18.792 47.1729 17.4736L49.0918 19.3047C48.457 20.252 47.6074 20.9893 46.543 21.5166C45.4883 22.0342 44.3018 22.293 42.9834 22.293ZM42.5586 8.71387C41.582 8.71387 40.791 9.05566 40.1855 9.73926C39.5898 10.4229 39.209 11.375 39.043 12.5957H45.8252V12.332C45.7471 11.1406 45.4297 10.2422 44.873 9.63672C44.3164 9.02148 43.5449 8.71387 42.5586 8.71387ZM52.1826 19.1582C53.1689 18.0547 53.8281 17.0098 54.1602 16.0234C54.502 15.0273 54.707 13.7578 54.7754 12.2148L54.9805 6.15039H65.9814V19.1582H68.1787V26.7168H64.6338V22H54.4678V26.7168H50.8643L50.8789 19.1582H52.1826ZM56.3574 19.1582H62.4365V9.21191H58.4375L58.335 12.2441C58.1982 15.1543 57.5391 17.459 56.3574 19.1582ZM80.3516 6.15039H83.8965V22H80.3516V11.4238L74.1406 22H70.5957V6.15039H74.1406V16.7266L80.3516 6.15039ZM100.156 8.97754H95.0146V22H91.4551V8.97754H86.3721V6.15039H100.156V8.97754ZM108.579 22.293C106.323 22.293 104.492 21.585 103.086 20.1689C101.689 18.7432 100.991 16.8486 100.991 14.4854V14.0459C100.991 12.4639 101.294 11.0527 101.899 9.8125C102.515 8.5625 103.374 7.59082 104.478 6.89746C105.581 6.2041 106.812 5.85742 108.169 5.85742C110.327 5.85742 111.992 6.5459 113.164 7.92285C114.346 9.2998 114.937 11.248 114.937 13.7676V15.2031H104.58C104.688 16.5117 105.122 17.5469 105.884 18.3086C106.655 19.0703 107.622 19.4512 108.784 19.4512C110.415 19.4512 111.743 18.792 112.769 17.4736L114.688 19.3047C114.053 20.252 113.203 20.9893 112.139 21.5166C111.084 22.0342 109.897 22.293 108.579 22.293ZM108.154 8.71387C107.178 8.71387 106.387 9.05566 105.781 9.73926C105.186 10.4229 104.805 11.375 104.639 12.5957H111.421V12.332C111.343 11.1406 111.025 10.2422 110.469 9.63672C109.912 9.02148 109.141 8.71387 108.154 8.71387ZM137.656 8.97754H132.515V22H128.955V8.97754H123.872V6.15039H137.656V8.97754ZM145.728 8.71387C144.897 8.71387 144.194 8.97266 143.618 9.49023C143.042 9.99805 142.754 10.6377 142.754 11.4092H139.399C139.399 10.4326 139.683 9.51953 140.249 8.66992C140.815 7.81055 141.592 7.12695 142.578 6.61914C143.564 6.11133 144.614 5.85742 145.728 5.85742C147.876 5.85742 149.6 6.59473 150.898 8.06934C152.207 9.54395 152.861 11.5117 152.861 13.9727V14.3389C152.861 15.8525 152.563 17.2246 151.968 18.4551C151.382 19.6855 150.552 20.6328 149.478 21.2969C148.403 21.9609 147.158 22.293 145.742 22.293C144.541 22.293 143.452 22.0439 142.476 21.5459C141.499 21.0381 140.742 20.3301 140.205 19.4219C139.668 18.5137 139.399 17.4883 139.399 16.3457H142.754C142.754 17.2539 143.042 18.001 143.618 18.5869C144.194 19.1631 144.902 19.4512 145.742 19.4512C146.738 19.4512 147.544 19.0801 148.159 18.3379C148.774 17.5859 149.141 16.541 149.258 15.2031H144.277V12.7422H149.243C149.106 11.4531 148.73 10.4619 148.115 9.76855C147.5 9.06543 146.704 8.71387 145.728 8.71387ZM166.47 9.02148H159.585V22H156.04V6.15039H166.47V9.02148ZM178.379 6.15039H181.924V22H178.379V11.4238L172.168 22H168.623V6.15039H172.168V16.7266L178.379 6.15039ZM187.856 18.25C188.521 18.25 189.033 18.4404 189.395 18.8213C189.756 19.1924 189.937 19.6611 189.937 20.2275C189.937 20.7842 189.756 21.248 189.395 21.6191C189.033 21.9805 188.521 22.1611 187.856 22.1611C187.222 22.1611 186.719 21.9805 186.348 21.6191C185.977 21.2578 185.791 20.7939 185.791 20.2275C185.791 19.6611 185.972 19.1924 186.333 18.8213C186.694 18.4404 187.202 18.25 187.856 18.25ZM187.856 5.81348C188.521 5.81348 189.033 6.00391 189.395 6.38477C189.756 6.75586 189.937 7.22461 189.937 7.79102C189.937 8.34766 189.756 8.81152 189.395 9.18262C189.033 9.54395 188.521 9.72461 187.856 9.72461C187.222 9.72461 186.719 9.54395 186.348 9.18262C185.977 8.82129 185.791 8.35742 185.791 7.79102C185.791 7.22461 185.972 6.75586 186.333 6.38477C186.694 6.00391 187.202 5.81348 187.856 5.81348Z" fill="#FB929E"/>
</g>
<defs>
<filter id="filter0_i" x="0.3125" y="0.671875" width="189.624" height="30.0449" filterUnits="userSpaceOnUse" color-interpolation-filters="sRGB">
<feFlood flood-opacity="0" result="BackgroundImageFix"/>
<feBlend mode="normal" in="SourceGraphic" in2="BackgroundImageFix" result="shape"/>
<feColorMatrix in="SourceAlpha" type="matrix" values="0 0 0 0 0 0 0 0 0 0 0 0 0 0 0 0 0 0 127 0" result="hardAlpha"/>
<feOffset dy="4"/>
<feGaussianBlur stdDeviation="2"/>
<feComposite in2="hardAlpha" operator="arithmetic" k2="-1" k3="1"/>
<feColorMatrix type="matrix" values="0 0 0 0 0 0 0 0 0 0 0 0 0 0 0 0 0 0 0.25 0"/>
<feBlend mode="normal" in2="shape" result="effect1_innerShadow"/>
</filter>
</defs>
</svg>
