<svg width="295" height="45" viewBox="0 0 295 45" fill="none" xmlns="http://www.w3.org/2000/svg">
<g filter="url(#filter0_i)">
<path d="M22.7188 27.0547H9.5L6.73438 35H0.570312L13.4609 0.875H18.7812L31.6953 35H25.5078L22.7188 27.0547ZM11.1641 22.2734H21.0547L16.1094 8.11719L11.1641 22.2734ZM35.4688 35V9.64062H45.7578C49.2266 9.64062 51.8672 10.25 53.6797 11.4688C55.4922 12.6719 56.3984 14.4062 56.3984 16.6719C56.3984 17.8438 56.0312 18.8984 55.2969 19.8359C54.5781 20.7578 53.5078 21.4688 52.0859 21.9688C53.7422 22.3125 55.0547 23.0078 56.0234 24.0547C56.9922 25.1016 57.4766 26.3359 57.4766 27.7578C57.4766 30.1172 56.6016 31.9141 54.8516 33.1484C53.1172 34.3828 50.6172 35 47.3516 35H35.4688ZM41.1641 24.1953V30.5H47.3984C50.3203 30.5 51.7812 29.4531 51.7812 27.3594C51.7812 25.25 50.2969 24.1953 47.3281 24.1953H41.1641ZM41.1641 20.1172H45.8516C49.0859 20.1172 50.7031 19.1641 50.7031 17.2578C50.7031 15.2578 49.1719 14.2266 46.1094 14.1641H41.1641V20.1172ZM82.0859 14.1641H73.8594V35H68.1641V14.1641H60.0312V9.64062H82.0859V14.1641ZM84.125 22.0859C84.125 19.6016 84.6172 17.3672 85.6016 15.3828C86.5859 13.3828 87.9688 11.8516 89.75 10.7891C91.5312 9.71094 93.5781 9.17188 95.8906 9.17188C99.3125 9.17188 102.086 10.2734 104.211 12.4766C106.352 14.6797 107.508 17.6016 107.68 21.2422L107.703 22.5781C107.703 25.0781 107.219 27.3125 106.25 29.2812C105.297 31.25 103.922 32.7734 102.125 33.8516C100.344 34.9297 98.2812 35.4688 95.9375 35.4688C92.3594 35.4688 89.4922 34.2812 87.3359 31.9062C85.1953 29.5156 84.125 26.3359 84.125 22.3672V22.0859ZM89.8203 22.5781C89.8203 25.1875 90.3594 27.2344 91.4375 28.7188C92.5156 30.1875 94.0156 30.9219 95.9375 30.9219C97.8594 30.9219 99.3516 30.1719 100.414 28.6719C101.492 27.1719 102.031 24.9766 102.031 22.0859C102.031 19.5234 101.477 17.4922 100.367 15.9922C99.2734 14.4922 97.7812 13.7422 95.8906 13.7422C94.0312 13.7422 92.5547 14.4844 91.4609 15.9688C90.3672 17.4375 89.8203 19.6406 89.8203 22.5781ZM134.727 22.5781C134.727 26.5 133.836 29.6328 132.055 31.9766C130.273 34.3047 127.883 35.4688 124.883 35.4688C122.102 35.4688 119.875 34.5547 118.203 32.7266V44.75H112.508V9.64062H117.758L117.992 12.2188C119.664 10.1875 121.938 9.17188 124.812 9.17188C127.906 9.17188 130.328 10.3281 132.078 12.6406C133.844 14.9375 134.727 18.1328 134.727 22.2266V22.5781ZM129.055 22.0859C129.055 19.5547 128.547 17.5469 127.531 16.0625C126.531 14.5781 125.094 13.8359 123.219 13.8359C120.891 13.8359 119.219 14.7969 118.203 16.7188V27.9688C119.234 29.9375 120.922 30.9219 123.266 30.9219C125.078 30.9219 126.492 30.1953 127.508 28.7422C128.539 27.2734 129.055 25.0547 129.055 22.0859ZM155.398 9.64062H161.07V35H155.398V18.0781L145.461 35H139.789V9.64062H145.461V26.5625L155.398 9.64062ZM186.336 16.5781C186.336 17.7031 185.992 18.7422 185.305 19.6953C184.633 20.6328 183.68 21.3828 182.445 21.9453C185.352 22.9609 186.805 24.9219 186.805 27.8281C186.805 30.1562 185.859 32.0156 183.969 33.4062C182.078 34.7812 179.547 35.4688 176.375 35.4688C174.438 35.4688 172.672 35.1484 171.078 34.5078C169.484 33.8516 168.242 32.9297 167.352 31.7422C166.461 30.5391 166.016 29.1172 166.016 27.4766H171.688C171.688 28.5078 172.148 29.375 173.07 30.0781C173.992 30.7656 175.156 31.1094 176.562 31.1094C177.953 31.1094 179.055 30.7891 179.867 30.1484C180.695 29.4922 181.109 28.6406 181.109 27.5938C181.109 26.3594 180.75 25.4688 180.031 24.9219C179.312 24.375 178.203 24.1016 176.703 24.1016H172.625V20H176.844C179.391 19.9688 180.664 18.9219 180.664 16.8594C180.664 15.8281 180.297 15.0234 179.562 14.4453C178.828 13.8672 177.82 13.5781 176.539 13.5781C175.289 13.5781 174.234 13.8906 173.375 14.5156C172.516 15.125 172.086 15.8984 172.086 16.8359H166.414C166.414 14.6016 167.352 12.7734 169.227 11.3516C171.102 9.91406 173.484 9.19531 176.375 9.19531C179.516 9.19531 181.961 9.83594 183.711 11.1172C185.461 12.3984 186.336 14.2188 186.336 16.5781ZM206.797 35C206.547 34.5156 206.328 33.7266 206.141 32.6328C204.328 34.5234 202.109 35.4688 199.484 35.4688C196.938 35.4688 194.859 34.7422 193.25 33.2891C191.641 31.8359 190.836 30.0391 190.836 27.8984C190.836 25.1953 191.836 23.125 193.836 21.6875C195.852 20.2344 198.727 19.5078 202.461 19.5078H205.953V17.8438C205.953 16.5312 205.586 15.4844 204.852 14.7031C204.117 13.9062 203 13.5078 201.5 13.5078C200.203 13.5078 199.141 13.8359 198.312 14.4922C197.484 15.1328 197.07 15.9531 197.07 16.9531H191.375C191.375 15.5625 191.836 14.2656 192.758 13.0625C193.68 11.8438 194.93 10.8906 196.508 10.2031C198.102 9.51562 199.875 9.17188 201.828 9.17188C204.797 9.17188 207.164 9.92188 208.93 11.4219C210.695 12.9062 211.602 15 211.648 17.7031V29.1406C211.648 31.4219 211.969 33.2422 212.609 34.6016V35H206.797ZM200.539 30.8984C201.664 30.8984 202.719 30.625 203.703 30.0781C204.703 29.5312 205.453 28.7969 205.953 27.875V23.0938H202.883C200.773 23.0938 199.188 23.4609 198.125 24.1953C197.062 24.9297 196.531 25.9688 196.531 27.3125C196.531 28.4062 196.891 29.2812 197.609 29.9375C198.344 30.5781 199.32 30.8984 200.539 30.8984ZM217.836 9.64062H223.531V30.4531H233.422V9.64062H239.117V30.4531H242.562L242.094 42.5234H236.914V35H217.836V9.64062ZM262.414 9.64062H268.086V35H262.414V18.0781L252.477 35H246.805V9.64062H252.477V26.5625L262.414 9.64062ZM294.453 9.64062V35H288.781V25.6953H283.461L278.047 35H272.141L278.117 24.7578C276.555 24.1016 275.352 23.1641 274.508 21.9453C273.68 20.7266 273.266 19.3281 273.266 17.75C273.266 15.3906 274.172 13.4609 275.984 11.9609C277.812 10.4453 280.273 9.67188 283.367 9.64062H294.453ZM278.961 17.8906C278.961 18.9531 279.352 19.8203 280.133 20.4922C280.93 21.1484 281.945 21.4766 283.18 21.4766H288.781V14.1641H283.531C282.141 14.1641 281.031 14.5156 280.203 15.2188C279.375 15.9219 278.961 16.8125 278.961 17.8906Z" fill="#FB929E"/>
</g>
<defs>
<filter id="filter0_i" x="0.570312" y="0.875" width="293.883" height="47.875" filterUnits="userSpaceOnUse" color-interpolation-filters="sRGB">
<feFlood flood-opacity="0" result="BackgroundImageFix"/>
<feBlend mode="normal" in="SourceGraphic" in2="BackgroundImageFix" result="shape"/>
<feColorMatrix in="SourceAlpha" type="matrix" values="0 0 0 0 0 0 0 0 0 0 0 0 0 0 0 0 0 0 127 0" result="hardAlpha"/>
<feOffset dy="4"/>
<feGaussianBlur stdDeviation="2"/>
<feComposite in2="hardAlpha" operator="arithmetic" k2="-1" k3="1"/>
<feColorMatrix type="matrix" values="0 0 0 0 0 0 0 0 0 0 0 0 0 0 0 0 0 0 0.25 0"/>
<feBlend mode="normal" in2="shape" result="effect1_innerShadow"/>
</filter>
</defs>
</svg>
