<svg width="1360" height="1088" viewBox="0 0 1360 1088" fill="none" xmlns="http://www.w3.org/2000/svg">
<path fill-rule="evenodd" clip-rule="evenodd" d="M579.225 685.266C607.306 728.604 652.482 763.694 659.082 814.811C666.498 872.247 658.239 938.108 617.693 983.205C577.071 1028.39 509.092 1041.18 447.996 1049.59C393.243 1057.12 342.648 1033.79 288.117 1028.54C227.397 1022.69 135.401 1068.04 108.338 1016.88C75.532 954.858 159.369 886.078 176.132 816.825C183.358 786.968 187.852 755.891 178.455 727.194C155.24 656.296 38.8382 593.726 81.9547 529.211C120.968 470.836 218.625 551.214 288.86 561.997C325.454 567.615 360.185 572.964 396.975 577.578C436.385 582.52 480.187 570.472 513.527 590.172C548.038 610.564 557.932 652.404 579.225 685.266Z" fill="#FB929E"/>
<path fill-rule="evenodd" clip-rule="evenodd" d="M1163.91 680.067C1223.44 660.329 1268.53 602.006 1287.02 542.496C1304.48 486.279 1256.34 430.445 1259.67 371.826C1262.76 317.361 1319.77 269.723 1305.47 217.2C1291.3 165.146 1235 136.578 1188.21 109.332C1144.19 83.6966 1093.42 78.9084 1044.24 65.0795C984.006 48.1435 836.882 25.0069 788.5 65.0795C732.901 111.129 850.765 157.48 846.401 228.941C844.259 264.009 862.716 301.158 846.459 332.488C815.128 392.866 715.303 416.211 714.108 483.881C713.131 539.269 794.234 557.349 841.99 585.611C886.45 611.923 933.597 628.608 983.311 643.195C1043.23 660.776 1104.35 699.815 1163.91 680.067Z" fill="#FB929E"/>
<path fill-rule="evenodd" clip-rule="evenodd" d="M961.088 376.272C1015.97 381.181 1030.26 470.29 1080.47 494.619C1139.52 523.232 1236.57 465.528 1269.28 525.615C1301.9 585.518 1205.32 647.586 1201.48 716.87C1197.99 779.71 1267.56 835.777 1248.79 895.405C1230.65 952.997 1163.87 973.24 1112.63 998.996C1064.63 1023.12 1013.7 1033.17 961.088 1040.01C902.404 1047.64 836.602 1075.57 786.778 1041.38C736.736 1007.04 721.277 933.632 713.805 870.325C707.534 817.2 739.697 769.583 748.475 716.87C755.442 675.032 746.844 632.194 760.126 592.161C775.106 547.013 798.115 506.07 829.657 472.185C867.76 431.252 907.402 371.47 961.088 376.272Z" fill="#FB929E"/>
<path fill-rule="evenodd" clip-rule="evenodd" d="M103 181C133.964 142.694 171.701 108.358 221.5 94.9999C258.688 85.0246 426 32.7376 426 94.9998C464.523 97.9417 473.57 78.2893 508.5 94.9999C550.931 115.299 549.455 201.8 584.817 232.816C624.93 267.997 647.084 319.133 660.006 370.652C675.82 433.704 705.512 509.634 667.331 561.804C628.676 614.621 546.643 609.804 481.003 615.237C430.688 619.401 384.233 584.1 334.035 589.39C268.608 596.284 212.971 670.574 150.214 650.092C91.6804 630.988 57.1158 558.457 52.2568 497.427C47.501 437.693 114.947 396.107 125.304 337.222C133.85 288.638 72.0355 219.306 103 181Z" fill="#FB929E"/>
<path fill-rule="evenodd" clip-rule="evenodd" d="M1119.08 534.098C1126.91 671.27 1092.3 820.374 1019.65 905.444C951.618 985.107 850.902 933.959 763.489 950.471C699.655 962.529 641.642 991.333 577.039 989.052C488.338 985.92 383.815 1025.66 319.265 934.786C254.893 844.164 273.083 691.062 274.045 562.5C274.951 441.588 275.086 313.448 324.631 218.143C372.937 125.219 454.813 86.6297 533.807 62.812C604.576 41.4741 674.36 70.831 746.016 91.0897C827.083 114.009 914.258 112.034 978.737 188.603C1051.87 275.442 1111.35 398.717 1119.08 534.098Z" fill="#FB929E"/>
<path fill-rule="evenodd" clip-rule="evenodd" d="M942.702 757.123C952.233 821.848 1014.11 880.097 992.743 941.933C971.057 1004.71 902.004 1041.47 838.155 1059.75C778.793 1076.74 720.26 1043.66 658.818 1037.53C585.435 1030.2 502.979 1064.21 443.673 1020.38C382.123 974.886 353.874 890.551 356.472 814.059C358.935 741.524 407.482 679.999 457.034 626.972C498.404 582.701 552.863 554.112 611.945 540.67C663.21 529.008 712.767 550.512 764.95 556.921C824.731 564.262 899.591 535.866 939.58 580.906C979.564 625.939 933.929 697.544 942.702 757.123Z" fill="#FB929E"/>
<path fill-rule="evenodd" clip-rule="evenodd" d="M264.695 330.527C239.717 261.018 282.163 168.492 351.071 112.755C418.087 58.5495 421.401 37.5054 587.476 37.5517C720.606 37.5888 834.256 13.7109 927.885 37.6466C1017.82 60.6382 1083.25 109.071 1137.15 161.154C1189.22 211.463 1224.37 267.74 1228.74 328.341C1233.28 391.149 1233.31 464.575 1162.14 507.304C1091.99 549.42 980.436 525.875 885.841 534.21C813.206 540.611 744.07 561.37 672.787 550.426C597.67 538.894 541.192 504.177 481.821 472.186C400.887 428.574 288.609 397.074 264.695 330.527Z" fill="#FB929E"/>
</svg>
