<svg width="138" height="33" viewBox="0 0 138 33" fill="none" xmlns="http://www.w3.org/2000/svg">
<g filter="url(#filter0_d)">
<rect x="4" width="130" height="25" rx="10" fill="#AEDEFC"/>
</g>
<g filter="url(#filter1_i)">
<path d="M26.6162 4.64844H29.4575V21H26.6162V9.354L19.4399 21H16.5986V4.64844H19.4399V16.3057L26.6162 4.64844ZM41.7998 12.1729C41.7998 12.7119 41.6351 13.2098 41.3057 13.6665C40.9837 14.1157 40.527 14.4751 39.9355 14.7446C41.3281 15.2313 42.0244 16.1709 42.0244 17.5635C42.0244 18.679 41.5715 19.57 40.6655 20.2363C39.7596 20.8952 38.5467 21.2246 37.0269 21.2246C36.0985 21.2246 35.2524 21.0711 34.4888 20.7642C33.7251 20.4497 33.1299 20.008 32.7031 19.439C32.2764 18.8625 32.063 18.1812 32.063 17.395H34.7808C34.7808 17.8892 35.0016 18.3047 35.4434 18.6416C35.8851 18.971 36.4429 19.1357 37.1167 19.1357C37.783 19.1357 38.3109 18.9823 38.7002 18.6753C39.097 18.3608 39.2954 17.9528 39.2954 17.4512C39.2954 16.8597 39.1232 16.4329 38.7788 16.1709C38.4344 15.9089 37.9028 15.7778 37.1841 15.7778H35.23V13.8125H37.2515C38.4718 13.7975 39.082 13.2959 39.082 12.3076C39.082 11.8135 38.9061 11.4279 38.5542 11.1509C38.2023 10.8739 37.7194 10.7354 37.1055 10.7354C36.5065 10.7354 36.0011 10.8851 35.5894 11.1846C35.1776 11.4766 34.9717 11.8472 34.9717 12.2964H32.2539C32.2539 11.2257 32.7031 10.3498 33.6016 9.66846C34.5 8.97965 35.6418 8.63525 37.0269 8.63525C38.5317 8.63525 39.7035 8.94222 40.542 9.55615C41.3805 10.1701 41.7998 11.0423 41.7998 12.1729ZM51.5591 17.6421L55.1528 8.84863H58.5669V21H55.8379V12.959L52.4912 21H50.6382L47.2803 12.9141V21H44.5513V8.84863H47.9878L51.5591 17.6421ZM66.9897 21.2246C65.2603 21.2246 63.8564 20.6818 62.7783 19.5962C61.7077 18.5031 61.1724 17.0506 61.1724 15.2388V14.9019C61.1724 13.689 61.4045 12.6071 61.8687 11.6562C62.3403 10.6979 62.9992 9.95296 63.8452 9.42139C64.6912 8.88981 65.6346 8.62402 66.6753 8.62402C68.3299 8.62402 69.6064 9.15186 70.5049 10.2075C71.4108 11.2632 71.8638 12.7568 71.8638 14.6885V15.7891H63.9238C64.0062 16.7923 64.3394 17.5859 64.9233 18.1699C65.5148 18.7539 66.256 19.0459 67.147 19.0459C68.3973 19.0459 69.4155 18.5405 70.2017 17.5298L71.6729 18.9336C71.1862 19.6598 70.5348 20.2251 69.7188 20.6294C68.9102 21.0262 68.0005 21.2246 66.9897 21.2246ZM66.6641 10.814C65.9154 10.814 65.3089 11.076 64.8447 11.6001C64.388 12.1242 64.096 12.8542 63.9688 13.79H69.1685V13.5879C69.1086 12.6745 68.8652 11.9857 68.4385 11.5215C68.0117 11.0498 67.4202 10.814 66.6641 10.814ZM84.2847 21H81.5557V16.0923H76.8276V21H74.0986V8.84863H76.8276V13.9136H81.5557V8.84863H84.2847V21ZM94.7852 8.84863H97.5029V21H94.7852V12.8916L90.0234 21H87.3057V8.84863H90.0234V16.957L94.7852 8.84863ZM109.969 11.0161H106.027V21H103.298V11.0161H99.4009V8.84863H109.969V11.0161ZM114.73 12.7119H117.403C118.399 12.7119 119.268 12.8841 120.009 13.2285C120.75 13.5729 121.312 14.0558 121.693 14.6772C122.083 15.2987 122.277 16.0212 122.277 16.8447C122.277 18.0951 121.836 19.0983 120.952 19.8545C120.069 20.6107 118.893 20.9925 117.426 21H112.001V8.84863H114.73V12.7119ZM114.73 14.9019V18.8213H117.392C118.058 18.8213 118.583 18.6566 118.964 18.3271C119.354 17.9902 119.548 17.5148 119.548 16.9009C119.548 16.2869 119.357 15.804 118.976 15.4521C118.601 15.0928 118.092 14.9093 117.448 14.9019H114.73Z" fill="#FB929E"/>
</g>
<defs>
<filter id="filter0_d" x="0" y="0" width="138" height="33" filterUnits="userSpaceOnUse" color-interpolation-filters="sRGB">
<feFlood flood-opacity="0" result="BackgroundImageFix"/>
<feColorMatrix in="SourceAlpha" type="matrix" values="0 0 0 0 0 0 0 0 0 0 0 0 0 0 0 0 0 0 127 0"/>
<feOffset dy="4"/>
<feGaussianBlur stdDeviation="2"/>
<feColorMatrix type="matrix" values="0 0 0 0 0 0 0 0 0 0 0 0 0 0 0 0 0 0 0.25 0"/>
<feBlend mode="normal" in2="BackgroundImageFix" result="effect1_dropShadow"/>
<feBlend mode="normal" in="SourceGraphic" in2="effect1_dropShadow" result="shape"/>
</filter>
<filter id="filter1_i" x="16.5986" y="4.64844" width="105.679" height="20.5762" filterUnits="userSpaceOnUse" color-interpolation-filters="sRGB">
<feFlood flood-opacity="0" result="BackgroundImageFix"/>
<feBlend mode="normal" in="SourceGraphic" in2="BackgroundImageFix" result="shape"/>
<feColorMatrix in="SourceAlpha" type="matrix" values="0 0 0 0 0 0 0 0 0 0 0 0 0 0 0 0 0 0 127 0" result="hardAlpha"/>
<feOffset dy="4"/>
<feGaussianBlur stdDeviation="2"/>
<feComposite in2="hardAlpha" operator="arithmetic" k2="-1" k3="1"/>
<feColorMatrix type="matrix" values="0 0 0 0 0 0 0 0 0 0 0 0 0 0 0 0 0 0 0.25 0"/>
<feBlend mode="normal" in2="shape" result="effect1_innerShadow"/>
</filter>
</defs>
</svg>
