<svg width="84" height="23" viewBox="0 0 84 23" fill="none" xmlns="http://www.w3.org/2000/svg">
<g filter="url(#filter0_i)">
<path d="M19.2695 0.671875V22H15.5781V3.66016H9.04492L8.66406 11.9072C8.51758 14.4854 8.2002 16.4873 7.71191 17.9131C7.2334 19.3291 6.53516 20.3643 5.61719 21.0186C4.69922 21.6729 3.46875 22 1.92578 22H0.988281V19.041L1.57422 18.9971C2.42383 18.9189 3.07812 18.6211 3.53711 18.1035C4.00586 17.5859 4.35742 16.8047 4.5918 15.7598C4.83594 14.7051 5.00684 13.1572 5.10449 11.1162L5.51465 0.671875H19.2695ZM22.7266 13.9287C22.7266 12.376 23.0342 10.9795 23.6494 9.73926C24.2646 8.48926 25.1289 7.53223 26.2422 6.86816C27.3555 6.19434 28.6348 5.85742 30.0801 5.85742C32.2188 5.85742 33.9521 6.5459 35.2803 7.92285C36.6182 9.2998 37.3408 11.126 37.4482 13.4014L37.4629 14.2363C37.4629 15.7988 37.1602 17.1953 36.5547 18.4258C35.959 19.6562 35.0996 20.6084 33.9766 21.2822C32.8633 21.9561 31.5742 22.293 30.1094 22.293C27.873 22.293 26.0811 21.5508 24.7334 20.0664C23.3955 18.5723 22.7266 16.585 22.7266 14.1045V13.9287ZM26.2861 14.2363C26.2861 15.8672 26.623 17.1465 27.2969 18.0742C27.9707 18.9922 28.9082 19.4512 30.1094 19.4512C31.3105 19.4512 32.2432 18.9824 32.9072 18.0449C33.5811 17.1074 33.918 15.7354 33.918 13.9287C33.918 12.3271 33.5713 11.0576 32.8779 10.1201C32.1943 9.18262 31.2617 8.71387 30.0801 8.71387C28.918 8.71387 27.9951 9.17773 27.3115 10.1055C26.6279 11.0234 26.2861 12.4004 26.2861 14.2363ZM51.0273 9.02148H44.1426V22H40.5977V6.15039H51.0273V9.02148ZM62.9365 6.15039H66.4814V22H62.9365V11.4238L56.7256 22H53.1807V6.15039H56.7256V16.7266L62.9365 6.15039ZM83.6934 22H80.1338V15.5986H73.9668V22H70.4072V6.15039H73.9668V12.7568H80.1338V6.15039H83.6934V22Z" fill="#FB929E"/>
</g>
<defs>
<filter id="filter0_i" x="0.988281" y="0.671875" width="82.7051" height="25.6211" filterUnits="userSpaceOnUse" color-interpolation-filters="sRGB">
<feFlood flood-opacity="0" result="BackgroundImageFix"/>
<feBlend mode="normal" in="SourceGraphic" in2="BackgroundImageFix" result="shape"/>
<feColorMatrix in="SourceAlpha" type="matrix" values="0 0 0 0 0 0 0 0 0 0 0 0 0 0 0 0 0 0 127 0" result="hardAlpha"/>
<feOffset dy="4"/>
<feGaussianBlur stdDeviation="2"/>
<feComposite in2="hardAlpha" operator="arithmetic" k2="-1" k3="1"/>
<feColorMatrix type="matrix" values="0 0 0 0 0 0 0 0 0 0 0 0 0 0 0 0 0 0 0.25 0"/>
<feBlend mode="normal" in2="shape" result="effect1_innerShadow"/>
</filter>
</defs>
</svg>
