<svg width="105" height="33" viewBox="0 0 105 33" fill="none" xmlns="http://www.w3.org/2000/svg">
<g filter="url(#filter0_d)">
<rect x="4" width="97" height="25" rx="10" fill="#FFF6F6"/>
</g>
<g filter="url(#filter1_i)">
<path d="M18.7524 21V4.64844H24.3564C26.2057 4.64844 27.6133 5.01904 28.5791 5.76025C29.5449 6.50146 30.0278 7.60579 30.0278 9.07324C30.0278 9.82194 29.8257 10.4958 29.4214 11.0947C29.0171 11.6937 28.4256 12.1579 27.647 12.4873C28.5304 12.7269 29.2118 13.1799 29.6909 13.8462C30.1776 14.505 30.4209 15.2987 30.4209 16.2271C30.4209 17.7619 29.9268 18.9411 28.9385 19.7646C27.9577 20.5882 26.5501 21 24.7158 21H18.7524ZM21.5938 13.6216V18.7314H24.7495C25.6405 18.7314 26.3368 18.5106 26.8384 18.0688C27.34 17.6271 27.5908 17.0132 27.5908 16.2271C27.5908 14.5275 26.7223 13.659 24.9854 13.6216H21.5938ZM21.5938 11.5327H24.3789C25.2624 11.5327 25.9512 11.3343 26.4453 10.9375C26.9469 10.5332 27.1978 9.96419 27.1978 9.23047C27.1978 8.42188 26.9657 7.83789 26.5015 7.47852C26.0448 7.11914 25.3298 6.93945 24.3564 6.93945H21.5938V11.5327ZM35.9351 12.7119H38.6079C39.6037 12.7119 40.4722 12.8841 41.2134 13.2285C41.9546 13.5729 42.5161 14.0558 42.8979 14.6772C43.2873 15.2987 43.4819 16.0212 43.4819 16.8447C43.4819 18.0951 43.0402 19.0983 42.1567 19.8545C41.2733 20.6107 40.0978 20.9925 38.6304 21H33.2061V8.84863H35.9351V12.7119ZM48.2324 21H45.5034V8.84863H48.2324V21ZM35.9351 14.9019V18.8213H38.5967C39.263 18.8213 39.7871 18.6566 40.1689 18.3271C40.5583 17.9902 40.7529 17.5148 40.7529 16.9009C40.7529 16.2869 40.562 15.804 40.1802 15.4521C39.8058 15.0928 39.2967 14.9093 38.6528 14.9019H35.9351ZM59.0923 8.84863H61.8101V21H59.0923V12.8916L54.3306 21H51.6128V8.84863H54.3306V16.957L59.0923 8.84863ZM60.3726 4.18799C60.3726 5.13135 60.0431 5.89502 59.3843 6.479C58.7254 7.06299 57.8457 7.35498 56.7451 7.35498C55.6445 7.35498 54.7648 7.06299 54.106 6.479C53.4471 5.89502 53.1177 5.13135 53.1177 4.18799H55.1616C55.1616 4.68213 55.3001 5.06771 55.5771 5.34473C55.8617 5.61426 56.251 5.74902 56.7451 5.74902C57.2393 5.74902 57.6248 5.61426 57.9019 5.34473C58.1789 5.06771 58.3174 4.68213 58.3174 4.18799H60.3726ZM74.2759 11.0161H70.334V21H67.605V11.0161H63.708V8.84863H74.2759V11.0161ZM83.687 8.84863H86.4048V21H83.687V12.8916L78.9253 21H76.2075V8.84863H78.9253V16.957L83.687 8.84863Z" fill="#FB929E"/>
</g>
<defs>
<filter id="filter0_d" x="0" y="0" width="105" height="33" filterUnits="userSpaceOnUse" color-interpolation-filters="sRGB">
<feFlood flood-opacity="0" result="BackgroundImageFix"/>
<feColorMatrix in="SourceAlpha" type="matrix" values="0 0 0 0 0 0 0 0 0 0 0 0 0 0 0 0 0 0 127 0"/>
<feOffset dy="4"/>
<feGaussianBlur stdDeviation="2"/>
<feColorMatrix type="matrix" values="0 0 0 0 0 0 0 0 0 0 0 0 0 0 0 0 0 0 0.25 0"/>
<feBlend mode="normal" in2="BackgroundImageFix" result="effect1_dropShadow"/>
<feBlend mode="normal" in="SourceGraphic" in2="effect1_dropShadow" result="shape"/>
</filter>
<filter id="filter1_i" x="18.7524" y="4.18799" width="67.6523" height="20.812" filterUnits="userSpaceOnUse" color-interpolation-filters="sRGB">
<feFlood flood-opacity="0" result="BackgroundImageFix"/>
<feBlend mode="normal" in="SourceGraphic" in2="BackgroundImageFix" result="shape"/>
<feColorMatrix in="SourceAlpha" type="matrix" values="0 0 0 0 0 0 0 0 0 0 0 0 0 0 0 0 0 0 127 0" result="hardAlpha"/>
<feOffset dy="4"/>
<feGaussianBlur stdDeviation="2"/>
<feComposite in2="hardAlpha" operator="arithmetic" k2="-1" k3="1"/>
<feColorMatrix type="matrix" values="0 0 0 0 0 0 0 0 0 0 0 0 0 0 0 0 0 0 0.25 0"/>
<feBlend mode="normal" in2="shape" result="effect1_innerShadow"/>
</filter>
</defs>
</svg>
