<svg width="103" height="29" viewBox="0 0 103 29" fill="none" xmlns="http://www.w3.org/2000/svg">
<g filter="url(#filter0_i)">
<path d="M17.4844 22H13.793V3.66016H4.40332V22H0.711914V0.671875H17.4844V22ZM31.0928 22C30.9365 21.6973 30.7998 21.2041 30.6826 20.5205C29.5498 21.7021 28.1631 22.293 26.5225 22.293C24.9307 22.293 23.6318 21.8389 22.626 20.9307C21.6201 20.0225 21.1172 18.8994 21.1172 17.5615C21.1172 15.8721 21.7422 14.5781 22.9922 13.6797C24.252 12.7715 26.0488 12.3174 28.3828 12.3174H30.5654V11.2773C30.5654 10.457 30.3359 9.80273 29.877 9.31445C29.418 8.81641 28.7197 8.56738 27.7822 8.56738C26.9717 8.56738 26.3076 8.77246 25.79 9.18262C25.2725 9.58301 25.0137 10.0957 25.0137 10.7207H21.4541C21.4541 9.85156 21.7422 9.04102 22.3184 8.28906C22.8945 7.52734 23.6758 6.93164 24.6621 6.50195C25.6582 6.07227 26.7666 5.85742 27.9873 5.85742C29.8428 5.85742 31.3223 6.32617 32.4258 7.26367C33.5293 8.19141 34.0957 9.5 34.125 11.1895V18.3379C34.125 19.7637 34.3252 20.9014 34.7256 21.751V22H31.0928ZM27.1816 19.4365C27.8848 19.4365 28.5439 19.2656 29.1592 18.9238C29.7842 18.582 30.2529 18.123 30.5654 17.5469V14.5586H28.6465C27.3281 14.5586 26.3369 14.7881 25.6729 15.2471C25.0088 15.7061 24.6768 16.3555 24.6768 17.1953C24.6768 17.8789 24.9014 18.4258 25.3506 18.8359C25.8096 19.2363 26.4199 19.4365 27.1816 19.4365ZM51.7324 14.2363C51.7324 16.6875 51.1758 18.6455 50.0625 20.1104C48.9492 21.5654 47.4551 22.293 45.5801 22.293C43.8418 22.293 42.4502 21.7217 41.4053 20.5791V28.0938H37.8457V6.15039H41.127L41.2734 7.76172C42.3184 6.49219 43.7393 5.85742 45.5361 5.85742C47.4697 5.85742 48.9834 6.58008 50.0771 8.02539C51.1807 9.46094 51.7324 11.458 51.7324 14.0166V14.2363ZM48.1875 13.9287C48.1875 12.3467 47.8701 11.0918 47.2354 10.1641C46.6104 9.23633 45.7119 8.77246 44.54 8.77246C43.085 8.77246 42.04 9.37305 41.4053 10.5742V17.6055C42.0498 18.8359 43.1045 19.4512 44.5693 19.4512C45.7021 19.4512 46.5859 18.9971 47.2207 18.0889C47.8652 17.1709 48.1875 15.7842 48.1875 13.9287ZM54.0908 13.9287C54.0908 12.376 54.3984 10.9795 55.0137 9.73926C55.6289 8.48926 56.4932 7.53223 57.6064 6.86816C58.7197 6.19434 59.999 5.85742 61.4443 5.85742C63.583 5.85742 65.3164 6.5459 66.6445 7.92285C67.9824 9.2998 68.7051 11.126 68.8125 13.4014L68.8271 14.2363C68.8271 15.7988 68.5244 17.1953 67.9189 18.4258C67.3232 19.6562 66.4639 20.6084 65.3408 21.2822C64.2275 21.9561 62.9385 22.293 61.4736 22.293C59.2373 22.293 57.4453 21.5508 56.0977 20.0664C54.7598 18.5723 54.0908 16.585 54.0908 14.1045V13.9287ZM57.6504 14.2363C57.6504 15.8672 57.9873 17.1465 58.6611 18.0742C59.335 18.9922 60.2725 19.4512 61.4736 19.4512C62.6748 19.4512 63.6074 18.9824 64.2715 18.0449C64.9453 17.1074 65.2822 15.7354 65.2822 13.9287C65.2822 12.3271 64.9355 11.0576 64.2422 10.1201C63.5586 9.18262 62.626 8.71387 61.4443 8.71387C60.2822 8.71387 59.3594 9.17773 58.6758 10.1055C57.9922 11.0234 57.6504 12.4004 57.6504 14.2363ZM85.0723 6.15039V22H81.5127V9.02148H77.0303L76.7373 14.5439C76.5518 17.2002 76.0391 19.1094 75.1992 20.2715C74.3691 21.4238 73.0947 22 71.376 22H70.2773L70.2627 19.041L70.9951 18.9678C71.7764 18.8604 72.3428 18.3867 72.6943 17.5469C73.0557 16.6973 73.2852 15.1543 73.3828 12.918L73.6758 6.15039H85.0723ZM92.6895 11.1895H96.1758C97.4746 11.1895 98.6074 11.4141 99.5742 11.8633C100.541 12.3125 101.273 12.9424 101.771 13.7529C102.279 14.5635 102.533 15.5059 102.533 16.5801C102.533 18.2109 101.957 19.5195 100.805 20.5059C99.6523 21.4922 98.1191 21.9902 96.2051 22H89.1299V6.15039H92.6895V11.1895ZM92.6895 14.0459V19.1582H96.1611C97.0303 19.1582 97.7139 18.9434 98.2119 18.5137C98.7197 18.0742 98.9736 17.4541 98.9736 16.6533C98.9736 15.8525 98.7246 15.2227 98.2266 14.7637C97.7383 14.2949 97.0742 14.0557 96.2344 14.0459H92.6895Z" fill="#FB929E"/>
</g>
<defs>
<filter id="filter0_i" x="0.711914" y="0.671875" width="101.821" height="31.4219" filterUnits="userSpaceOnUse" color-interpolation-filters="sRGB">
<feFlood flood-opacity="0" result="BackgroundImageFix"/>
<feBlend mode="normal" in="SourceGraphic" in2="BackgroundImageFix" result="shape"/>
<feColorMatrix in="SourceAlpha" type="matrix" values="0 0 0 0 0 0 0 0 0 0 0 0 0 0 0 0 0 0 127 0" result="hardAlpha"/>
<feOffset dy="4"/>
<feGaussianBlur stdDeviation="2"/>
<feComposite in2="hardAlpha" operator="arithmetic" k2="-1" k3="1"/>
<feColorMatrix type="matrix" values="0 0 0 0 0 0 0 0 0 0 0 0 0 0 0 0 0 0 0.25 0"/>
<feBlend mode="normal" in2="shape" result="effect1_innerShadow"/>
</filter>
</defs>
</svg>
