<svg width="668" height="63" viewBox="0 0 668 63" fill="none" xmlns="http://www.w3.org/2000/svg">
<g filter="url(#filter0_d)">
<rect width="660" height="55" rx="20" transform="matrix(1 0 0 -1 4 55)" fill="#FFDFDF"/>
</g>
<g filter="url(#filter1_i)">
<path d="M199.91 33.0566C199.695 35.332 198.855 37.1094 197.391 38.3887C195.926 39.6582 193.978 40.293 191.546 40.293C189.847 40.293 188.348 39.8926 187.049 39.0918C185.76 38.2812 184.764 37.1338 184.061 35.6494C183.357 34.165 182.991 32.4414 182.962 30.4785V28.4863C182.962 26.4746 183.318 24.7021 184.031 23.1689C184.744 21.6357 185.765 20.4541 187.093 19.624C188.431 18.7939 189.974 18.3789 191.722 18.3789C194.075 18.3789 195.97 19.0186 197.405 20.2979C198.841 21.5771 199.676 23.3838 199.91 25.7178H196.219C196.043 24.1846 195.594 23.0811 194.871 22.4072C194.158 21.7236 193.108 21.3818 191.722 21.3818C190.11 21.3818 188.87 21.9727 188.001 23.1543C187.142 24.3262 186.702 26.0498 186.683 28.3252V30.2148C186.683 32.5195 187.093 34.2773 187.913 35.4883C188.743 36.6992 189.954 37.3047 191.546 37.3047C193.001 37.3047 194.095 36.9775 194.827 36.3232C195.56 35.6689 196.023 34.5801 196.219 33.0566H199.91ZM202.225 31.9287C202.225 30.376 202.532 28.9795 203.147 27.7393C203.763 26.4893 204.627 25.5322 205.74 24.8682C206.854 24.1943 208.133 23.8574 209.578 23.8574C211.717 23.8574 213.45 24.5459 214.778 25.9229C216.116 27.2998 216.839 29.126 216.946 31.4014L216.961 32.2363C216.961 33.7988 216.658 35.1953 216.053 36.4258C215.457 37.6562 214.598 38.6084 213.475 39.2822C212.361 39.9561 211.072 40.293 209.607 40.293C207.371 40.293 205.579 39.5508 204.231 38.0664C202.894 36.5723 202.225 34.585 202.225 32.1045V31.9287ZM205.784 32.2363C205.784 33.8672 206.121 35.1465 206.795 36.0742C207.469 36.9922 208.406 37.4512 209.607 37.4512C210.809 37.4512 211.741 36.9824 212.405 36.0449C213.079 35.1074 213.416 33.7354 213.416 31.9287C213.416 30.3271 213.069 29.0576 212.376 28.1201C211.692 27.1826 210.76 26.7139 209.578 26.7139C208.416 26.7139 207.493 27.1777 206.81 28.1055C206.126 29.0234 205.784 30.4004 205.784 32.2363ZM225.34 29.3652L228.357 24.1504H232.312L227.464 31.958L232.474 40H228.548L225.384 34.5801L222.234 40H218.279L223.289 31.958L218.455 24.1504H222.381L225.34 29.3652ZM248.616 32.2363C248.616 34.6875 248.06 36.6455 246.946 38.1104C245.833 39.5654 244.339 40.293 242.464 40.293C240.726 40.293 239.334 39.7217 238.289 38.5791V46.0938H234.729V24.1504H238.011L238.157 25.7617C239.202 24.4922 240.623 23.8574 242.42 23.8574C244.354 23.8574 245.867 24.5801 246.961 26.0254C248.064 27.4609 248.616 29.458 248.616 32.0166V32.2363ZM245.071 31.9287C245.071 30.3467 244.754 29.0918 244.119 28.1641C243.494 27.2363 242.596 26.7725 241.424 26.7725C239.969 26.7725 238.924 27.373 238.289 28.5742V35.6055C238.934 36.8359 239.988 37.4512 241.453 37.4512C242.586 37.4512 243.47 36.9971 244.104 36.0889C244.749 35.1709 245.071 33.7842 245.071 31.9287ZM261.111 40C260.955 39.6973 260.818 39.2041 260.701 38.5205C259.568 39.7021 258.182 40.293 256.541 40.293C254.949 40.293 253.65 39.8389 252.645 38.9307C251.639 38.0225 251.136 36.8994 251.136 35.5615C251.136 33.8721 251.761 32.5781 253.011 31.6797C254.271 30.7715 256.067 30.3174 258.401 30.3174H260.584V29.2773C260.584 28.457 260.354 27.8027 259.896 27.3145C259.437 26.8164 258.738 26.5674 257.801 26.5674C256.99 26.5674 256.326 26.7725 255.809 27.1826C255.291 27.583 255.032 28.0957 255.032 28.7207H251.473C251.473 27.8516 251.761 27.041 252.337 26.2891C252.913 25.5273 253.694 24.9316 254.681 24.502C255.677 24.0723 256.785 23.8574 258.006 23.8574C259.861 23.8574 261.341 24.3262 262.444 25.2637C263.548 26.1914 264.114 27.5 264.144 29.1895V36.3379C264.144 37.7637 264.344 38.9014 264.744 39.751V40H261.111ZM257.2 37.4365C257.903 37.4365 258.562 37.2656 259.178 36.9238C259.803 36.582 260.271 36.123 260.584 35.5469V32.5586H258.665C257.347 32.5586 256.355 32.7881 255.691 33.2471C255.027 33.7061 254.695 34.3555 254.695 35.1953C254.695 35.8789 254.92 36.4258 255.369 36.8359C255.828 37.2363 256.438 37.4365 257.2 37.4365ZM281.297 40H277.737V33.5986H271.57V40H268.011V24.1504H271.57V30.7568H277.737V24.1504H281.297V40ZM294.993 24.1504H298.538V40H294.993V29.4238L288.782 40H285.237V24.1504H288.782V34.7266L294.993 24.1504ZM314.798 26.9775H309.656V40H306.097V26.9775H301.014V24.1504H314.798V26.9775ZM321.009 29.1895H324.495C325.794 29.1895 326.927 29.4141 327.894 29.8633C328.86 30.3125 329.593 30.9424 330.091 31.7529C330.599 32.5635 330.853 33.5059 330.853 34.5801C330.853 36.2109 330.276 37.5195 329.124 38.5059C327.972 39.4922 326.438 39.9902 324.524 40H317.449V24.1504H321.009V29.1895ZM321.009 32.0459V37.1582H324.48C325.35 37.1582 326.033 36.9434 326.531 36.5137C327.039 36.0742 327.293 35.4541 327.293 34.6533C327.293 33.8525 327.044 33.2227 326.546 32.7637C326.058 32.2949 325.394 32.0557 324.554 32.0459H321.009ZM351.067 24.1504H354.612V40H351.067V29.4238L344.856 40H341.312V24.1504H344.856V34.7266L351.067 24.1504ZM370.403 28.4863C370.403 29.1895 370.188 29.8389 369.759 30.4346C369.339 31.0205 368.743 31.4893 367.972 31.8408C369.788 32.4756 370.696 33.7012 370.696 35.5176C370.696 36.9727 370.105 38.1348 368.924 39.0039C367.742 39.8633 366.16 40.293 364.178 40.293C362.967 40.293 361.863 40.0928 360.867 39.6924C359.871 39.2822 359.095 38.7061 358.538 37.9639C357.981 37.2119 357.703 36.3232 357.703 35.2979H361.248C361.248 35.9424 361.536 36.4844 362.112 36.9238C362.688 37.3535 363.416 37.5684 364.295 37.5684C365.164 37.5684 365.853 37.3682 366.36 36.9678C366.878 36.5576 367.137 36.0254 367.137 35.3711C367.137 34.5996 366.912 34.043 366.463 33.7012C366.014 33.3594 365.32 33.1885 364.383 33.1885H361.834V30.625H364.471C366.062 30.6055 366.858 29.9512 366.858 28.6621C366.858 28.0176 366.629 27.5146 366.17 27.1533C365.711 26.792 365.081 26.6113 364.28 26.6113C363.499 26.6113 362.84 26.8066 362.303 27.1973C361.766 27.5781 361.497 28.0615 361.497 28.6475H357.952C357.952 27.251 358.538 26.1084 359.71 25.2197C360.882 24.3213 362.371 23.8721 364.178 23.8721C366.141 23.8721 367.669 24.2725 368.763 25.0732C369.856 25.874 370.403 27.0117 370.403 28.4863ZM383.133 35.6201L387.82 24.1504H392.273V40H388.714V29.5117L384.349 40H381.932L377.552 29.4531V40H373.992V24.1504H378.475L383.133 35.6201ZM403.26 40.293C401.004 40.293 399.173 39.585 397.767 38.1689C396.37 36.7432 395.672 34.8486 395.672 32.4854V32.0459C395.672 30.4639 395.975 29.0527 396.58 27.8125C397.195 26.5625 398.055 25.5908 399.158 24.8975C400.262 24.2041 401.492 23.8574 402.85 23.8574C405.008 23.8574 406.673 24.5459 407.845 25.9229C409.026 27.2998 409.617 29.248 409.617 31.7676V33.2031H399.261C399.368 34.5117 399.803 35.5469 400.564 36.3086C401.336 37.0703 402.303 37.4512 403.465 37.4512C405.096 37.4512 406.424 36.792 407.449 35.4736L409.368 37.3047C408.733 38.252 407.884 38.9893 406.819 39.5166C405.765 40.0342 404.578 40.293 403.26 40.293ZM402.835 26.7139C401.858 26.7139 401.067 27.0557 400.462 27.7393C399.866 28.4229 399.485 29.375 399.319 30.5957H406.102V30.332C406.023 29.1406 405.706 28.2422 405.149 27.6367C404.593 27.0215 403.821 26.7139 402.835 26.7139ZM425.818 40H422.259V33.5986H416.092V40H412.532V24.1504H416.092V30.7568H422.259V24.1504H425.818V40ZM436.6 40.293C434.344 40.293 432.513 39.585 431.106 38.1689C429.71 36.7432 429.012 34.8486 429.012 32.4854V32.0459C429.012 30.4639 429.314 29.0527 429.92 27.8125C430.535 26.5625 431.395 25.5908 432.498 24.8975C433.602 24.2041 434.832 23.8574 436.189 23.8574C438.348 23.8574 440.013 24.5459 441.185 25.9229C442.366 27.2998 442.957 29.248 442.957 31.7676V33.2031H432.601C432.708 34.5117 433.143 35.5469 433.904 36.3086C434.676 37.0703 435.643 37.4512 436.805 37.4512C438.436 37.4512 439.764 36.792 440.789 35.4736L442.708 37.3047C442.073 38.252 441.224 38.9893 440.159 39.5166C439.104 40.0342 437.918 40.293 436.6 40.293ZM436.175 26.7139C435.198 26.7139 434.407 27.0557 433.802 27.7393C433.206 28.4229 432.825 29.375 432.659 30.5957H439.441V30.332C439.363 29.1406 439.046 28.2422 438.489 27.6367C437.933 27.0215 437.161 26.7139 436.175 26.7139ZM459.158 40H455.599V33.5986H449.432V40H445.872V24.1504H449.432V30.7568H455.599V24.1504H459.158V40ZM472.854 24.1504H476.399V40H472.854V29.4238L466.644 40H463.099V24.1504H466.644V34.7266L472.854 24.1504ZM492.879 24.1504V40H489.334V34.1846H486.009L482.625 40H478.934L482.669 33.5986C481.692 33.1885 480.94 32.6025 480.413 31.8408C479.896 31.0791 479.637 30.2051 479.637 29.2188C479.637 27.7441 480.203 26.5381 481.336 25.6006C482.479 24.6533 484.017 24.1699 485.95 24.1504H492.879ZM483.196 29.3066C483.196 29.9707 483.44 30.5127 483.929 30.9326C484.427 31.3428 485.062 31.5479 485.833 31.5479H489.334V26.9775H486.053C485.184 26.9775 484.49 27.1973 483.973 27.6367C483.455 28.0762 483.196 28.6328 483.196 29.3066Z" fill="#FB929E"/>
</g>
<defs>
<filter id="filter0_d" x="0" y="0" width="668" height="63" filterUnits="userSpaceOnUse" color-interpolation-filters="sRGB">
<feFlood flood-opacity="0" result="BackgroundImageFix"/>
<feColorMatrix in="SourceAlpha" type="matrix" values="0 0 0 0 0 0 0 0 0 0 0 0 0 0 0 0 0 0 127 0"/>
<feOffset dy="4"/>
<feGaussianBlur stdDeviation="2"/>
<feColorMatrix type="matrix" values="0 0 0 0 0 0 0 0 0 0 0 0 0 0 0 0 0 0 0.25 0"/>
<feBlend mode="normal" in2="BackgroundImageFix" result="effect1_dropShadow"/>
<feBlend mode="normal" in="SourceGraphic" in2="effect1_dropShadow" result="shape"/>
</filter>
<filter id="filter1_i" x="182.962" y="18.3789" width="309.917" height="31.7148" filterUnits="userSpaceOnUse" color-interpolation-filters="sRGB">
<feFlood flood-opacity="0" result="BackgroundImageFix"/>
<feBlend mode="normal" in="SourceGraphic" in2="BackgroundImageFix" result="shape"/>
<feColorMatrix in="SourceAlpha" type="matrix" values="0 0 0 0 0 0 0 0 0 0 0 0 0 0 0 0 0 0 127 0" result="hardAlpha"/>
<feOffset dy="4"/>
<feGaussianBlur stdDeviation="2"/>
<feComposite in2="hardAlpha" operator="arithmetic" k2="-1" k3="1"/>
<feColorMatrix type="matrix" values="0 0 0 0 0 0 0 0 0 0 0 0 0 0 0 0 0 0 0.25 0"/>
<feBlend mode="normal" in2="shape" result="effect1_innerShadow"/>
</filter>
</defs>
</svg>
