<svg width="368" height="63" viewBox="0 0 368 63" fill="none" xmlns="http://www.w3.org/2000/svg">
<g filter="url(#filter0_d)">
<rect width="360" height="55" rx="20" transform="matrix(1 0 0 -1 4 55)" fill="#FFDFDF"/>
</g>
<g filter="url(#filter1_i)">
<path d="M49.9102 33.0566C49.6953 35.332 48.8555 37.1094 47.3906 38.3887C45.9258 39.6582 43.9775 40.293 41.5459 40.293C39.8467 40.293 38.3477 39.8926 37.0488 39.0918C35.7598 38.2812 34.7637 37.1338 34.0605 35.6494C33.3574 34.165 32.9912 32.4414 32.9619 30.4785V28.4863C32.9619 26.4746 33.3184 24.7021 34.0312 23.1689C34.7441 21.6357 35.7646 20.4541 37.0928 19.624C38.4307 18.7939 39.9736 18.3789 41.7217 18.3789C44.0752 18.3789 45.9697 19.0186 47.4053 20.2979C48.8408 21.5771 49.6758 23.3838 49.9102 25.7178H46.2188C46.043 24.1846 45.5938 23.0811 44.8711 22.4072C44.1582 21.7236 43.1084 21.3818 41.7217 21.3818C40.1104 21.3818 38.8701 21.9727 38.001 23.1543C37.1416 24.3262 36.7021 26.0498 36.6826 28.3252V30.2148C36.6826 32.5195 37.0928 34.2773 37.9131 35.4883C38.7432 36.6992 39.9541 37.3047 41.5459 37.3047C43.001 37.3047 44.0947 36.9775 44.8271 36.3232C45.5596 35.6689 46.0234 34.5801 46.2188 33.0566H49.9102ZM52.2246 31.9287C52.2246 30.376 52.5322 28.9795 53.1475 27.7393C53.7627 26.4893 54.627 25.5322 55.7402 24.8682C56.8535 24.1943 58.1328 23.8574 59.5781 23.8574C61.7168 23.8574 63.4502 24.5459 64.7783 25.9229C66.1162 27.2998 66.8389 29.126 66.9463 31.4014L66.9609 32.2363C66.9609 33.7988 66.6582 35.1953 66.0527 36.4258C65.457 37.6562 64.5977 38.6084 63.4746 39.2822C62.3613 39.9561 61.0723 40.293 59.6074 40.293C57.3711 40.293 55.5791 39.5508 54.2314 38.0664C52.8936 36.5723 52.2246 34.585 52.2246 32.1045V31.9287ZM55.7842 32.2363C55.7842 33.8672 56.1211 35.1465 56.7949 36.0742C57.4688 36.9922 58.4062 37.4512 59.6074 37.4512C60.8086 37.4512 61.7412 36.9824 62.4053 36.0449C63.0791 35.1074 63.416 33.7354 63.416 31.9287C63.416 30.3271 63.0693 29.0576 62.376 28.1201C61.6924 27.1826 60.7598 26.7139 59.5781 26.7139C58.416 26.7139 57.4932 27.1777 56.8096 28.1055C56.126 29.0234 55.7842 30.4004 55.7842 32.2363ZM75.3398 29.3652L78.3574 24.1504H82.3125L77.4639 31.958L82.4736 40H78.5479L75.3838 34.5801L72.2344 40H68.2793L73.2891 31.958L68.4551 24.1504H72.3809L75.3398 29.3652ZM98.6162 32.2363C98.6162 34.6875 98.0596 36.6455 96.9463 38.1104C95.833 39.5654 94.3389 40.293 92.4639 40.293C90.7256 40.293 89.334 39.7217 88.2891 38.5791V46.0938H84.7295V24.1504H88.0107L88.1572 25.7617C89.2021 24.4922 90.623 23.8574 92.4199 23.8574C94.3535 23.8574 95.8672 24.5801 96.9609 26.0254C98.0645 27.4609 98.6162 29.458 98.6162 32.0166V32.2363ZM95.0713 31.9287C95.0713 30.3467 94.7539 29.0918 94.1191 28.1641C93.4941 27.2363 92.5957 26.7725 91.4238 26.7725C89.9688 26.7725 88.9238 27.373 88.2891 28.5742V35.6055C88.9336 36.8359 89.9883 37.4512 91.4531 37.4512C92.5859 37.4512 93.4697 36.9971 94.1045 36.0889C94.749 35.1709 95.0713 33.7842 95.0713 31.9287ZM111.111 40C110.955 39.6973 110.818 39.2041 110.701 38.5205C109.568 39.7021 108.182 40.293 106.541 40.293C104.949 40.293 103.65 39.8389 102.645 38.9307C101.639 38.0225 101.136 36.8994 101.136 35.5615C101.136 33.8721 101.761 32.5781 103.011 31.6797C104.271 30.7715 106.067 30.3174 108.401 30.3174H110.584V29.2773C110.584 28.457 110.354 27.8027 109.896 27.3145C109.437 26.8164 108.738 26.5674 107.801 26.5674C106.99 26.5674 106.326 26.7725 105.809 27.1826C105.291 27.583 105.032 28.0957 105.032 28.7207H101.473C101.473 27.8516 101.761 27.041 102.337 26.2891C102.913 25.5273 103.694 24.9316 104.681 24.502C105.677 24.0723 106.785 23.8574 108.006 23.8574C109.861 23.8574 111.341 24.3262 112.444 25.2637C113.548 26.1914 114.114 27.5 114.144 29.1895V36.3379C114.144 37.7637 114.344 38.9014 114.744 39.751V40H111.111ZM107.2 37.4365C107.903 37.4365 108.562 37.2656 109.178 36.9238C109.803 36.582 110.271 36.123 110.584 35.5469V32.5586H108.665C107.347 32.5586 106.355 32.7881 105.691 33.2471C105.027 33.7061 104.695 34.3555 104.695 35.1953C104.695 35.8789 104.92 36.4258 105.369 36.8359C105.828 37.2363 106.438 37.4365 107.2 37.4365ZM131.297 40H127.737V33.5986H121.57V40H118.011V24.1504H121.57V30.7568H127.737V24.1504H131.297V40ZM144.993 24.1504H148.538V40H144.993V29.4238L138.782 40H135.237V24.1504H138.782V34.7266L144.993 24.1504ZM164.798 26.9775H159.656V40H156.097V26.9775H151.014V24.1504H164.798V26.9775ZM171.009 29.1895H174.495C175.794 29.1895 176.927 29.4141 177.894 29.8633C178.86 30.3125 179.593 30.9424 180.091 31.7529C180.599 32.5635 180.853 33.5059 180.853 34.5801C180.853 36.2109 180.276 37.5195 179.124 38.5059C177.972 39.4922 176.438 39.9902 174.524 40H167.449V24.1504H171.009V29.1895ZM171.009 32.0459V37.1582H174.48C175.35 37.1582 176.033 36.9434 176.531 36.5137C177.039 36.0742 177.293 35.4541 177.293 34.6533C177.293 33.8525 177.044 33.2227 176.546 32.7637C176.058 32.2949 175.394 32.0557 174.554 32.0459H171.009ZM201.067 24.1504H204.612V40H201.067V29.4238L194.856 40H191.312V24.1504H194.856V34.7266L201.067 24.1504ZM220.403 28.4863C220.403 29.1895 220.188 29.8389 219.759 30.4346C219.339 31.0205 218.743 31.4893 217.972 31.8408C219.788 32.4756 220.696 33.7012 220.696 35.5176C220.696 36.9727 220.105 38.1348 218.924 39.0039C217.742 39.8633 216.16 40.293 214.178 40.293C212.967 40.293 211.863 40.0928 210.867 39.6924C209.871 39.2822 209.095 38.7061 208.538 37.9639C207.981 37.2119 207.703 36.3232 207.703 35.2979H211.248C211.248 35.9424 211.536 36.4844 212.112 36.9238C212.688 37.3535 213.416 37.5684 214.295 37.5684C215.164 37.5684 215.853 37.3682 216.36 36.9678C216.878 36.5576 217.137 36.0254 217.137 35.3711C217.137 34.5996 216.912 34.043 216.463 33.7012C216.014 33.3594 215.32 33.1885 214.383 33.1885H211.834V30.625H214.471C216.062 30.6055 216.858 29.9512 216.858 28.6621C216.858 28.0176 216.629 27.5146 216.17 27.1533C215.711 26.792 215.081 26.6113 214.28 26.6113C213.499 26.6113 212.84 26.8066 212.303 27.1973C211.766 27.5781 211.497 28.0615 211.497 28.6475H207.952C207.952 27.251 208.538 26.1084 209.71 25.2197C210.882 24.3213 212.371 23.8721 214.178 23.8721C216.141 23.8721 217.669 24.2725 218.763 25.0732C219.856 25.874 220.403 27.0117 220.403 28.4863ZM233.133 35.6201L237.82 24.1504H242.273V40H238.714V29.5117L234.349 40H231.932L227.552 29.4531V40H223.992V24.1504H228.475L233.133 35.6201ZM253.26 40.293C251.004 40.293 249.173 39.585 247.767 38.1689C246.37 36.7432 245.672 34.8486 245.672 32.4854V32.0459C245.672 30.4639 245.975 29.0527 246.58 27.8125C247.195 26.5625 248.055 25.5908 249.158 24.8975C250.262 24.2041 251.492 23.8574 252.85 23.8574C255.008 23.8574 256.673 24.5459 257.845 25.9229C259.026 27.2998 259.617 29.248 259.617 31.7676V33.2031H249.261C249.368 34.5117 249.803 35.5469 250.564 36.3086C251.336 37.0703 252.303 37.4512 253.465 37.4512C255.096 37.4512 256.424 36.792 257.449 35.4736L259.368 37.3047C258.733 38.252 257.884 38.9893 256.819 39.5166C255.765 40.0342 254.578 40.293 253.26 40.293ZM252.835 26.7139C251.858 26.7139 251.067 27.0557 250.462 27.7393C249.866 28.4229 249.485 29.375 249.319 30.5957H256.102V30.332C256.023 29.1406 255.706 28.2422 255.149 27.6367C254.593 27.0215 253.821 26.7139 252.835 26.7139ZM275.818 40H272.259V33.5986H266.092V40H262.532V24.1504H266.092V30.7568H272.259V24.1504H275.818V40ZM286.6 40.293C284.344 40.293 282.513 39.585 281.106 38.1689C279.71 36.7432 279.012 34.8486 279.012 32.4854V32.0459C279.012 30.4639 279.314 29.0527 279.92 27.8125C280.535 26.5625 281.395 25.5908 282.498 24.8975C283.602 24.2041 284.832 23.8574 286.189 23.8574C288.348 23.8574 290.013 24.5459 291.185 25.9229C292.366 27.2998 292.957 29.248 292.957 31.7676V33.2031H282.601C282.708 34.5117 283.143 35.5469 283.904 36.3086C284.676 37.0703 285.643 37.4512 286.805 37.4512C288.436 37.4512 289.764 36.792 290.789 35.4736L292.708 37.3047C292.073 38.252 291.224 38.9893 290.159 39.5166C289.104 40.0342 287.918 40.293 286.6 40.293ZM286.175 26.7139C285.198 26.7139 284.407 27.0557 283.802 27.7393C283.206 28.4229 282.825 29.375 282.659 30.5957H289.441V30.332C289.363 29.1406 289.046 28.2422 288.489 27.6367C287.933 27.0215 287.161 26.7139 286.175 26.7139ZM309.158 40H305.599V33.5986H299.432V40H295.872V24.1504H299.432V30.7568H305.599V24.1504H309.158V40ZM322.854 24.1504H326.399V40H322.854V29.4238L316.644 40H313.099V24.1504H316.644V34.7266L322.854 24.1504ZM342.879 24.1504V40H339.334V34.1846H336.009L332.625 40H328.934L332.669 33.5986C331.692 33.1885 330.94 32.6025 330.413 31.8408C329.896 31.0791 329.637 30.2051 329.637 29.2188C329.637 27.7441 330.203 26.5381 331.336 25.6006C332.479 24.6533 334.017 24.1699 335.95 24.1504H342.879ZM333.196 29.3066C333.196 29.9707 333.44 30.5127 333.929 30.9326C334.427 31.3428 335.062 31.5479 335.833 31.5479H339.334V26.9775H336.053C335.184 26.9775 334.49 27.1973 333.973 27.6367C333.455 28.0762 333.196 28.6328 333.196 29.3066Z" fill="#FB929E"/>
</g>
<defs>
<filter id="filter0_d" x="0" y="0" width="368" height="63" filterUnits="userSpaceOnUse" color-interpolation-filters="sRGB">
<feFlood flood-opacity="0" result="BackgroundImageFix"/>
<feColorMatrix in="SourceAlpha" type="matrix" values="0 0 0 0 0 0 0 0 0 0 0 0 0 0 0 0 0 0 127 0"/>
<feOffset dy="4"/>
<feGaussianBlur stdDeviation="2"/>
<feColorMatrix type="matrix" values="0 0 0 0 0 0 0 0 0 0 0 0 0 0 0 0 0 0 0.25 0"/>
<feBlend mode="normal" in2="BackgroundImageFix" result="effect1_dropShadow"/>
<feBlend mode="normal" in="SourceGraphic" in2="effect1_dropShadow" result="shape"/>
</filter>
<filter id="filter1_i" x="32.9619" y="18.3789" width="309.917" height="31.7148" filterUnits="userSpaceOnUse" color-interpolation-filters="sRGB">
<feFlood flood-opacity="0" result="BackgroundImageFix"/>
<feBlend mode="normal" in="SourceGraphic" in2="BackgroundImageFix" result="shape"/>
<feColorMatrix in="SourceAlpha" type="matrix" values="0 0 0 0 0 0 0 0 0 0 0 0 0 0 0 0 0 0 127 0" result="hardAlpha"/>
<feOffset dy="4"/>
<feGaussianBlur stdDeviation="2"/>
<feComposite in2="hardAlpha" operator="arithmetic" k2="-1" k3="1"/>
<feColorMatrix type="matrix" values="0 0 0 0 0 0 0 0 0 0 0 0 0 0 0 0 0 0 0.25 0"/>
<feBlend mode="normal" in2="shape" result="effect1_innerShadow"/>
</filter>
</defs>
</svg>
