<svg width="378" height="27" viewBox="0 0 378 27" fill="none" xmlns="http://www.w3.org/2000/svg">
<g filter="url(#filter0_i)">
<path d="M0.474609 22V0.671875H7.78418C10.1963 0.671875 12.0322 1.15527 13.292 2.12207C14.5518 3.08887 15.1816 4.5293 15.1816 6.44336C15.1816 7.41992 14.918 8.29883 14.3906 9.08008C13.8633 9.86133 13.0918 10.4668 12.0762 10.8965C13.2285 11.209 14.1172 11.7998 14.7422 12.6689C15.377 13.5283 15.6943 14.5635 15.6943 15.7744C15.6943 17.7764 15.0498 19.3145 13.7607 20.3887C12.4814 21.4629 10.6455 22 8.25293 22H0.474609ZM4.18066 12.376V19.041H8.29688C9.45898 19.041 10.3672 18.7529 11.0215 18.1768C11.6758 17.6006 12.0029 16.7998 12.0029 15.7744C12.0029 13.5576 10.8701 12.4248 8.60449 12.376H4.18066ZM4.18066 9.65137H7.81348C8.96582 9.65137 9.86426 9.39258 10.5088 8.875C11.1631 8.34766 11.4902 7.60547 11.4902 6.64844C11.4902 5.59375 11.1875 4.83203 10.582 4.36328C9.98633 3.89453 9.05371 3.66016 7.78418 3.66016H4.18066V9.65137ZM19.3271 22V6.15039H25.7578C27.9258 6.15039 29.5762 6.53125 30.709 7.29297C31.8418 8.04492 32.4082 9.12891 32.4082 10.5449C32.4082 11.2773 32.1787 11.9365 31.7197 12.5225C31.2705 13.0986 30.6016 13.543 29.7129 13.8555C30.748 14.0703 31.5684 14.5049 32.1738 15.1592C32.7793 15.8135 33.082 16.585 33.082 17.4736C33.082 18.9482 32.5352 20.0713 31.4414 20.8428C30.3574 21.6143 28.7949 22 26.7539 22H19.3271ZM22.8867 15.2471V19.1875H26.7832C28.6094 19.1875 29.5225 18.5332 29.5225 17.2246C29.5225 15.9062 28.5947 15.2471 26.7393 15.2471H22.8867ZM22.8867 12.6982H25.8164C27.8379 12.6982 28.8486 12.1025 28.8486 10.9111C28.8486 9.66113 27.8916 9.0166 25.9775 8.97754H22.8867V12.6982ZM43.1455 22.293C40.8896 22.293 39.0586 21.585 37.6523 20.1689C36.2559 18.7432 35.5576 16.8486 35.5576 14.4854V14.0459C35.5576 12.4639 35.8604 11.0527 36.4658 9.8125C37.0811 8.5625 37.9404 7.59082 39.0439 6.89746C40.1475 6.2041 41.3779 5.85742 42.7354 5.85742C44.8936 5.85742 46.5586 6.5459 47.7305 7.92285C48.9121 9.2998 49.5029 11.248 49.5029 13.7676V15.2031H39.1465C39.2539 16.5117 39.6885 17.5469 40.4502 18.3086C41.2217 19.0703 42.1885 19.4512 43.3506 19.4512C44.9814 19.4512 46.3096 18.792 47.335 17.4736L49.2539 19.3047C48.6191 20.252 47.7695 20.9893 46.7051 21.5166C45.6504 22.0342 44.4639 22.293 43.1455 22.293ZM42.7207 8.71387C41.7441 8.71387 40.9531 9.05566 40.3477 9.73926C39.752 10.4229 39.3711 11.375 39.2051 12.5957H45.9873V12.332C45.9092 11.1406 45.5918 10.2422 45.0352 9.63672C44.4785 9.02148 43.707 8.71387 42.7207 8.71387ZM52.3447 19.1582C53.3311 18.0547 53.9902 17.0098 54.3223 16.0234C54.6641 15.0273 54.8691 13.7578 54.9375 12.2148L55.1426 6.15039H66.1436V19.1582H68.3408V26.7168H64.7959V22H54.6299V26.7168H51.0264L51.041 19.1582H52.3447ZM56.5195 19.1582H62.5986V9.21191H58.5996L58.4971 12.2441C58.3604 15.1543 57.7012 17.459 56.5195 19.1582ZM80.5137 6.15039H84.0586V22H80.5137V11.4238L74.3027 22H70.7578V6.15039H74.3027V16.7266L80.5137 6.15039ZM100.318 8.97754H95.1768V22H91.6172V8.97754H86.5342V6.15039H100.318V8.97754ZM108.741 22.293C106.485 22.293 104.654 21.585 103.248 20.1689C101.852 18.7432 101.153 16.8486 101.153 14.4854V14.0459C101.153 12.4639 101.456 11.0527 102.062 9.8125C102.677 8.5625 103.536 7.59082 104.64 6.89746C105.743 6.2041 106.974 5.85742 108.331 5.85742C110.489 5.85742 112.154 6.5459 113.326 7.92285C114.508 9.2998 115.099 11.248 115.099 13.7676V15.2031H104.742C104.85 16.5117 105.284 17.5469 106.046 18.3086C106.817 19.0703 107.784 19.4512 108.946 19.4512C110.577 19.4512 111.905 18.792 112.931 17.4736L114.85 19.3047C114.215 20.252 113.365 20.9893 112.301 21.5166C111.246 22.0342 110.06 22.293 108.741 22.293ZM108.316 8.71387C107.34 8.71387 106.549 9.05566 105.943 9.73926C105.348 10.4229 104.967 11.375 104.801 12.5957H111.583V12.332C111.505 11.1406 111.188 10.2422 110.631 9.63672C110.074 9.02148 109.303 8.71387 108.316 8.71387ZM137.35 10.4863C137.35 11.1895 137.135 11.8389 136.705 12.4346C136.285 13.0205 135.689 13.4893 134.918 13.8408C136.734 14.4756 137.643 15.7012 137.643 17.5176C137.643 18.9727 137.052 20.1348 135.87 21.0039C134.688 21.8633 133.106 22.293 131.124 22.293C129.913 22.293 128.81 22.0928 127.813 21.6924C126.817 21.2822 126.041 20.7061 125.484 19.9639C124.928 19.2119 124.649 18.3232 124.649 17.2979H128.194C128.194 17.9424 128.482 18.4844 129.059 18.9238C129.635 19.3535 130.362 19.5684 131.241 19.5684C132.11 19.5684 132.799 19.3682 133.307 18.9678C133.824 18.5576 134.083 18.0254 134.083 17.3711C134.083 16.5996 133.858 16.043 133.409 15.7012C132.96 15.3594 132.267 15.1885 131.329 15.1885H128.78V12.625H131.417C133.009 12.6055 133.805 11.9512 133.805 10.6621C133.805 10.0176 133.575 9.51465 133.116 9.15332C132.657 8.79199 132.027 8.61133 131.227 8.61133C130.445 8.61133 129.786 8.80664 129.249 9.19727C128.712 9.57812 128.443 10.0615 128.443 10.6475H124.898C124.898 9.25098 125.484 8.1084 126.656 7.21973C127.828 6.32129 129.317 5.87207 131.124 5.87207C133.087 5.87207 134.615 6.27246 135.709 7.07324C136.803 7.87402 137.35 9.01172 137.35 10.4863ZM150.138 22C149.981 21.6973 149.845 21.2041 149.728 20.5205C148.595 21.7021 147.208 22.293 145.567 22.293C143.976 22.293 142.677 21.8389 141.671 20.9307C140.665 20.0225 140.162 18.8994 140.162 17.5615C140.162 15.8721 140.787 14.5781 142.037 13.6797C143.297 12.7715 145.094 12.3174 147.428 12.3174H149.61V11.2773C149.61 10.457 149.381 9.80273 148.922 9.31445C148.463 8.81641 147.765 8.56738 146.827 8.56738C146.017 8.56738 145.353 8.77246 144.835 9.18262C144.317 9.58301 144.059 10.0957 144.059 10.7207H140.499C140.499 9.85156 140.787 9.04102 141.363 8.28906C141.939 7.52734 142.721 6.93164 143.707 6.50195C144.703 6.07227 145.812 5.85742 147.032 5.85742C148.888 5.85742 150.367 6.32617 151.471 7.26367C152.574 8.19141 153.141 9.5 153.17 11.1895V18.3379C153.17 19.7637 153.37 20.9014 153.771 21.751V22H150.138ZM146.227 19.4365C146.93 19.4365 147.589 19.2656 148.204 18.9238C148.829 18.582 149.298 18.123 149.61 17.5469V14.5586H147.691C146.373 14.5586 145.382 14.7881 144.718 15.2471C144.054 15.7061 143.722 16.3555 143.722 17.1953C143.722 17.8789 143.946 18.4258 144.396 18.8359C144.854 19.2363 145.465 19.4365 146.227 19.4365ZM167.452 9.02148H160.567V22H157.022V6.15039H167.452V9.02148ZM168.507 13.9287C168.507 12.376 168.814 10.9795 169.43 9.73926C170.045 8.48926 170.909 7.53223 172.022 6.86816C173.136 6.19434 174.415 5.85742 175.86 5.85742C177.999 5.85742 179.732 6.5459 181.061 7.92285C182.398 9.2998 183.121 11.126 183.229 13.4014L183.243 14.2363C183.243 15.7988 182.94 17.1953 182.335 18.4258C181.739 19.6562 180.88 20.6084 179.757 21.2822C178.644 21.9561 177.354 22.293 175.89 22.293C173.653 22.293 171.861 21.5508 170.514 20.0664C169.176 18.5723 168.507 16.585 168.507 14.1045V13.9287ZM172.066 14.2363C172.066 15.8672 172.403 17.1465 173.077 18.0742C173.751 18.9922 174.688 19.4512 175.89 19.4512C177.091 19.4512 178.023 18.9824 178.688 18.0449C179.361 17.1074 179.698 15.7354 179.698 13.9287C179.698 12.3271 179.352 11.0576 178.658 10.1201C177.975 9.18262 177.042 8.71387 175.86 8.71387C174.698 8.71387 173.775 9.17773 173.092 10.1055C172.408 11.0234 172.066 12.4004 172.066 14.2363ZM199.488 6.15039V22H195.929V9.02148H191.446L191.153 14.5439C190.968 17.2002 190.455 19.1094 189.615 20.2715C188.785 21.4238 187.511 22 185.792 22H184.693L184.679 19.041L185.411 18.9678C186.192 18.8604 186.759 18.3867 187.11 17.5469C187.472 16.6973 187.701 15.1543 187.799 12.918L188.092 6.15039H199.488ZM202.608 13.9287C202.608 12.376 202.916 10.9795 203.531 9.73926C204.146 8.48926 205.011 7.53223 206.124 6.86816C207.237 6.19434 208.517 5.85742 209.962 5.85742C212.101 5.85742 213.834 6.5459 215.162 7.92285C216.5 9.2998 217.223 11.126 217.33 13.4014L217.345 14.2363C217.345 15.7988 217.042 17.1953 216.437 18.4258C215.841 19.6562 214.981 20.6084 213.858 21.2822C212.745 21.9561 211.456 22.293 209.991 22.293C207.755 22.293 205.963 21.5508 204.615 20.0664C203.277 18.5723 202.608 16.585 202.608 14.1045V13.9287ZM206.168 14.2363C206.168 15.8672 206.505 17.1465 207.179 18.0742C207.853 18.9922 208.79 19.4512 209.991 19.4512C211.192 19.4512 212.125 18.9824 212.789 18.0449C213.463 17.1074 213.8 15.7354 213.8 13.9287C213.8 12.3271 213.453 11.0576 212.76 10.1201C212.076 9.18262 211.144 8.71387 209.962 8.71387C208.8 8.71387 207.877 9.17773 207.193 10.1055C206.51 11.0234 206.168 12.4004 206.168 14.2363ZM220.626 22V6.15039H227.057C229.225 6.15039 230.875 6.53125 232.008 7.29297C233.141 8.04492 233.707 9.12891 233.707 10.5449C233.707 11.2773 233.478 11.9365 233.019 12.5225C232.569 13.0986 231.9 13.543 231.012 13.8555C232.047 14.0703 232.867 14.5049 233.473 15.1592C234.078 15.8135 234.381 16.585 234.381 17.4736C234.381 18.9482 233.834 20.0713 232.74 20.8428C231.656 21.6143 230.094 22 228.053 22H220.626ZM224.186 15.2471V19.1875H228.082C229.908 19.1875 230.821 18.5332 230.821 17.2246C230.821 15.9062 229.894 15.2471 228.038 15.2471H224.186ZM224.186 12.6982H227.115C229.137 12.6982 230.147 12.1025 230.147 10.9111C230.147 9.66113 229.19 9.0166 227.276 8.97754H224.186V12.6982ZM236.798 13.9287C236.798 12.376 237.105 10.9795 237.721 9.73926C238.336 8.48926 239.2 7.53223 240.313 6.86816C241.427 6.19434 242.706 5.85742 244.151 5.85742C246.29 5.85742 248.023 6.5459 249.352 7.92285C250.689 9.2998 251.412 11.126 251.52 13.4014L251.534 14.2363C251.534 15.7988 251.231 17.1953 250.626 18.4258C250.03 19.6562 249.171 20.6084 248.048 21.2822C246.935 21.9561 245.646 22.293 244.181 22.293C241.944 22.293 240.152 21.5508 238.805 20.0664C237.467 18.5723 236.798 16.585 236.798 14.1045V13.9287ZM240.357 14.2363C240.357 15.8672 240.694 17.1465 241.368 18.0742C242.042 18.9922 242.979 19.4512 244.181 19.4512C245.382 19.4512 246.314 18.9824 246.979 18.0449C247.652 17.1074 247.989 15.7354 247.989 13.9287C247.989 12.3271 247.643 11.0576 246.949 10.1201C246.266 9.18262 245.333 8.71387 244.151 8.71387C242.989 8.71387 242.066 9.17773 241.383 10.1055C240.699 11.0234 240.357 12.4004 240.357 14.2363ZM260.177 15.7305H258.375V22H254.815V6.15039H258.375V12.4785H259.942L264.322 6.15039H268.717L262.989 13.7383L269.2 22H264.571L260.177 15.7305ZM285.138 19.4512C286.026 19.4512 286.764 19.1924 287.35 18.6748C287.936 18.1572 288.248 17.5176 288.287 16.7559H291.642C291.603 17.7422 291.295 18.665 290.719 19.5244C290.143 20.374 289.361 21.0479 288.375 21.5459C287.389 22.0439 286.324 22.293 285.182 22.293C282.965 22.293 281.207 21.5752 279.908 20.1396C278.609 18.7041 277.96 16.7217 277.96 14.1924V13.8262C277.96 11.4141 278.604 9.48535 279.894 8.04004C281.183 6.58496 282.94 5.85742 285.167 5.85742C287.052 5.85742 288.585 6.40918 289.767 7.5127C290.958 8.60645 291.583 10.0469 291.642 11.834H288.287C288.248 10.9258 287.936 10.1787 287.35 9.59277C286.773 9.00684 286.036 8.71387 285.138 8.71387C283.985 8.71387 283.097 9.13379 282.472 9.97363C281.847 10.8037 281.529 12.0684 281.52 13.7676V14.3389C281.52 16.0576 281.827 17.3418 282.442 18.1914C283.067 19.0312 283.966 19.4512 285.138 19.4512ZM306.803 8.97754H301.661V22H298.102V8.97754H293.019V6.15039H306.803V8.97754ZM318.419 22C318.263 21.6973 318.126 21.2041 318.009 20.5205C316.876 21.7021 315.489 22.293 313.849 22.293C312.257 22.293 310.958 21.8389 309.952 20.9307C308.946 20.0225 308.443 18.8994 308.443 17.5615C308.443 15.8721 309.068 14.5781 310.318 13.6797C311.578 12.7715 313.375 12.3174 315.709 12.3174H317.892V11.2773C317.892 10.457 317.662 9.80273 317.203 9.31445C316.744 8.81641 316.046 8.56738 315.108 8.56738C314.298 8.56738 313.634 8.77246 313.116 9.18262C312.599 9.58301 312.34 10.0957 312.34 10.7207H308.78C308.78 9.85156 309.068 9.04102 309.645 8.28906C310.221 7.52734 311.002 6.93164 311.988 6.50195C312.984 6.07227 314.093 5.85742 315.313 5.85742C317.169 5.85742 318.648 6.32617 319.752 7.26367C320.855 8.19141 321.422 9.5 321.451 11.1895V18.3379C321.451 19.7637 321.651 20.9014 322.052 21.751V22H318.419ZM314.508 19.4365C315.211 19.4365 315.87 19.2656 316.485 18.9238C317.11 18.582 317.579 18.123 317.892 17.5469V14.5586H315.973C314.654 14.5586 313.663 14.7881 312.999 15.2471C312.335 15.7061 312.003 16.3555 312.003 17.1953C312.003 17.8789 312.228 18.4258 312.677 18.8359C313.136 19.2363 313.746 19.4365 314.508 19.4365ZM337.418 8.97754H332.276V22H328.717V8.97754H323.634V6.15039H337.418V8.97754ZM343.629 11.1895H347.115C348.414 11.1895 349.547 11.4141 350.514 11.8633C351.48 12.3125 352.213 12.9424 352.711 13.7529C353.219 14.5635 353.473 15.5059 353.473 16.5801C353.473 18.2109 352.896 19.5195 351.744 20.5059C350.592 21.4922 349.059 21.9902 347.145 22H340.069V6.15039H343.629V11.1895ZM343.629 14.0459V19.1582H347.101C347.97 19.1582 348.653 18.9434 349.151 18.5137C349.659 18.0742 349.913 17.4541 349.913 16.6533C349.913 15.8525 349.664 15.2227 349.166 14.7637C348.678 14.2949 348.014 14.0557 347.174 14.0459H343.629ZM366.217 6.15039H369.762V22H366.217V11.4238L360.006 22H356.461V6.15039H360.006V16.7266L366.217 6.15039ZM375.694 18.25C376.358 18.25 376.871 18.4404 377.232 18.8213C377.594 19.1924 377.774 19.6611 377.774 20.2275C377.774 20.7842 377.594 21.248 377.232 21.6191C376.871 21.9805 376.358 22.1611 375.694 22.1611C375.06 22.1611 374.557 21.9805 374.186 21.6191C373.814 21.2578 373.629 20.7939 373.629 20.2275C373.629 19.6611 373.81 19.1924 374.171 18.8213C374.532 18.4404 375.04 18.25 375.694 18.25ZM375.694 5.81348C376.358 5.81348 376.871 6.00391 377.232 6.38477C377.594 6.75586 377.774 7.22461 377.774 7.79102C377.774 8.34766 377.594 8.81152 377.232 9.18262C376.871 9.54395 376.358 9.72461 375.694 9.72461C375.06 9.72461 374.557 9.54395 374.186 9.18262C373.814 8.82129 373.629 8.35742 373.629 7.79102C373.629 7.22461 373.81 6.75586 374.171 6.38477C374.532 6.00391 375.04 5.81348 375.694 5.81348Z" fill="#FB929E"/>
</g>
<defs>
<filter id="filter0_i" x="0.474609" y="0.671875" width="377.3" height="30.0449" filterUnits="userSpaceOnUse" color-interpolation-filters="sRGB">
<feFlood flood-opacity="0" result="BackgroundImageFix"/>
<feBlend mode="normal" in="SourceGraphic" in2="BackgroundImageFix" result="shape"/>
<feColorMatrix in="SourceAlpha" type="matrix" values="0 0 0 0 0 0 0 0 0 0 0 0 0 0 0 0 0 0 127 0" result="hardAlpha"/>
<feOffset dy="4"/>
<feGaussianBlur stdDeviation="2"/>
<feComposite in2="hardAlpha" operator="arithmetic" k2="-1" k3="1"/>
<feColorMatrix type="matrix" values="0 0 0 0 0 0 0 0 0 0 0 0 0 0 0 0 0 0 0.25 0"/>
<feBlend mode="normal" in2="shape" result="effect1_innerShadow"/>
</filter>
</defs>
</svg>
