<svg width="413" height="36" viewBox="0 0 413 36" fill="none" xmlns="http://www.w3.org/2000/svg">
<g filter="url(#filter0_i)">
<path d="M21.6719 0.875H27.6016V35H21.6719V10.6953L6.69531 35H0.765625V0.875H6.69531V25.2031L21.6719 0.875ZM53.3594 16.5781C53.3594 17.7031 53.0156 18.7422 52.3281 19.6953C51.6562 20.6328 50.7031 21.3828 49.4688 21.9453C52.375 22.9609 53.8281 24.9219 53.8281 27.8281C53.8281 30.1562 52.8828 32.0156 50.9922 33.4062C49.1016 34.7812 46.5703 35.4688 43.3984 35.4688C41.4609 35.4688 39.6953 35.1484 38.1016 34.5078C36.5078 33.8516 35.2656 32.9297 34.375 31.7422C33.4844 30.5391 33.0391 29.1172 33.0391 27.4766H38.7109C38.7109 28.5078 39.1719 29.375 40.0938 30.0781C41.0156 30.7656 42.1797 31.1094 43.5859 31.1094C44.9766 31.1094 46.0781 30.7891 46.8906 30.1484C47.7188 29.4922 48.1328 28.6406 48.1328 27.5938C48.1328 26.3594 47.7734 25.4688 47.0547 24.9219C46.3359 24.375 45.2266 24.1016 43.7266 24.1016H39.6484V20H43.8672C46.4141 19.9688 47.6875 18.9219 47.6875 16.8594C47.6875 15.8281 47.3203 15.0234 46.5859 14.4453C45.8516 13.8672 44.8438 13.5781 43.5625 13.5781C42.3125 13.5781 41.2578 13.8906 40.3984 14.5156C39.5391 15.125 39.1094 15.8984 39.1094 16.8359H33.4375C33.4375 14.6016 34.375 12.7734 36.25 11.3516C38.125 9.91406 40.5078 9.19531 43.3984 9.19531C46.5391 9.19531 48.9844 9.83594 50.7344 11.1172C52.4844 12.3984 53.3594 14.2188 53.3594 16.5781ZM73.7266 27.9922L81.2266 9.64062H88.3516V35H82.6562V18.2188L75.6719 35H71.8047L64.7969 18.125V35H59.1016V9.64062H66.2734L73.7266 27.9922ZM105.93 35.4688C102.32 35.4688 99.3906 34.3359 97.1406 32.0703C94.9062 29.7891 93.7891 26.7578 93.7891 22.9766V22.2734C93.7891 19.7422 94.2734 17.4844 95.2422 15.5C96.2266 13.5 97.6016 11.9453 99.3672 10.8359C101.133 9.72656 103.102 9.17188 105.273 9.17188C108.727 9.17188 111.391 10.2734 113.266 12.4766C115.156 14.6797 116.102 17.7969 116.102 21.8281V24.125H99.5312C99.7031 26.2188 100.398 27.875 101.617 29.0938C102.852 30.3125 104.398 30.9219 106.258 30.9219C108.867 30.9219 110.992 29.8672 112.633 27.7578L115.703 30.6875C114.688 32.2031 113.328 33.3828 111.625 34.2266C109.938 35.0547 108.039 35.4688 105.93 35.4688ZM105.25 13.7422C103.688 13.7422 102.422 14.2891 101.453 15.3828C100.5 16.4766 99.8906 18 99.625 19.9531H110.477V19.5312C110.352 17.625 109.844 16.1875 108.953 15.2188C108.062 14.2344 106.828 13.7422 105.25 13.7422ZM142.023 35H136.328V24.7578H126.461V35H120.766V9.64062H126.461V20.2109H136.328V9.64062H142.023V35ZM159.273 35.4688C155.664 35.4688 152.734 34.3359 150.484 32.0703C148.25 29.7891 147.133 26.7578 147.133 22.9766V22.2734C147.133 19.7422 147.617 17.4844 148.586 15.5C149.57 13.5 150.945 11.9453 152.711 10.8359C154.477 9.72656 156.445 9.17188 158.617 9.17188C162.07 9.17188 164.734 10.2734 166.609 12.4766C168.5 14.6797 169.445 17.7969 169.445 21.8281V24.125H152.875C153.047 26.2188 153.742 27.875 154.961 29.0938C156.195 30.3125 157.742 30.9219 159.602 30.9219C162.211 30.9219 164.336 29.8672 165.977 27.7578L169.047 30.6875C168.031 32.2031 166.672 33.3828 164.969 34.2266C163.281 35.0547 161.383 35.4688 159.273 35.4688ZM158.594 13.7422C157.031 13.7422 155.766 14.2891 154.797 15.3828C153.844 16.4766 153.234 18 152.969 19.9531H163.82V19.5312C163.695 17.625 163.188 16.1875 162.297 15.2188C161.406 14.2344 160.172 13.7422 158.594 13.7422ZM195.367 35H189.672V24.7578H179.805V35H174.109V9.64062H179.805V20.2109H189.672V9.64062H195.367V35ZM217.281 9.64062H222.953V35H217.281V18.0781L207.344 35H201.672V9.64062H207.344V26.5625L217.281 9.64062ZM240.18 35.4688C236.57 35.4688 233.641 34.3359 231.391 32.0703C229.156 29.7891 228.039 26.7578 228.039 22.9766V22.2734C228.039 19.7422 228.523 17.4844 229.492 15.5C230.477 13.5 231.852 11.9453 233.617 10.8359C235.383 9.72656 237.352 9.17188 239.523 9.17188C242.977 9.17188 245.641 10.2734 247.516 12.4766C249.406 14.6797 250.352 17.7969 250.352 21.8281V24.125H233.781C233.953 26.2188 234.648 27.875 235.867 29.0938C237.102 30.3125 238.648 30.9219 240.508 30.9219C243.117 30.9219 245.242 29.8672 246.883 27.7578L249.953 30.6875C248.938 32.2031 247.578 33.3828 245.875 34.2266C244.188 35.0547 242.289 35.4688 240.18 35.4688ZM239.5 13.7422C237.938 13.7422 236.672 14.2891 235.703 15.3828C234.75 16.4766 234.141 18 233.875 19.9531H244.727V19.5312C244.602 17.625 244.094 16.1875 243.203 15.2188C242.312 14.2344 241.078 13.7422 239.5 13.7422ZM277.164 30.9219C278.586 30.9219 279.766 30.5078 280.703 29.6797C281.641 28.8516 282.141 27.8281 282.203 26.6094H287.57C287.508 28.1875 287.016 29.6641 286.094 31.0391C285.172 32.3984 283.922 33.4766 282.344 34.2734C280.766 35.0703 279.062 35.4688 277.234 35.4688C273.688 35.4688 270.875 34.3203 268.797 32.0234C266.719 29.7266 265.68 26.5547 265.68 22.5078V21.9219C265.68 18.0625 266.711 14.9766 268.773 12.6641C270.836 10.3359 273.648 9.17188 277.211 9.17188C280.227 9.17188 282.68 10.0547 284.57 11.8203C286.477 13.5703 287.477 15.875 287.57 18.7344H282.203C282.141 17.2812 281.641 16.0859 280.703 15.1484C279.781 14.2109 278.602 13.7422 277.164 13.7422C275.32 13.7422 273.898 14.4141 272.898 15.7578C271.898 17.0859 271.391 19.1094 271.375 21.8281V22.7422C271.375 25.4922 271.867 27.5469 272.852 28.9062C273.852 30.25 275.289 30.9219 277.164 30.9219ZM311.828 14.1641H303.602V35H297.906V14.1641H289.773V9.64062H311.828V14.1641ZM330.414 35C330.164 34.5156 329.945 33.7266 329.758 32.6328C327.945 34.5234 325.727 35.4688 323.102 35.4688C320.555 35.4688 318.477 34.7422 316.867 33.2891C315.258 31.8359 314.453 30.0391 314.453 27.8984C314.453 25.1953 315.453 23.125 317.453 21.6875C319.469 20.2344 322.344 19.5078 326.078 19.5078H329.57V17.8438C329.57 16.5312 329.203 15.4844 328.469 14.7031C327.734 13.9062 326.617 13.5078 325.117 13.5078C323.82 13.5078 322.758 13.8359 321.93 14.4922C321.102 15.1328 320.688 15.9531 320.688 16.9531H314.992C314.992 15.5625 315.453 14.2656 316.375 13.0625C317.297 11.8438 318.547 10.8906 320.125 10.2031C321.719 9.51562 323.492 9.17188 325.445 9.17188C328.414 9.17188 330.781 9.92188 332.547 11.4219C334.312 12.9062 335.219 15 335.266 17.7031V29.1406C335.266 31.4219 335.586 33.2422 336.227 34.6016V35H330.414ZM324.156 30.8984C325.281 30.8984 326.336 30.625 327.32 30.0781C328.32 29.5312 329.07 28.7969 329.57 27.875V23.0938H326.5C324.391 23.0938 322.805 23.4609 321.742 24.1953C320.68 24.9297 320.148 25.9688 320.148 27.3125C320.148 28.4062 320.508 29.2812 321.227 29.9375C321.961 30.5781 322.938 30.8984 324.156 30.8984ZM360.812 14.1641H352.586V35H346.891V14.1641H338.758V9.64062H360.812V14.1641ZM370.75 17.7031H376.328C378.406 17.7031 380.219 18.0625 381.766 18.7812C383.312 19.5 384.484 20.5078 385.281 21.8047C386.094 23.1016 386.5 24.6094 386.5 26.3281C386.5 28.9375 385.578 31.0312 383.734 32.6094C381.891 34.1875 379.438 34.9844 376.375 35H365.055V9.64062H370.75V17.7031ZM370.75 22.2734V30.4531H376.305C377.695 30.4531 378.789 30.1094 379.586 29.4219C380.398 28.7188 380.805 27.7266 380.805 26.4453C380.805 25.1641 380.406 24.1562 379.609 23.4219C378.828 22.6719 377.766 22.2891 376.422 22.2734H370.75ZM406.891 9.64062H412.562V35H406.891V18.0781L396.953 35H391.281V9.64062H396.953V26.5625L406.891 9.64062Z" fill="#FB929E"/>
</g>
<defs>
<filter id="filter0_i" x="0.765625" y="0.875" width="411.797" height="38.5938" filterUnits="userSpaceOnUse" color-interpolation-filters="sRGB">
<feFlood flood-opacity="0" result="BackgroundImageFix"/>
<feBlend mode="normal" in="SourceGraphic" in2="BackgroundImageFix" result="shape"/>
<feColorMatrix in="SourceAlpha" type="matrix" values="0 0 0 0 0 0 0 0 0 0 0 0 0 0 0 0 0 0 127 0" result="hardAlpha"/>
<feOffset dy="4"/>
<feGaussianBlur stdDeviation="2"/>
<feComposite in2="hardAlpha" operator="arithmetic" k2="-1" k3="1"/>
<feColorMatrix type="matrix" values="0 0 0 0 0 0 0 0 0 0 0 0 0 0 0 0 0 0 0.25 0"/>
<feBlend mode="normal" in2="shape" result="effect1_innerShadow"/>
</filter>
</defs>
</svg>
