<svg width="379" height="43" viewBox="0 0 379 43" fill="none" xmlns="http://www.w3.org/2000/svg">
<g filter="url(#filter0_i)">
<path d="M27.1719 23.8906C26.8281 27.5312 25.4844 30.375 23.1406 32.4219C20.7969 34.4531 17.6797 35.4688 13.7891 35.4688C11.0703 35.4688 8.67188 34.8281 6.59375 33.5469C4.53125 32.25 2.9375 30.4141 1.8125 28.0391C0.6875 25.6641 0.101562 22.9062 0.0546875 19.7656V16.5781C0.0546875 13.3594 0.625 10.5234 1.76562 8.07031C2.90625 5.61719 4.53906 3.72656 6.66406 2.39844C8.80469 1.07031 11.2734 0.40625 14.0703 0.40625C17.8359 0.40625 20.8672 1.42969 23.1641 3.47656C25.4609 5.52344 26.7969 8.41406 27.1719 12.1484H21.2656C20.9844 9.69531 20.2656 7.92969 19.1094 6.85156C17.9688 5.75781 16.2891 5.21094 14.0703 5.21094C11.4922 5.21094 9.50781 6.15625 8.11719 8.04688C6.74219 9.92188 6.03906 12.6797 6.00781 16.3203V19.3438C6.00781 23.0312 6.66406 25.8438 7.97656 27.7812C9.30469 29.7188 11.2422 30.6875 13.7891 30.6875C16.1172 30.6875 17.8672 30.1641 19.0391 29.1172C20.2109 28.0703 20.9531 26.3281 21.2656 23.8906H27.1719ZM30.875 22.0859C30.875 19.6016 31.3672 17.3672 32.3516 15.3828C33.3359 13.3828 34.7188 11.8516 36.5 10.7891C38.2812 9.71094 40.3281 9.17188 42.6406 9.17188C46.0625 9.17188 48.8359 10.2734 50.9609 12.4766C53.1016 14.6797 54.2578 17.6016 54.4297 21.2422L54.4531 22.5781C54.4531 25.0781 53.9688 27.3125 53 29.2812C52.0469 31.25 50.6719 32.7734 48.875 33.8516C47.0938 34.9297 45.0312 35.4688 42.6875 35.4688C39.1094 35.4688 36.2422 34.2812 34.0859 31.9062C31.9453 29.5156 30.875 26.3359 30.875 22.3672V22.0859ZM36.5703 22.5781C36.5703 25.1875 37.1094 27.2344 38.1875 28.7188C39.2656 30.1875 40.7656 30.9219 42.6875 30.9219C44.6094 30.9219 46.1016 30.1719 47.1641 28.6719C48.2422 27.1719 48.7812 24.9766 48.7812 22.0859C48.7812 19.5234 48.2266 17.4922 47.1172 15.9922C46.0234 14.4922 44.5312 13.7422 42.6406 13.7422C40.7812 13.7422 39.3047 14.4844 38.2109 15.9688C37.1172 17.4375 36.5703 19.6406 36.5703 22.5781ZM78.4766 16.5781C78.4766 17.7031 78.1328 18.7422 77.4453 19.6953C76.7734 20.6328 75.8203 21.3828 74.5859 21.9453C77.4922 22.9609 78.9453 24.9219 78.9453 27.8281C78.9453 30.1562 78 32.0156 76.1094 33.4062C74.2188 34.7812 71.6875 35.4688 68.5156 35.4688C66.5781 35.4688 64.8125 35.1484 63.2188 34.5078C61.625 33.8516 60.3828 32.9297 59.4922 31.7422C58.6016 30.5391 58.1562 29.1172 58.1562 27.4766H63.8281C63.8281 28.5078 64.2891 29.375 65.2109 30.0781C66.1328 30.7656 67.2969 31.1094 68.7031 31.1094C70.0938 31.1094 71.1953 30.7891 72.0078 30.1484C72.8359 29.4922 73.25 28.6406 73.25 27.5938C73.25 26.3594 72.8906 25.4688 72.1719 24.9219C71.4531 24.375 70.3438 24.1016 68.8438 24.1016H64.7656V20H68.9844C71.5312 19.9688 72.8047 18.9219 72.8047 16.8594C72.8047 15.8281 72.4375 15.0234 71.7031 14.4453C70.9688 13.8672 69.9609 13.5781 68.6797 13.5781C67.4297 13.5781 66.375 13.8906 65.5156 14.5156C64.6562 15.125 64.2266 15.8984 64.2266 16.8359H58.5547C58.5547 14.6016 59.4922 12.7734 61.3672 11.3516C63.2422 9.91406 65.625 9.19531 68.5156 9.19531C71.6562 9.19531 74.1016 9.83594 75.8516 11.1172C77.6016 12.3984 78.4766 14.2188 78.4766 16.5781ZM83.8906 30.4531C85.4688 28.6875 86.5234 27.0156 87.0547 25.4375C87.6016 23.8438 87.9297 21.8125 88.0391 19.3438L88.3672 9.64062H105.969V30.4531H109.484V42.5469H103.812V35H87.5469V42.5469H81.7812L81.8047 30.4531H83.8906ZM90.5703 30.4531H100.297V14.5391H93.8984L93.7344 19.3906C93.5156 24.0469 92.4609 27.7344 90.5703 30.4531ZM128.703 35C128.453 34.5156 128.234 33.7266 128.047 32.6328C126.234 34.5234 124.016 35.4688 121.391 35.4688C118.844 35.4688 116.766 34.7422 115.156 33.2891C113.547 31.8359 112.742 30.0391 112.742 27.8984C112.742 25.1953 113.742 23.125 115.742 21.6875C117.758 20.2344 120.633 19.5078 124.367 19.5078H127.859V17.8438C127.859 16.5312 127.492 15.4844 126.758 14.7031C126.023 13.9062 124.906 13.5078 123.406 13.5078C122.109 13.5078 121.047 13.8359 120.219 14.4922C119.391 15.1328 118.977 15.9531 118.977 16.9531H113.281C113.281 15.5625 113.742 14.2656 114.664 13.0625C115.586 11.8438 116.836 10.8906 118.414 10.2031C120.008 9.51562 121.781 9.17188 123.734 9.17188C126.703 9.17188 129.07 9.92188 130.836 11.4219C132.602 12.9062 133.508 15 133.555 17.7031V29.1406C133.555 31.4219 133.875 33.2422 134.516 34.6016V35H128.703ZM122.445 30.8984C123.57 30.8984 124.625 30.625 125.609 30.0781C126.609 29.5312 127.359 28.7969 127.859 27.875V23.0938H124.789C122.68 23.0938 121.094 23.4609 120.031 24.1953C118.969 24.9297 118.438 25.9688 118.438 27.3125C118.438 28.4062 118.797 29.2812 119.516 29.9375C120.25 30.5781 121.227 30.8984 122.445 30.8984ZM161 35H155.305V24.7578H145.438V35H139.742V9.64062H145.438V20.2109H155.305V9.64062H161V35ZM182.914 9.64062H188.586V35H182.914V18.0781L172.977 35H167.305V9.64062H172.977V26.5625L182.914 9.64062ZM205.812 35.4688C202.203 35.4688 199.273 34.3359 197.023 32.0703C194.789 29.7891 193.672 26.7578 193.672 22.9766V22.2734C193.672 19.7422 194.156 17.4844 195.125 15.5C196.109 13.5 197.484 11.9453 199.25 10.8359C201.016 9.72656 202.984 9.17188 205.156 9.17188C208.609 9.17188 211.273 10.2734 213.148 12.4766C215.039 14.6797 215.984 17.7969 215.984 21.8281V24.125H199.414C199.586 26.2188 200.281 27.875 201.5 29.0938C202.734 30.3125 204.281 30.9219 206.141 30.9219C208.75 30.9219 210.875 29.8672 212.516 27.7578L215.586 30.6875C214.57 32.2031 213.211 33.3828 211.508 34.2266C209.82 35.0547 207.922 35.4688 205.812 35.4688ZM205.133 13.7422C203.57 13.7422 202.305 14.2891 201.336 15.3828C200.383 16.4766 199.773 18 199.508 19.9531H210.359V19.5312C210.234 17.625 209.727 16.1875 208.836 15.2188C207.945 14.2344 206.711 13.7422 205.133 13.7422ZM242.797 30.9219C244.219 30.9219 245.398 30.5078 246.336 29.6797C247.273 28.8516 247.773 27.8281 247.836 26.6094H253.203C253.141 28.1875 252.648 29.6641 251.727 31.0391C250.805 32.3984 249.555 33.4766 247.977 34.2734C246.398 35.0703 244.695 35.4688 242.867 35.4688C239.32 35.4688 236.508 34.3203 234.43 32.0234C232.352 29.7266 231.312 26.5547 231.312 22.5078V21.9219C231.312 18.0625 232.344 14.9766 234.406 12.6641C236.469 10.3359 239.281 9.17188 242.844 9.17188C245.859 9.17188 248.312 10.0547 250.203 11.8203C252.109 13.5703 253.109 15.875 253.203 18.7344H247.836C247.773 17.2812 247.273 16.0859 246.336 15.1484C245.414 14.2109 244.234 13.7422 242.797 13.7422C240.953 13.7422 239.531 14.4141 238.531 15.7578C237.531 17.0859 237.023 19.1094 237.008 21.8281V22.7422C237.008 25.4922 237.5 27.5469 238.484 28.9062C239.484 30.25 240.922 30.9219 242.797 30.9219ZM277.461 14.1641H269.234V35H263.539V14.1641H255.406V9.64062H277.461V14.1641ZM296.047 35C295.797 34.5156 295.578 33.7266 295.391 32.6328C293.578 34.5234 291.359 35.4688 288.734 35.4688C286.188 35.4688 284.109 34.7422 282.5 33.2891C280.891 31.8359 280.086 30.0391 280.086 27.8984C280.086 25.1953 281.086 23.125 283.086 21.6875C285.102 20.2344 287.977 19.5078 291.711 19.5078H295.203V17.8438C295.203 16.5312 294.836 15.4844 294.102 14.7031C293.367 13.9062 292.25 13.5078 290.75 13.5078C289.453 13.5078 288.391 13.8359 287.562 14.4922C286.734 15.1328 286.32 15.9531 286.32 16.9531H280.625C280.625 15.5625 281.086 14.2656 282.008 13.0625C282.93 11.8438 284.18 10.8906 285.758 10.2031C287.352 9.51562 289.125 9.17188 291.078 9.17188C294.047 9.17188 296.414 9.92188 298.18 11.4219C299.945 12.9062 300.852 15 300.898 17.7031V29.1406C300.898 31.4219 301.219 33.2422 301.859 34.6016V35H296.047ZM289.789 30.8984C290.914 30.8984 291.969 30.625 292.953 30.0781C293.953 29.5312 294.703 28.7969 295.203 27.875V23.0938H292.133C290.023 23.0938 288.438 23.4609 287.375 24.1953C286.312 24.9297 285.781 25.9688 285.781 27.3125C285.781 28.4062 286.141 29.2812 286.859 29.9375C287.594 30.5781 288.57 30.8984 289.789 30.8984ZM326.445 14.1641H318.219V35H312.523V14.1641H304.391V9.64062H326.445V14.1641ZM336.383 17.7031H341.961C344.039 17.7031 345.852 18.0625 347.398 18.7812C348.945 19.5 350.117 20.5078 350.914 21.8047C351.727 23.1016 352.133 24.6094 352.133 26.3281C352.133 28.9375 351.211 31.0312 349.367 32.6094C347.523 34.1875 345.07 34.9844 342.008 35H330.688V9.64062H336.383V17.7031ZM336.383 22.2734V30.4531H341.938C343.328 30.4531 344.422 30.1094 345.219 29.4219C346.031 28.7188 346.438 27.7266 346.438 26.4453C346.438 25.1641 346.039 24.1562 345.242 23.4219C344.461 22.6719 343.398 22.2891 342.055 22.2734H336.383ZM372.523 9.64062H378.195V35H372.523V18.0781L362.586 35H356.914V9.64062H362.586V26.5625L372.523 9.64062Z" fill="#FB929E"/>
</g>
<defs>
<filter id="filter0_i" x="0.0546875" y="0.40625" width="378.141" height="46.1406" filterUnits="userSpaceOnUse" color-interpolation-filters="sRGB">
<feFlood flood-opacity="0" result="BackgroundImageFix"/>
<feBlend mode="normal" in="SourceGraphic" in2="BackgroundImageFix" result="shape"/>
<feColorMatrix in="SourceAlpha" type="matrix" values="0 0 0 0 0 0 0 0 0 0 0 0 0 0 0 0 0 0 127 0" result="hardAlpha"/>
<feOffset dy="4"/>
<feGaussianBlur stdDeviation="2"/>
<feComposite in2="hardAlpha" operator="arithmetic" k2="-1" k3="1"/>
<feColorMatrix type="matrix" values="0 0 0 0 0 0 0 0 0 0 0 0 0 0 0 0 0 0 0.25 0"/>
<feBlend mode="normal" in2="shape" result="effect1_innerShadow"/>
</filter>
</defs>
</svg>
