<svg width="668" height="64" viewBox="0 0 668 64" fill="none" xmlns="http://www.w3.org/2000/svg">
<g filter="url(#filter0_d)">
<rect width="660" height="55" rx="20" transform="matrix(1 0 0 -1 4 55.86)" fill="#FFDFDF"/>
</g>
<g filter="url(#filter1_i)">
<path d="M293.512 40V18.6719H300.821C303.233 18.6719 305.069 19.1553 306.329 20.1221C307.589 21.0889 308.219 22.5293 308.219 24.4434C308.219 25.4199 307.955 26.2988 307.428 27.0801C306.9 27.8613 306.129 28.4668 305.113 28.8965C306.266 29.209 307.154 29.7998 307.779 30.6689C308.414 31.5283 308.731 32.5635 308.731 33.7744C308.731 35.7764 308.087 37.3145 306.798 38.3887C305.519 39.4629 303.683 40 301.29 40H293.512ZM297.218 30.376V37.041H301.334C302.496 37.041 303.404 36.7529 304.059 36.1768C304.713 35.6006 305.04 34.7998 305.04 33.7744C305.04 31.5576 303.907 30.4248 301.642 30.376H297.218ZM297.218 27.6514H300.851C302.003 27.6514 302.901 27.3926 303.546 26.875C304.2 26.3477 304.527 25.6055 304.527 24.6484C304.527 23.5938 304.225 22.832 303.619 22.3633C303.023 21.8945 302.091 21.6602 300.821 21.6602H297.218V27.6514ZM311.427 31.9287C311.427 30.376 311.734 28.9795 312.35 27.7393C312.965 26.4893 313.829 25.5322 314.942 24.8682C316.056 24.1943 317.335 23.8574 318.78 23.8574C320.919 23.8574 322.652 24.5459 323.98 25.9229C325.318 27.2998 326.041 29.126 326.148 31.4014L326.163 32.2363C326.163 33.7988 325.86 35.1953 325.255 36.4258C324.659 37.6562 323.8 38.6084 322.677 39.2822C321.563 39.9561 320.274 40.293 318.81 40.293C316.573 40.293 314.781 39.5508 313.434 38.0664C312.096 36.5723 311.427 34.585 311.427 32.1045V31.9287ZM314.986 32.2363C314.986 33.8672 315.323 35.1465 315.997 36.0742C316.671 36.9922 317.608 37.4512 318.81 37.4512C320.011 37.4512 320.943 36.9824 321.607 36.0449C322.281 35.1074 322.618 33.7354 322.618 31.9287C322.618 30.3271 322.271 29.0576 321.578 28.1201C320.895 27.1826 319.962 26.7139 318.78 26.7139C317.618 26.7139 316.695 27.1777 316.012 28.1055C315.328 29.0234 314.986 30.4004 314.986 32.2363ZM339.068 24.1504H342.613V40H339.068V29.4238L332.857 40H329.312V24.1504H332.857V34.7266L339.068 24.1504ZM340.738 18.0713C340.738 19.3018 340.309 20.2979 339.449 21.0596C338.59 21.8213 337.442 22.2021 336.007 22.2021C334.571 22.2021 333.424 21.8213 332.564 21.0596C331.705 20.2979 331.275 19.3018 331.275 18.0713H333.941C333.941 18.7158 334.122 19.2188 334.483 19.5801C334.854 19.9316 335.362 20.1074 336.007 20.1074C336.651 20.1074 337.154 19.9316 337.516 19.5801C337.877 19.2188 338.058 18.7158 338.058 18.0713H340.738ZM358.873 26.9775H353.731V40H350.172V26.9775H345.089V24.1504H358.873V26.9775ZM371.148 24.1504H374.693V40H371.148V29.4238L364.938 40H361.393V24.1504H364.938V34.7266L371.148 24.1504Z" fill="#FB929E"/>
</g>
<defs>
<filter id="filter0_d" x="0" y="0.859985" width="668" height="63" filterUnits="userSpaceOnUse" color-interpolation-filters="sRGB">
<feFlood flood-opacity="0" result="BackgroundImageFix"/>
<feColorMatrix in="SourceAlpha" type="matrix" values="0 0 0 0 0 0 0 0 0 0 0 0 0 0 0 0 0 0 127 0"/>
<feOffset dy="4"/>
<feGaussianBlur stdDeviation="2"/>
<feColorMatrix type="matrix" values="0 0 0 0 0 0 0 0 0 0 0 0 0 0 0 0 0 0 0.25 0"/>
<feBlend mode="normal" in2="BackgroundImageFix" result="effect1_dropShadow"/>
<feBlend mode="normal" in="SourceGraphic" in2="effect1_dropShadow" result="shape"/>
</filter>
<filter id="filter1_i" x="293.512" y="18.0713" width="81.1816" height="26.2217" filterUnits="userSpaceOnUse" color-interpolation-filters="sRGB">
<feFlood flood-opacity="0" result="BackgroundImageFix"/>
<feBlend mode="normal" in="SourceGraphic" in2="BackgroundImageFix" result="shape"/>
<feColorMatrix in="SourceAlpha" type="matrix" values="0 0 0 0 0 0 0 0 0 0 0 0 0 0 0 0 0 0 127 0" result="hardAlpha"/>
<feOffset dy="4"/>
<feGaussianBlur stdDeviation="2"/>
<feComposite in2="hardAlpha" operator="arithmetic" k2="-1" k3="1"/>
<feColorMatrix type="matrix" values="0 0 0 0 0 0 0 0 0 0 0 0 0 0 0 0 0 0 0.25 0"/>
<feBlend mode="normal" in2="shape" result="effect1_innerShadow"/>
</filter>
</defs>
</svg>
