<svg width="306" height="63" viewBox="0 0 306 63" fill="none" xmlns="http://www.w3.org/2000/svg">
<g filter="url(#filter0_d)">
<rect width="298" height="55" rx="20" transform="matrix(1 0 0 -1 4 55)" fill="#FFDFDF"/>
</g>
<g filter="url(#filter1_i)">
<path d="M112.512 39V17.6719H119.821C122.233 17.6719 124.069 18.1553 125.329 19.1221C126.589 20.0889 127.219 21.5293 127.219 23.4434C127.219 24.4199 126.955 25.2988 126.428 26.0801C125.9 26.8613 125.129 27.4668 124.113 27.8965C125.266 28.209 126.154 28.7998 126.779 29.6689C127.414 30.5283 127.731 31.5635 127.731 32.7744C127.731 34.7764 127.087 36.3145 125.798 37.3887C124.519 38.4629 122.683 39 120.29 39H112.512ZM116.218 29.376V36.041H120.334C121.496 36.041 122.404 35.7529 123.059 35.1768C123.713 34.6006 124.04 33.7998 124.04 32.7744C124.04 30.5576 122.907 29.4248 120.642 29.376H116.218ZM116.218 26.6514H119.851C121.003 26.6514 121.901 26.3926 122.546 25.875C123.2 25.3477 123.527 24.6055 123.527 23.6484C123.527 22.5938 123.225 21.832 122.619 21.3633C122.023 20.8945 121.091 20.6602 119.821 20.6602H116.218V26.6514ZM130.427 30.9287C130.427 29.376 130.734 27.9795 131.35 26.7393C131.965 25.4893 132.829 24.5322 133.942 23.8682C135.056 23.1943 136.335 22.8574 137.78 22.8574C139.919 22.8574 141.652 23.5459 142.98 24.9229C144.318 26.2998 145.041 28.126 145.148 30.4014L145.163 31.2363C145.163 32.7988 144.86 34.1953 144.255 35.4258C143.659 36.6562 142.8 37.6084 141.677 38.2822C140.563 38.9561 139.274 39.293 137.81 39.293C135.573 39.293 133.781 38.5508 132.434 37.0664C131.096 35.5723 130.427 33.585 130.427 31.1045V30.9287ZM133.986 31.2363C133.986 32.8672 134.323 34.1465 134.997 35.0742C135.671 35.9922 136.608 36.4512 137.81 36.4512C139.011 36.4512 139.943 35.9824 140.607 35.0449C141.281 34.1074 141.618 32.7354 141.618 30.9287C141.618 29.3271 141.271 28.0576 140.578 27.1201C139.895 26.1826 138.962 25.7139 137.78 25.7139C136.618 25.7139 135.695 26.1777 135.012 27.1055C134.328 28.0234 133.986 29.4004 133.986 31.2363ZM158.068 23.1504H161.613V39H158.068V28.4238L151.857 39H148.312V23.1504H151.857V33.7266L158.068 23.1504ZM159.738 17.0713C159.738 18.3018 159.309 19.2979 158.449 20.0596C157.59 20.8213 156.442 21.2021 155.007 21.2021C153.571 21.2021 152.424 20.8213 151.564 20.0596C150.705 19.2979 150.275 18.3018 150.275 17.0713H152.941C152.941 17.7158 153.122 18.2188 153.483 18.5801C153.854 18.9316 154.362 19.1074 155.007 19.1074C155.651 19.1074 156.154 18.9316 156.516 18.5801C156.877 18.2188 157.058 17.7158 157.058 17.0713H159.738ZM177.873 25.9775H172.731V39H169.172V25.9775H164.089V23.1504H177.873V25.9775ZM190.148 23.1504H193.693V39H190.148V28.4238L183.938 39H180.393V23.1504H183.938V33.7266L190.148 23.1504Z" fill="#FB929E"/>
</g>
<defs>
<filter id="filter0_d" x="0" y="0" width="306" height="63" filterUnits="userSpaceOnUse" color-interpolation-filters="sRGB">
<feFlood flood-opacity="0" result="BackgroundImageFix"/>
<feColorMatrix in="SourceAlpha" type="matrix" values="0 0 0 0 0 0 0 0 0 0 0 0 0 0 0 0 0 0 127 0"/>
<feOffset dy="4"/>
<feGaussianBlur stdDeviation="2"/>
<feColorMatrix type="matrix" values="0 0 0 0 0 0 0 0 0 0 0 0 0 0 0 0 0 0 0.25 0"/>
<feBlend mode="normal" in2="BackgroundImageFix" result="effect1_dropShadow"/>
<feBlend mode="normal" in="SourceGraphic" in2="effect1_dropShadow" result="shape"/>
</filter>
<filter id="filter1_i" x="112.512" y="17.0713" width="81.1816" height="26.2217" filterUnits="userSpaceOnUse" color-interpolation-filters="sRGB">
<feFlood flood-opacity="0" result="BackgroundImageFix"/>
<feBlend mode="normal" in="SourceGraphic" in2="BackgroundImageFix" result="shape"/>
<feColorMatrix in="SourceAlpha" type="matrix" values="0 0 0 0 0 0 0 0 0 0 0 0 0 0 0 0 0 0 127 0" result="hardAlpha"/>
<feOffset dy="4"/>
<feGaussianBlur stdDeviation="2"/>
<feComposite in2="hardAlpha" operator="arithmetic" k2="-1" k3="1"/>
<feColorMatrix type="matrix" values="0 0 0 0 0 0 0 0 0 0 0 0 0 0 0 0 0 0 0.25 0"/>
<feBlend mode="normal" in2="shape" result="effect1_innerShadow"/>
</filter>
</defs>
</svg>
