<svg width="105" height="33" viewBox="0 0 105 33" fill="none" xmlns="http://www.w3.org/2000/svg">
<g filter="url(#filter0_d)">
<rect x="4" width="97" height="25" rx="10" fill="#FFF6F6"/>
</g>
<g filter="url(#filter1_i)">
<path d="M21.459 21V4.64844H27.063C28.9123 4.64844 30.3198 5.01904 31.2856 5.76025C32.2515 6.50146 32.7344 7.60579 32.7344 9.07324C32.7344 9.82194 32.5322 10.4958 32.1279 11.0947C31.7236 11.6937 31.1322 12.1579 30.3535 12.4873C31.237 12.7269 31.9183 13.1799 32.3975 13.8462C32.8841 14.505 33.1274 15.2987 33.1274 16.2271C33.1274 17.7619 32.6333 18.9411 31.645 19.7646C30.6642 20.5882 29.2567 21 27.4224 21H21.459ZM24.3003 13.6216V18.7314H27.4561C28.347 18.7314 29.0433 18.5106 29.5449 18.0688C30.0465 17.6271 30.2974 17.0132 30.2974 16.2271C30.2974 14.5275 29.4289 13.659 27.6919 13.6216H24.3003ZM24.3003 11.5327H27.0854C27.9689 11.5327 28.6577 11.3343 29.1519 10.9375C29.6535 10.5332 29.9043 9.96419 29.9043 9.23047C29.9043 8.42188 29.6722 7.83789 29.208 7.47852C28.7513 7.11914 28.0363 6.93945 27.063 6.93945H24.3003V11.5327ZM35.1938 14.812C35.1938 13.6216 35.4297 12.5509 35.9014 11.6001C36.373 10.6418 37.0356 9.90804 37.8892 9.39893C38.7427 8.88232 39.7235 8.62402 40.8315 8.62402C42.4712 8.62402 43.8001 9.15186 44.8184 10.2075C45.8441 11.2632 46.3981 12.6632 46.4805 14.4077L46.4917 15.0479C46.4917 16.2458 46.2596 17.3164 45.7954 18.2598C45.3387 19.2031 44.6799 19.9331 43.8188 20.4497C42.9653 20.9663 41.9771 21.2246 40.854 21.2246C39.1395 21.2246 37.7656 20.6556 36.7324 19.5176C35.7067 18.3721 35.1938 16.8485 35.1938 14.9468V14.812ZM37.9229 15.0479C37.9229 16.2982 38.1812 17.279 38.6978 17.9902C39.2144 18.694 39.9331 19.0459 40.854 19.0459C41.7749 19.0459 42.4899 18.6865 42.999 17.9678C43.5156 17.249 43.7739 16.1971 43.7739 14.812C43.7739 13.5841 43.5081 12.6108 42.9766 11.8921C42.4525 11.1733 41.7375 10.814 40.8315 10.814C39.9406 10.814 39.2331 11.1696 38.709 11.8809C38.1849 12.5846 37.9229 13.6403 37.9229 15.0479ZM56.3857 8.84863H59.1035V21H56.3857V12.8916L51.624 21H48.9062V8.84863H51.624V16.957L56.3857 8.84863ZM57.666 4.18799C57.666 5.13135 57.3366 5.89502 56.6777 6.479C56.0189 7.06299 55.1392 7.35498 54.0386 7.35498C52.938 7.35498 52.0583 7.06299 51.3994 6.479C50.7406 5.89502 50.4111 5.13135 50.4111 4.18799H52.4551C52.4551 4.68213 52.5936 5.06771 52.8706 5.34473C53.1551 5.61426 53.5444 5.74902 54.0386 5.74902C54.5327 5.74902 54.9183 5.61426 55.1953 5.34473C55.4723 5.06771 55.6108 4.68213 55.6108 4.18799H57.666ZM71.5693 11.0161H67.6274V21H64.8984V11.0161H61.0015V8.84863H71.5693V11.0161ZM80.9805 8.84863H83.6982V21H80.9805V12.8916L76.2188 21H73.501V8.84863H76.2188V16.957L80.9805 8.84863Z" fill="#FB929E"/>
</g>
<defs>
<filter id="filter0_d" x="0" y="0" width="105" height="33" filterUnits="userSpaceOnUse" color-interpolation-filters="sRGB">
<feFlood flood-opacity="0" result="BackgroundImageFix"/>
<feColorMatrix in="SourceAlpha" type="matrix" values="0 0 0 0 0 0 0 0 0 0 0 0 0 0 0 0 0 0 127 0"/>
<feOffset dy="4"/>
<feGaussianBlur stdDeviation="2"/>
<feColorMatrix type="matrix" values="0 0 0 0 0 0 0 0 0 0 0 0 0 0 0 0 0 0 0.25 0"/>
<feBlend mode="normal" in2="BackgroundImageFix" result="effect1_dropShadow"/>
<feBlend mode="normal" in="SourceGraphic" in2="effect1_dropShadow" result="shape"/>
</filter>
<filter id="filter1_i" x="21.459" y="4.18799" width="62.2393" height="21.0366" filterUnits="userSpaceOnUse" color-interpolation-filters="sRGB">
<feFlood flood-opacity="0" result="BackgroundImageFix"/>
<feBlend mode="normal" in="SourceGraphic" in2="BackgroundImageFix" result="shape"/>
<feColorMatrix in="SourceAlpha" type="matrix" values="0 0 0 0 0 0 0 0 0 0 0 0 0 0 0 0 0 0 127 0" result="hardAlpha"/>
<feOffset dy="4"/>
<feGaussianBlur stdDeviation="2"/>
<feComposite in2="hardAlpha" operator="arithmetic" k2="-1" k3="1"/>
<feColorMatrix type="matrix" values="0 0 0 0 0 0 0 0 0 0 0 0 0 0 0 0 0 0 0.25 0"/>
<feBlend mode="normal" in2="shape" result="effect1_innerShadow"/>
</filter>
</defs>
</svg>
