<svg width="668" height="63" viewBox="0 0 668 63" fill="none" xmlns="http://www.w3.org/2000/svg">
<g filter="url(#filter0_d)">
<rect width="660" height="55" rx="20" transform="matrix(1 0 0 -1 4 55)" fill="#FFDFDF"/>
</g>
<g filter="url(#filter1_i)">
<path d="M198.284 29.8926C198.284 31.9824 197.923 33.8184 197.2 35.4004C196.478 36.9727 195.442 38.1836 194.095 39.0332C192.757 39.873 191.214 40.293 189.466 40.293C187.737 40.293 186.194 39.873 184.837 39.0332C183.489 38.1836 182.444 36.9775 181.702 35.415C180.97 33.8525 180.599 32.0508 180.589 30.0098V28.8086C180.589 26.7285 180.955 24.8926 181.688 23.3008C182.43 21.709 183.47 20.4932 184.808 19.6533C186.155 18.8037 187.698 18.3789 189.437 18.3789C191.175 18.3789 192.713 18.7988 194.051 19.6387C195.398 20.4688 196.438 21.6699 197.171 23.2422C197.903 24.8047 198.274 26.626 198.284 28.7061V29.8926ZM194.578 28.7793C194.578 26.416 194.129 24.6045 193.23 23.3447C192.342 22.085 191.077 21.4551 189.437 21.4551C187.835 21.4551 186.58 22.085 185.672 23.3447C184.773 24.5947 184.314 26.3672 184.295 28.6621V29.8926C184.295 32.2363 184.749 34.0479 185.657 35.3271C186.575 36.6064 187.845 37.2461 189.466 37.2461C191.106 37.2461 192.366 36.6211 193.245 35.3711C194.134 34.1211 194.578 32.2949 194.578 29.8926V28.7793ZM215.071 40H211.512V27.0215H205.33V40H201.771V24.1504H215.071V40ZM224.402 34.9023L227.625 24.1504H231.419L225.12 42.4023C224.153 45.0684 222.513 46.4014 220.198 46.4014C219.681 46.4014 219.109 46.3135 218.484 46.1377V43.3838L219.158 43.4277C220.057 43.4277 220.73 43.2617 221.18 42.9297C221.639 42.6074 222 42.0605 222.264 41.2891L222.776 39.9268L217.21 24.1504H221.048L224.402 34.9023ZM240.94 25.0293C242.933 25.0293 244.529 25.6982 245.73 27.0361C246.932 28.3643 247.532 30.1709 247.532 32.4561V32.6318C247.532 34.917 246.878 36.7676 245.569 38.1836C244.271 39.5996 242.503 40.3076 240.267 40.3076C238.089 40.3076 236.331 39.585 234.993 38.1396C233.655 36.6943 232.986 34.7217 232.986 32.2217V31.1963C232.986 27.7783 233.592 25.0732 234.803 23.0811C236.014 21.0889 237.82 19.8438 240.223 19.3457C241.57 19.0723 242.439 18.7842 242.83 18.4814C243.23 18.1689 243.431 17.749 243.431 17.2217H246.302C246.302 18.208 246.141 19.0088 245.818 19.624C245.496 20.2393 245.003 20.7422 244.339 21.1328C243.675 21.5137 242.532 21.875 240.911 22.2168C239.427 22.5293 238.294 23.0859 237.513 23.8867C236.741 24.6875 236.224 25.7959 235.96 27.2119C237.376 25.7568 239.036 25.0293 240.94 25.0293ZM240.237 27.8857C239.085 27.8857 238.182 28.2764 237.527 29.0576C236.873 29.8291 236.546 31.0205 236.546 32.6318C236.546 34.1553 236.868 35.3418 237.513 36.1914C238.157 37.041 239.075 37.4658 240.267 37.4658C241.448 37.4658 242.361 37.041 243.006 36.1914C243.66 35.332 243.987 34.043 243.987 32.3242C243.987 30.957 243.66 29.8779 243.006 29.0869C242.361 28.2861 241.438 27.8857 240.237 27.8857ZM263.792 24.1504V40H260.232V27.0215H255.75L255.457 32.5439C255.271 35.2002 254.759 37.1094 253.919 38.2715C253.089 39.4238 251.814 40 250.096 40H248.997L248.982 37.041L249.715 36.9678C250.496 36.8604 251.062 36.3867 251.414 35.5469C251.775 34.6973 252.005 33.1543 252.103 30.918L252.396 24.1504H263.792ZM277.474 24.1504H281.019V40H277.474V29.4238L271.263 40H267.718V24.1504H271.263V34.7266L277.474 24.1504ZM290.438 33.7305H288.636V40H285.076V24.1504H288.636V30.4785H290.203L294.583 24.1504H298.978L293.25 31.7383L299.461 40H294.832L290.438 33.7305ZM299.9 31.9287C299.9 30.376 300.208 28.9795 300.823 27.7393C301.438 26.4893 302.303 25.5322 303.416 24.8682C304.529 24.1943 305.809 23.8574 307.254 23.8574C309.393 23.8574 311.126 24.5459 312.454 25.9229C313.792 27.2998 314.515 29.126 314.622 31.4014L314.637 32.2363C314.637 33.7988 314.334 35.1953 313.729 36.4258C313.133 37.6562 312.273 38.6084 311.15 39.2822C310.037 39.9561 308.748 40.293 307.283 40.293C305.047 40.293 303.255 39.5508 301.907 38.0664C300.569 36.5723 299.9 34.585 299.9 32.1045V31.9287ZM303.46 32.2363C303.46 33.8672 303.797 35.1465 304.471 36.0742C305.145 36.9922 306.082 37.4512 307.283 37.4512C308.484 37.4512 309.417 36.9824 310.081 36.0449C310.755 35.1074 311.092 33.7354 311.092 31.9287C311.092 30.3271 310.745 29.0576 310.052 28.1201C309.368 27.1826 308.436 26.7139 307.254 26.7139C306.092 26.7139 305.169 27.1777 304.485 28.1055C303.802 29.0234 303.46 30.4004 303.46 32.2363ZM317.918 40V24.1504H324.349C326.517 24.1504 328.167 24.5312 329.3 25.293C330.433 26.0449 330.999 27.1289 330.999 28.5449C330.999 29.2773 330.77 29.9365 330.311 30.5225C329.861 31.0986 329.192 31.543 328.304 31.8555C329.339 32.0703 330.159 32.5049 330.765 33.1592C331.37 33.8135 331.673 34.585 331.673 35.4736C331.673 36.9482 331.126 38.0713 330.032 38.8428C328.948 39.6143 327.386 40 325.345 40H317.918ZM321.478 33.2471V37.1875H325.374C327.2 37.1875 328.113 36.5332 328.113 35.2246C328.113 33.9062 327.186 33.2471 325.33 33.2471H321.478ZM321.478 30.6982H324.407C326.429 30.6982 327.439 30.1025 327.439 28.9111C327.439 27.6611 326.482 27.0166 324.568 26.9775H321.478V30.6982ZM344.227 40C344.07 39.6973 343.934 39.2041 343.816 38.5205C342.684 39.7021 341.297 40.293 339.656 40.293C338.064 40.293 336.766 39.8389 335.76 38.9307C334.754 38.0225 334.251 36.8994 334.251 35.5615C334.251 33.8721 334.876 32.5781 336.126 31.6797C337.386 30.7715 339.183 30.3174 341.517 30.3174H343.699V29.2773C343.699 28.457 343.47 27.8027 343.011 27.3145C342.552 26.8164 341.854 26.5674 340.916 26.5674C340.105 26.5674 339.441 26.7725 338.924 27.1826C338.406 27.583 338.147 28.0957 338.147 28.7207H334.588C334.588 27.8516 334.876 27.041 335.452 26.2891C336.028 25.5273 336.81 24.9316 337.796 24.502C338.792 24.0723 339.9 23.8574 341.121 23.8574C342.977 23.8574 344.456 24.3262 345.56 25.2637C346.663 26.1914 347.229 27.5 347.259 29.1895V36.3379C347.259 37.7637 347.459 38.9014 347.859 39.751V40H344.227ZM340.315 37.4365C341.019 37.4365 341.678 37.2656 342.293 36.9238C342.918 36.582 343.387 36.123 343.699 35.5469V32.5586H341.78C340.462 32.5586 339.471 32.7881 338.807 33.2471C338.143 33.7061 337.811 34.3555 337.811 35.1953C337.811 35.8789 338.035 36.4258 338.484 36.8359C338.943 37.2363 339.554 37.4365 340.315 37.4365ZM363.226 26.9775H358.084V40H354.524V26.9775H349.441V24.1504H363.226V26.9775ZM369.437 29.1895H372.923C374.222 29.1895 375.354 29.4141 376.321 29.8633C377.288 30.3125 378.021 30.9424 378.519 31.7529C379.026 32.5635 379.28 33.5059 379.28 34.5801C379.28 36.2109 378.704 37.5195 377.552 38.5059C376.399 39.4922 374.866 39.9902 372.952 40H365.877V24.1504H369.437V29.1895ZM369.437 32.0459V37.1582H372.908C373.777 37.1582 374.461 36.9434 374.959 36.5137C375.467 36.0742 375.721 35.4541 375.721 34.6533C375.721 33.8525 375.472 33.2227 374.974 32.7637C374.485 32.2949 373.821 32.0557 372.981 32.0459H369.437ZM396.111 37.4512C397 37.4512 397.737 37.1924 398.323 36.6748C398.909 36.1572 399.222 35.5176 399.261 34.7559H402.615C402.576 35.7422 402.269 36.665 401.692 37.5244C401.116 38.374 400.335 39.0479 399.349 39.5459C398.362 40.0439 397.298 40.293 396.155 40.293C393.938 40.293 392.181 39.5752 390.882 38.1396C389.583 36.7041 388.934 34.7217 388.934 32.1924V31.8262C388.934 29.4141 389.578 27.4854 390.867 26.04C392.156 24.585 393.914 23.8574 396.141 23.8574C398.025 23.8574 399.559 24.4092 400.74 25.5127C401.932 26.6064 402.557 28.0469 402.615 29.834H399.261C399.222 28.9258 398.909 28.1787 398.323 27.5928C397.747 27.0068 397.01 26.7139 396.111 26.7139C394.959 26.7139 394.07 27.1338 393.445 27.9736C392.82 28.8037 392.503 30.0684 392.493 31.7676V32.3389C392.493 34.0576 392.801 35.3418 393.416 36.1914C394.041 37.0312 394.939 37.4512 396.111 37.4512ZM417.776 26.9775H412.635V40H409.075V26.9775H403.992V24.1504H417.776V26.9775ZM429.393 40C429.236 39.6973 429.1 39.2041 428.982 38.5205C427.85 39.7021 426.463 40.293 424.822 40.293C423.23 40.293 421.932 39.8389 420.926 38.9307C419.92 38.0225 419.417 36.8994 419.417 35.5615C419.417 33.8721 420.042 32.5781 421.292 31.6797C422.552 30.7715 424.349 30.3174 426.683 30.3174H428.865V29.2773C428.865 28.457 428.636 27.8027 428.177 27.3145C427.718 26.8164 427.02 26.5674 426.082 26.5674C425.271 26.5674 424.607 26.7725 424.09 27.1826C423.572 27.583 423.313 28.0957 423.313 28.7207H419.754C419.754 27.8516 420.042 27.041 420.618 26.2891C421.194 25.5273 421.976 24.9316 422.962 24.502C423.958 24.0723 425.066 23.8574 426.287 23.8574C428.143 23.8574 429.622 24.3262 430.726 25.2637C431.829 26.1914 432.396 27.5 432.425 29.1895V36.3379C432.425 37.7637 432.625 38.9014 433.025 39.751V40H429.393ZM425.481 37.4365C426.185 37.4365 426.844 37.2656 427.459 36.9238C428.084 36.582 428.553 36.123 428.865 35.5469V32.5586H426.946C425.628 32.5586 424.637 32.7881 423.973 33.2471C423.309 33.7061 422.977 34.3555 422.977 35.1953C422.977 35.8789 423.201 36.4258 423.65 36.8359C424.109 37.2363 424.72 37.4365 425.481 37.4365ZM448.392 26.9775H443.25V40H439.69V26.9775H434.607V24.1504H448.392V26.9775ZM454.603 29.1895H458.089C459.388 29.1895 460.521 29.4141 461.487 29.8633C462.454 30.3125 463.187 30.9424 463.685 31.7529C464.192 32.5635 464.446 33.5059 464.446 34.5801C464.446 36.2109 463.87 37.5195 462.718 38.5059C461.565 39.4922 460.032 39.9902 458.118 40H451.043V24.1504H454.603V29.1895ZM454.603 32.0459V37.1582H458.074C458.943 37.1582 459.627 36.9434 460.125 36.5137C460.633 36.0742 460.887 35.4541 460.887 34.6533C460.887 33.8525 460.638 33.2227 460.14 32.7637C459.651 32.2949 458.987 32.0557 458.147 32.0459H454.603ZM471.155 30.5225H474.144C474.407 28.501 475.188 26.8848 476.487 25.6738C477.786 24.4629 479.427 23.8574 481.409 23.8574C483.548 23.8574 485.281 24.5459 486.609 25.9229C487.947 27.2998 488.67 29.126 488.777 31.4014L488.792 32.2363C488.792 33.7988 488.489 35.1953 487.884 36.4258C487.288 37.6562 486.429 38.6084 485.306 39.2822C484.192 39.9561 482.903 40.293 481.438 40.293C479.388 40.293 477.703 39.6582 476.385 38.3887C475.076 37.1191 474.319 35.4492 474.114 33.3789H471.155V40H467.596V24.1504H471.155V30.5225ZM477.615 32.2363C477.615 33.8672 477.952 35.1465 478.626 36.0742C479.3 36.9922 480.237 37.4512 481.438 37.4512C482.64 37.4512 483.572 36.9824 484.236 36.0449C484.9 35.1074 485.232 33.7354 485.232 31.9287C485.232 30.2979 484.886 29.0234 484.192 28.1055C483.509 27.1777 482.581 26.7139 481.409 26.7139C480.247 26.7139 479.324 27.1777 478.641 28.1055C477.957 29.0234 477.615 30.4004 477.615 32.2363Z" fill="#FB929E"/>
</g>
<defs>
<filter id="filter0_d" x="0" y="0" width="668" height="63" filterUnits="userSpaceOnUse" color-interpolation-filters="sRGB">
<feFlood flood-opacity="0" result="BackgroundImageFix"/>
<feColorMatrix in="SourceAlpha" type="matrix" values="0 0 0 0 0 0 0 0 0 0 0 0 0 0 0 0 0 0 127 0"/>
<feOffset dy="4"/>
<feGaussianBlur stdDeviation="2"/>
<feColorMatrix type="matrix" values="0 0 0 0 0 0 0 0 0 0 0 0 0 0 0 0 0 0 0.25 0"/>
<feBlend mode="normal" in2="BackgroundImageFix" result="effect1_dropShadow"/>
<feBlend mode="normal" in="SourceGraphic" in2="effect1_dropShadow" result="shape"/>
</filter>
<filter id="filter1_i" x="180.589" y="17.2217" width="308.203" height="33.1797" filterUnits="userSpaceOnUse" color-interpolation-filters="sRGB">
<feFlood flood-opacity="0" result="BackgroundImageFix"/>
<feBlend mode="normal" in="SourceGraphic" in2="BackgroundImageFix" result="shape"/>
<feColorMatrix in="SourceAlpha" type="matrix" values="0 0 0 0 0 0 0 0 0 0 0 0 0 0 0 0 0 0 127 0" result="hardAlpha"/>
<feOffset dy="4"/>
<feGaussianBlur stdDeviation="2"/>
<feComposite in2="hardAlpha" operator="arithmetic" k2="-1" k3="1"/>
<feColorMatrix type="matrix" values="0 0 0 0 0 0 0 0 0 0 0 0 0 0 0 0 0 0 0.25 0"/>
<feBlend mode="normal" in2="shape" result="effect1_innerShadow"/>
</filter>
</defs>
</svg>
