<svg width="368" height="63" viewBox="0 0 368 63" fill="none" xmlns="http://www.w3.org/2000/svg">
<g filter="url(#filter0_d)">
<rect width="360" height="55" rx="20" transform="matrix(1 0 0 -1 4 55)" fill="#FFDFDF"/>
</g>
<g filter="url(#filter1_i)">
<path d="M48.2842 29.8926C48.2842 31.9824 47.9229 33.8184 47.2002 35.4004C46.4775 36.9727 45.4424 38.1836 44.0947 39.0332C42.7568 39.873 41.2139 40.293 39.4658 40.293C37.7373 40.293 36.1943 39.873 34.8369 39.0332C33.4893 38.1836 32.4443 36.9775 31.7021 35.415C30.9697 33.8525 30.5986 32.0508 30.5889 30.0098V28.8086C30.5889 26.7285 30.9551 24.8926 31.6875 23.3008C32.4297 21.709 33.4697 20.4932 34.8076 19.6533C36.1553 18.8037 37.6982 18.3789 39.4365 18.3789C41.1748 18.3789 42.7129 18.7988 44.0508 19.6387C45.3984 20.4688 46.4385 21.6699 47.1709 23.2422C47.9033 24.8047 48.2744 26.626 48.2842 28.7061V29.8926ZM44.5781 28.7793C44.5781 26.416 44.1289 24.6045 43.2305 23.3447C42.3418 22.085 41.0771 21.4551 39.4365 21.4551C37.835 21.4551 36.5801 22.085 35.6719 23.3447C34.7734 24.5947 34.3145 26.3672 34.2949 28.6621V29.8926C34.2949 32.2363 34.749 34.0479 35.6572 35.3271C36.5752 36.6064 37.8447 37.2461 39.4658 37.2461C41.1064 37.2461 42.3662 36.6211 43.2451 35.3711C44.1338 34.1211 44.5781 32.2949 44.5781 29.8926V28.7793ZM65.0713 40H61.5117V27.0215H55.3301V40H51.7705V24.1504H65.0713V40ZM74.4023 34.9023L77.625 24.1504H81.4189L75.1201 42.4023C74.1533 45.0684 72.5127 46.4014 70.1982 46.4014C69.6807 46.4014 69.1094 46.3135 68.4844 46.1377V43.3838L69.1582 43.4277C70.0566 43.4277 70.7305 43.2617 71.1797 42.9297C71.6387 42.6074 72 42.0605 72.2637 41.2891L72.7764 39.9268L67.21 24.1504H71.0479L74.4023 34.9023ZM90.9404 25.0293C92.9326 25.0293 94.5293 25.6982 95.7305 27.0361C96.9316 28.3643 97.5322 30.1709 97.5322 32.4561V32.6318C97.5322 34.917 96.8779 36.7676 95.5693 38.1836C94.2705 39.5996 92.5029 40.3076 90.2666 40.3076C88.0889 40.3076 86.3311 39.585 84.9932 38.1396C83.6553 36.6943 82.9863 34.7217 82.9863 32.2217V31.1963C82.9863 27.7783 83.5918 25.0732 84.8027 23.0811C86.0137 21.0889 87.8203 19.8438 90.2227 19.3457C91.5703 19.0723 92.4395 18.7842 92.8301 18.4814C93.2305 18.1689 93.4307 17.749 93.4307 17.2217H96.3018C96.3018 18.208 96.1406 19.0088 95.8184 19.624C95.4961 20.2393 95.0029 20.7422 94.3389 21.1328C93.6748 21.5137 92.5322 21.875 90.9111 22.2168C89.4268 22.5293 88.2939 23.0859 87.5127 23.8867C86.7412 24.6875 86.2236 25.7959 85.96 27.2119C87.376 25.7568 89.0361 25.0293 90.9404 25.0293ZM90.2373 27.8857C89.085 27.8857 88.1816 28.2764 87.5273 29.0576C86.873 29.8291 86.5459 31.0205 86.5459 32.6318C86.5459 34.1553 86.8682 35.3418 87.5127 36.1914C88.1572 37.041 89.0752 37.4658 90.2666 37.4658C91.4482 37.4658 92.3613 37.041 93.0059 36.1914C93.6602 35.332 93.9873 34.043 93.9873 32.3242C93.9873 30.957 93.6602 29.8779 93.0059 29.0869C92.3613 28.2861 91.4385 27.8857 90.2373 27.8857ZM113.792 24.1504V40H110.232V27.0215H105.75L105.457 32.5439C105.271 35.2002 104.759 37.1094 103.919 38.2715C103.089 39.4238 101.814 40 100.096 40H98.9971L98.9824 37.041L99.7148 36.9678C100.496 36.8604 101.062 36.3867 101.414 35.5469C101.775 34.6973 102.005 33.1543 102.103 30.918L102.396 24.1504H113.792ZM127.474 24.1504H131.019V40H127.474V29.4238L121.263 40H117.718V24.1504H121.263V34.7266L127.474 24.1504ZM140.438 33.7305H138.636V40H135.076V24.1504H138.636V30.4785H140.203L144.583 24.1504H148.978L143.25 31.7383L149.461 40H144.832L140.438 33.7305ZM149.9 31.9287C149.9 30.376 150.208 28.9795 150.823 27.7393C151.438 26.4893 152.303 25.5322 153.416 24.8682C154.529 24.1943 155.809 23.8574 157.254 23.8574C159.393 23.8574 161.126 24.5459 162.454 25.9229C163.792 27.2998 164.515 29.126 164.622 31.4014L164.637 32.2363C164.637 33.7988 164.334 35.1953 163.729 36.4258C163.133 37.6562 162.273 38.6084 161.15 39.2822C160.037 39.9561 158.748 40.293 157.283 40.293C155.047 40.293 153.255 39.5508 151.907 38.0664C150.569 36.5723 149.9 34.585 149.9 32.1045V31.9287ZM153.46 32.2363C153.46 33.8672 153.797 35.1465 154.471 36.0742C155.145 36.9922 156.082 37.4512 157.283 37.4512C158.484 37.4512 159.417 36.9824 160.081 36.0449C160.755 35.1074 161.092 33.7354 161.092 31.9287C161.092 30.3271 160.745 29.0576 160.052 28.1201C159.368 27.1826 158.436 26.7139 157.254 26.7139C156.092 26.7139 155.169 27.1777 154.485 28.1055C153.802 29.0234 153.46 30.4004 153.46 32.2363ZM167.918 40V24.1504H174.349C176.517 24.1504 178.167 24.5312 179.3 25.293C180.433 26.0449 180.999 27.1289 180.999 28.5449C180.999 29.2773 180.77 29.9365 180.311 30.5225C179.861 31.0986 179.192 31.543 178.304 31.8555C179.339 32.0703 180.159 32.5049 180.765 33.1592C181.37 33.8135 181.673 34.585 181.673 35.4736C181.673 36.9482 181.126 38.0713 180.032 38.8428C178.948 39.6143 177.386 40 175.345 40H167.918ZM171.478 33.2471V37.1875H175.374C177.2 37.1875 178.113 36.5332 178.113 35.2246C178.113 33.9062 177.186 33.2471 175.33 33.2471H171.478ZM171.478 30.6982H174.407C176.429 30.6982 177.439 30.1025 177.439 28.9111C177.439 27.6611 176.482 27.0166 174.568 26.9775H171.478V30.6982ZM194.227 40C194.07 39.6973 193.934 39.2041 193.816 38.5205C192.684 39.7021 191.297 40.293 189.656 40.293C188.064 40.293 186.766 39.8389 185.76 38.9307C184.754 38.0225 184.251 36.8994 184.251 35.5615C184.251 33.8721 184.876 32.5781 186.126 31.6797C187.386 30.7715 189.183 30.3174 191.517 30.3174H193.699V29.2773C193.699 28.457 193.47 27.8027 193.011 27.3145C192.552 26.8164 191.854 26.5674 190.916 26.5674C190.105 26.5674 189.441 26.7725 188.924 27.1826C188.406 27.583 188.147 28.0957 188.147 28.7207H184.588C184.588 27.8516 184.876 27.041 185.452 26.2891C186.028 25.5273 186.81 24.9316 187.796 24.502C188.792 24.0723 189.9 23.8574 191.121 23.8574C192.977 23.8574 194.456 24.3262 195.56 25.2637C196.663 26.1914 197.229 27.5 197.259 29.1895V36.3379C197.259 37.7637 197.459 38.9014 197.859 39.751V40H194.227ZM190.315 37.4365C191.019 37.4365 191.678 37.2656 192.293 36.9238C192.918 36.582 193.387 36.123 193.699 35.5469V32.5586H191.78C190.462 32.5586 189.471 32.7881 188.807 33.2471C188.143 33.7061 187.811 34.3555 187.811 35.1953C187.811 35.8789 188.035 36.4258 188.484 36.8359C188.943 37.2363 189.554 37.4365 190.315 37.4365ZM213.226 26.9775H208.084V40H204.524V26.9775H199.441V24.1504H213.226V26.9775ZM219.437 29.1895H222.923C224.222 29.1895 225.354 29.4141 226.321 29.8633C227.288 30.3125 228.021 30.9424 228.519 31.7529C229.026 32.5635 229.28 33.5059 229.28 34.5801C229.28 36.2109 228.704 37.5195 227.552 38.5059C226.399 39.4922 224.866 39.9902 222.952 40H215.877V24.1504H219.437V29.1895ZM219.437 32.0459V37.1582H222.908C223.777 37.1582 224.461 36.9434 224.959 36.5137C225.467 36.0742 225.721 35.4541 225.721 34.6533C225.721 33.8525 225.472 33.2227 224.974 32.7637C224.485 32.2949 223.821 32.0557 222.981 32.0459H219.437ZM246.111 37.4512C247 37.4512 247.737 37.1924 248.323 36.6748C248.909 36.1572 249.222 35.5176 249.261 34.7559H252.615C252.576 35.7422 252.269 36.665 251.692 37.5244C251.116 38.374 250.335 39.0479 249.349 39.5459C248.362 40.0439 247.298 40.293 246.155 40.293C243.938 40.293 242.181 39.5752 240.882 38.1396C239.583 36.7041 238.934 34.7217 238.934 32.1924V31.8262C238.934 29.4141 239.578 27.4854 240.867 26.04C242.156 24.585 243.914 23.8574 246.141 23.8574C248.025 23.8574 249.559 24.4092 250.74 25.5127C251.932 26.6064 252.557 28.0469 252.615 29.834H249.261C249.222 28.9258 248.909 28.1787 248.323 27.5928C247.747 27.0068 247.01 26.7139 246.111 26.7139C244.959 26.7139 244.07 27.1338 243.445 27.9736C242.82 28.8037 242.503 30.0684 242.493 31.7676V32.3389C242.493 34.0576 242.801 35.3418 243.416 36.1914C244.041 37.0312 244.939 37.4512 246.111 37.4512ZM267.776 26.9775H262.635V40H259.075V26.9775H253.992V24.1504H267.776V26.9775ZM279.393 40C279.236 39.6973 279.1 39.2041 278.982 38.5205C277.85 39.7021 276.463 40.293 274.822 40.293C273.23 40.293 271.932 39.8389 270.926 38.9307C269.92 38.0225 269.417 36.8994 269.417 35.5615C269.417 33.8721 270.042 32.5781 271.292 31.6797C272.552 30.7715 274.349 30.3174 276.683 30.3174H278.865V29.2773C278.865 28.457 278.636 27.8027 278.177 27.3145C277.718 26.8164 277.02 26.5674 276.082 26.5674C275.271 26.5674 274.607 26.7725 274.09 27.1826C273.572 27.583 273.313 28.0957 273.313 28.7207H269.754C269.754 27.8516 270.042 27.041 270.618 26.2891C271.194 25.5273 271.976 24.9316 272.962 24.502C273.958 24.0723 275.066 23.8574 276.287 23.8574C278.143 23.8574 279.622 24.3262 280.726 25.2637C281.829 26.1914 282.396 27.5 282.425 29.1895V36.3379C282.425 37.7637 282.625 38.9014 283.025 39.751V40H279.393ZM275.481 37.4365C276.185 37.4365 276.844 37.2656 277.459 36.9238C278.084 36.582 278.553 36.123 278.865 35.5469V32.5586H276.946C275.628 32.5586 274.637 32.7881 273.973 33.2471C273.309 33.7061 272.977 34.3555 272.977 35.1953C272.977 35.8789 273.201 36.4258 273.65 36.8359C274.109 37.2363 274.72 37.4365 275.481 37.4365ZM298.392 26.9775H293.25V40H289.69V26.9775H284.607V24.1504H298.392V26.9775ZM304.603 29.1895H308.089C309.388 29.1895 310.521 29.4141 311.487 29.8633C312.454 30.3125 313.187 30.9424 313.685 31.7529C314.192 32.5635 314.446 33.5059 314.446 34.5801C314.446 36.2109 313.87 37.5195 312.718 38.5059C311.565 39.4922 310.032 39.9902 308.118 40H301.043V24.1504H304.603V29.1895ZM304.603 32.0459V37.1582H308.074C308.943 37.1582 309.627 36.9434 310.125 36.5137C310.633 36.0742 310.887 35.4541 310.887 34.6533C310.887 33.8525 310.638 33.2227 310.14 32.7637C309.651 32.2949 308.987 32.0557 308.147 32.0459H304.603ZM321.155 30.5225H324.144C324.407 28.501 325.188 26.8848 326.487 25.6738C327.786 24.4629 329.427 23.8574 331.409 23.8574C333.548 23.8574 335.281 24.5459 336.609 25.9229C337.947 27.2998 338.67 29.126 338.777 31.4014L338.792 32.2363C338.792 33.7988 338.489 35.1953 337.884 36.4258C337.288 37.6562 336.429 38.6084 335.306 39.2822C334.192 39.9561 332.903 40.293 331.438 40.293C329.388 40.293 327.703 39.6582 326.385 38.3887C325.076 37.1191 324.319 35.4492 324.114 33.3789H321.155V40H317.596V24.1504H321.155V30.5225ZM327.615 32.2363C327.615 33.8672 327.952 35.1465 328.626 36.0742C329.3 36.9922 330.237 37.4512 331.438 37.4512C332.64 37.4512 333.572 36.9824 334.236 36.0449C334.9 35.1074 335.232 33.7354 335.232 31.9287C335.232 30.2979 334.886 29.0234 334.192 28.1055C333.509 27.1777 332.581 26.7139 331.409 26.7139C330.247 26.7139 329.324 27.1777 328.641 28.1055C327.957 29.0234 327.615 30.4004 327.615 32.2363Z" fill="#FB929E"/>
</g>
<defs>
<filter id="filter0_d" x="0" y="0" width="368" height="63" filterUnits="userSpaceOnUse" color-interpolation-filters="sRGB">
<feFlood flood-opacity="0" result="BackgroundImageFix"/>
<feColorMatrix in="SourceAlpha" type="matrix" values="0 0 0 0 0 0 0 0 0 0 0 0 0 0 0 0 0 0 127 0"/>
<feOffset dy="4"/>
<feGaussianBlur stdDeviation="2"/>
<feColorMatrix type="matrix" values="0 0 0 0 0 0 0 0 0 0 0 0 0 0 0 0 0 0 0.25 0"/>
<feBlend mode="normal" in2="BackgroundImageFix" result="effect1_dropShadow"/>
<feBlend mode="normal" in="SourceGraphic" in2="effect1_dropShadow" result="shape"/>
</filter>
<filter id="filter1_i" x="30.5889" y="17.2217" width="308.203" height="33.1797" filterUnits="userSpaceOnUse" color-interpolation-filters="sRGB">
<feFlood flood-opacity="0" result="BackgroundImageFix"/>
<feBlend mode="normal" in="SourceGraphic" in2="BackgroundImageFix" result="shape"/>
<feColorMatrix in="SourceAlpha" type="matrix" values="0 0 0 0 0 0 0 0 0 0 0 0 0 0 0 0 0 0 127 0" result="hardAlpha"/>
<feOffset dy="4"/>
<feGaussianBlur stdDeviation="2"/>
<feComposite in2="hardAlpha" operator="arithmetic" k2="-1" k3="1"/>
<feColorMatrix type="matrix" values="0 0 0 0 0 0 0 0 0 0 0 0 0 0 0 0 0 0 0.25 0"/>
<feBlend mode="normal" in2="shape" result="effect1_innerShadow"/>
</filter>
</defs>
</svg>
