<svg width="734" height="141" viewBox="0 0 734 141" fill="none" xmlns="http://www.w3.org/2000/svg">
<g filter="url(#filter0_d)">
<path fill-rule="evenodd" clip-rule="evenodd" d="M348.1 6.37053C420.849 4.66856 499.072 9.04898 554.222 19.4676C607.417 29.5168 608.848 46.2123 633.919 60.3656C660.754 75.5149 730.253 89.9477 706.055 105.181C681.842 120.423 582.134 121.377 521.751 130.975C459.496 140.872 424.784 159.637 347.753 162.137C268.137 164.721 187.942 155.198 126.986 143.787C69.1272 132.956 41.5442 117.123 22.5377 101.257C4.58584 86.2727 -7.42272 70.1392 21.949 56.1104C50.0085 42.7085 119.302 36.8616 175.216 28.3345C231.128 19.8074 279.509 7.97523 348.1 6.37053Z" fill="#FFDFDF"/>
<path fill-rule="evenodd" clip-rule="evenodd" d="M384.893 179.359C317.457 187.007 270.876 160.099 207.597 151.844C147.01 143.941 49.779 146.194 20.7242 131.854C-9.12776 117.12 40.1835 99.5149 70.8452 84.3481C93.4428 73.1701 147.113 66.9948 173.607 56.2298C200.448 45.3241 188.007 30.8315 225.366 21.5636C265.567 11.5905 324.891 5.98583 383.449 4.17237C444.643 2.27726 505.478 5.61903 560.783 11.1762C618.574 16.9832 666.168 26.1147 707.689 36.7527C755.477 48.9963 813.883 61.1987 820.261 77.6566C826.719 94.3202 807.87 116.143 741.726 124.576C664.761 134.389 559.568 108.991 486.409 120.223C406.931 132.425 470.632 169.635 384.893 179.359Z" fill="#FFF6F6"/>
</g>
<defs>
<filter id="filter0_d" x="0.192383" y="3.63855" width="825.263" height="185.074" filterUnits="userSpaceOnUse" color-interpolation-filters="sRGB">
<feFlood flood-opacity="0" result="BackgroundImageFix"/>
<feColorMatrix in="SourceAlpha" type="matrix" values="0 0 0 0 0 0 0 0 0 0 0 0 0 0 0 0 0 0 127 0"/>
<feOffset dy="4"/>
<feGaussianBlur stdDeviation="2"/>
<feColorMatrix type="matrix" values="0 0 0 0 0 0 0 0 0 0 0 0 0 0 0 0 0 0 0.25 0"/>
<feBlend mode="normal" in2="BackgroundImageFix" result="effect1_dropShadow"/>
<feBlend mode="normal" in="SourceGraphic" in2="effect1_dropShadow" result="shape"/>
</filter>
</defs>
</svg>
