<svg width="140" height="34" viewBox="0 0 140 34" fill="none" xmlns="http://www.w3.org/2000/svg">
<g filter="url(#filter0_d)">
<rect x="4" y="1" width="132" height="25" rx="10" fill="#FFF6F6"/>
</g>
<g filter="url(#filter1_i)">
<path d="M57.7139 15.6768C57.5492 17.4212 56.9053 18.7839 55.7822 19.7646C54.6592 20.738 53.1655 21.2246 51.3013 21.2246C49.9985 21.2246 48.8493 20.9176 47.8535 20.3037C46.8652 19.6823 46.1016 18.8026 45.5625 17.6646C45.0234 16.5265 44.7427 15.2051 44.7202 13.7002V12.1729C44.7202 10.6305 44.9935 9.27165 45.54 8.09619C46.0866 6.92074 46.869 6.01481 47.8872 5.37842C48.9129 4.74202 50.0959 4.42383 51.436 4.42383C53.2404 4.42383 54.6929 4.91423 55.7935 5.89502C56.894 6.87581 57.5342 8.2609 57.7139 10.0503H54.8838C54.749 8.87484 54.4046 8.02881 53.8506 7.51221C53.304 6.98812 52.4992 6.72607 51.436 6.72607C50.2007 6.72607 49.2498 7.17904 48.5835 8.08496C47.9246 8.9834 47.5877 10.3049 47.5728 12.0493V13.498C47.5728 15.265 47.8872 16.6126 48.5161 17.541C49.1525 18.4694 50.0809 18.9336 51.3013 18.9336C52.4168 18.9336 53.2554 18.6828 53.8169 18.1812C54.3784 17.6795 54.734 16.8447 54.8838 15.6768H57.7139ZM69.562 11.0161H65.6201V21H62.8911V11.0161H58.9941V8.84863H69.562V11.0161ZM78.4678 21C78.348 20.7679 78.2432 20.3898 78.1533 19.8657C77.2848 20.7716 76.2217 21.2246 74.9639 21.2246C73.7435 21.2246 72.7477 20.8765 71.9766 20.1802C71.2054 19.4839 70.8198 18.6229 70.8198 17.5972C70.8198 16.3019 71.299 15.3099 72.2573 14.6211C73.2231 13.9248 74.6007 13.5767 76.3901 13.5767H78.0635V12.7793C78.0635 12.1504 77.8875 11.6488 77.5356 11.2744C77.1838 10.8926 76.6484 10.7017 75.9297 10.7017C75.3083 10.7017 74.7992 10.8589 74.4023 11.1733C74.0055 11.4803 73.8071 11.8734 73.8071 12.3525H71.0781C71.0781 11.6862 71.299 11.0648 71.7407 10.4883C72.1825 9.9043 72.7814 9.44759 73.5376 9.11816C74.3013 8.78874 75.151 8.62402 76.0869 8.62402C77.5094 8.62402 78.6437 8.9834 79.4897 9.70215C80.3358 10.4134 80.77 11.4167 80.7925 12.7119V18.1924C80.7925 19.2855 80.946 20.1577 81.2529 20.8091V21H78.4678ZM75.4692 19.0347C76.0083 19.0347 76.5137 18.9036 76.9854 18.6416C77.4645 18.3796 77.8239 18.0277 78.0635 17.5859V15.2949H76.5923C75.5815 15.2949 74.8216 15.4709 74.3125 15.8228C73.8034 16.1746 73.5488 16.6725 73.5488 17.3164C73.5488 17.8405 73.721 18.2598 74.0654 18.5742C74.4173 18.8812 74.8853 19.0347 75.4692 19.0347ZM93.0337 11.0161H89.0918V21H86.3628V11.0161H82.4658V8.84863H93.0337V11.0161ZM97.7954 12.7119H100.468C101.464 12.7119 102.333 12.8841 103.074 13.2285C103.815 13.5729 104.376 14.0558 104.758 14.6772C105.148 15.2987 105.342 16.0212 105.342 16.8447C105.342 18.0951 104.901 19.0983 104.017 19.8545C103.134 20.6107 101.958 20.9925 100.491 21H95.0664V8.84863H97.7954V12.7119ZM97.7954 14.9019V18.8213H100.457C101.123 18.8213 101.647 18.6566 102.029 18.3271C102.419 17.9902 102.613 17.5148 102.613 16.9009C102.613 16.2869 102.422 15.804 102.041 15.4521C101.666 15.0928 101.157 14.9093 100.513 14.9019H97.7954ZM115.113 8.84863H117.831V21H115.113V12.8916L110.351 21H107.633V8.84863H110.351V16.957L115.113 8.84863Z" fill="#FB929E"/>
</g>
<g filter="url(#filter2_i)">
<path fill-rule="evenodd" clip-rule="evenodd" d="M32 20C32.5523 20 33 20.4477 33 21C33 21.5523 32.5523 22 32 22H18C17.4477 22 17 21.5523 17 21C17 20.4477 17.4477 20 18 20H32ZM32 13C32.5523 13 33 13.4477 33 14C33 14.5523 32.5523 15 32 15H18C17.4477 15 17 14.5523 17 14C17 13.4477 17.4477 13 18 13H32ZM32 6C32.5523 6 33 6.44772 33 7C33 7.55228 32.5523 8 32 8H18C17.4477 8 17 7.55228 17 7C17 6.44772 17.4477 6 18 6H32ZM13 6H15V8H13V6ZM13 13H15V15H13V13ZM13 20H15V22H13V20Z" fill="#FB929E"/>
</g>
<defs>
<filter id="filter0_d" x="0" y="1" width="140" height="33" filterUnits="userSpaceOnUse" color-interpolation-filters="sRGB">
<feFlood flood-opacity="0" result="BackgroundImageFix"/>
<feColorMatrix in="SourceAlpha" type="matrix" values="0 0 0 0 0 0 0 0 0 0 0 0 0 0 0 0 0 0 127 0"/>
<feOffset dy="4"/>
<feGaussianBlur stdDeviation="2"/>
<feColorMatrix type="matrix" values="0 0 0 0 0 0 0 0 0 0 0 0 0 0 0 0 0 0 0.25 0"/>
<feBlend mode="normal" in2="BackgroundImageFix" result="effect1_dropShadow"/>
<feBlend mode="normal" in="SourceGraphic" in2="effect1_dropShadow" result="shape"/>
</filter>
<filter id="filter1_i" x="44.7202" y="4.42383" width="73.1104" height="20.8008" filterUnits="userSpaceOnUse" color-interpolation-filters="sRGB">
<feFlood flood-opacity="0" result="BackgroundImageFix"/>
<feBlend mode="normal" in="SourceGraphic" in2="BackgroundImageFix" result="shape"/>
<feColorMatrix in="SourceAlpha" type="matrix" values="0 0 0 0 0 0 0 0 0 0 0 0 0 0 0 0 0 0 127 0" result="hardAlpha"/>
<feOffset dy="4"/>
<feGaussianBlur stdDeviation="2"/>
<feComposite in2="hardAlpha" operator="arithmetic" k2="-1" k3="1"/>
<feColorMatrix type="matrix" values="0 0 0 0 0 0 0 0 0 0 0 0 0 0 0 0 0 0 0.25 0"/>
<feBlend mode="normal" in2="shape" result="effect1_innerShadow"/>
</filter>
<filter id="filter2_i" x="11" y="2" width="24" height="28" filterUnits="userSpaceOnUse" color-interpolation-filters="sRGB">
<feFlood flood-opacity="0" result="BackgroundImageFix"/>
<feBlend mode="normal" in="SourceGraphic" in2="BackgroundImageFix" result="shape"/>
<feColorMatrix in="SourceAlpha" type="matrix" values="0 0 0 0 0 0 0 0 0 0 0 0 0 0 0 0 0 0 127 0" result="hardAlpha"/>
<feOffset dy="4"/>
<feGaussianBlur stdDeviation="2"/>
<feComposite in2="hardAlpha" operator="arithmetic" k2="-1" k3="1"/>
<feColorMatrix type="matrix" values="0 0 0 0 0 0 0 0 0 0 0 0 0 0 0 0 0 0 0.25 0"/>
<feBlend mode="normal" in2="shape" result="effect1_innerShadow"/>
</filter>
</defs>
</svg>
